G04 EAGLE Gerber RS-274X export*
G75*
%MOMM*%
%FSLAX34Y34*%
%LPD*%
%INTop Copper*%
%IPPOS*%
%AMOC8*
5,1,8,0,0,1.08239X$1,22.5*%
G01*
%ADD10R,1.100000X1.000000*%
%ADD11R,1.000000X1.100000*%
%ADD12R,0.800000X1.200000*%
%ADD13R,1.200000X0.550000*%
%ADD14R,1.200000X0.700000*%
%ADD15C,0.200000*%
%ADD16C,1.422400*%
%ADD17C,0.300000*%
%ADD18R,0.675000X0.250000*%
%ADD19R,0.250000X0.675000*%
%ADD20C,0.210000*%
%ADD21R,5.000000X5.000000*%
%ADD22R,1.400000X0.350000*%
%ADD23R,1.900000X1.800000*%
%ADD24R,1.900000X1.900000*%
%ADD25R,1.700000X2.400000*%
%ADD26C,0.764800*%
%ADD27C,1.879600*%
%ADD28C,0.254000*%
%ADD29C,0.724800*%
%ADD30C,0.304800*%
%ADD31C,0.152400*%

G36*
X29576Y117909D02*
X29576Y117909D01*
X29715Y117914D01*
X29735Y117919D01*
X29755Y117920D01*
X29887Y117963D01*
X30021Y118002D01*
X30038Y118012D01*
X30057Y118018D01*
X30175Y118093D01*
X30295Y118163D01*
X30316Y118182D01*
X30326Y118189D01*
X30340Y118204D01*
X30415Y118270D01*
X32500Y120355D01*
X45856Y120355D01*
X45974Y120370D01*
X46093Y120377D01*
X46131Y120390D01*
X46172Y120395D01*
X46282Y120438D01*
X46395Y120475D01*
X46430Y120497D01*
X46467Y120512D01*
X46563Y120581D01*
X46664Y120645D01*
X46692Y120675D01*
X46725Y120698D01*
X46801Y120790D01*
X46882Y120877D01*
X46902Y120912D01*
X46927Y120943D01*
X46978Y121051D01*
X47036Y121155D01*
X47046Y121195D01*
X47063Y121231D01*
X47085Y121348D01*
X47115Y121463D01*
X47119Y121523D01*
X47123Y121543D01*
X47121Y121564D01*
X47125Y121624D01*
X47125Y124251D01*
X47122Y124280D01*
X47124Y124310D01*
X47102Y124438D01*
X47085Y124567D01*
X47075Y124594D01*
X47070Y124623D01*
X47016Y124742D01*
X46968Y124862D01*
X46951Y124886D01*
X46939Y124913D01*
X46858Y125014D01*
X46782Y125120D01*
X46759Y125138D01*
X46740Y125161D01*
X46637Y125239D01*
X46537Y125322D01*
X46510Y125335D01*
X46486Y125353D01*
X46342Y125424D01*
X46105Y125522D01*
X43942Y127685D01*
X42771Y130511D01*
X42771Y133569D01*
X43811Y136080D01*
X43819Y136108D01*
X43832Y136134D01*
X43861Y136261D01*
X43895Y136386D01*
X43895Y136416D01*
X43902Y136445D01*
X43898Y136574D01*
X43900Y136704D01*
X43893Y136733D01*
X43892Y136763D01*
X43856Y136887D01*
X43826Y137014D01*
X43812Y137040D01*
X43804Y137068D01*
X43738Y137180D01*
X43677Y137295D01*
X43657Y137317D01*
X43642Y137342D01*
X43536Y137463D01*
X41795Y139204D01*
X41276Y140456D01*
X41248Y140505D01*
X41229Y140558D01*
X41170Y140643D01*
X41119Y140733D01*
X41079Y140773D01*
X41047Y140820D01*
X40969Y140887D01*
X40897Y140961D01*
X40849Y140991D01*
X40807Y141028D01*
X40714Y141073D01*
X40626Y141127D01*
X40572Y141144D01*
X40522Y141169D01*
X40421Y141191D01*
X40322Y141221D01*
X40266Y141224D01*
X40211Y141235D01*
X40108Y141231D01*
X40005Y141236D01*
X39949Y141225D01*
X39893Y141222D01*
X39794Y141193D01*
X39693Y141172D01*
X39642Y141147D01*
X39588Y141131D01*
X39500Y141077D01*
X39407Y141032D01*
X39365Y140996D01*
X39316Y140966D01*
X39244Y140893D01*
X39165Y140826D01*
X39133Y140780D01*
X39093Y140739D01*
X39004Y140605D01*
X38774Y140206D01*
X38122Y139554D01*
X37324Y139094D01*
X36434Y138855D01*
X34972Y138855D01*
X34972Y144626D01*
X34957Y144744D01*
X34950Y144862D01*
X34937Y144901D01*
X34932Y144941D01*
X34888Y145052D01*
X34852Y145165D01*
X34830Y145199D01*
X34815Y145237D01*
X34745Y145333D01*
X34681Y145434D01*
X34652Y145461D01*
X34628Y145494D01*
X34536Y145570D01*
X34450Y145652D01*
X34414Y145671D01*
X34383Y145697D01*
X34276Y145748D01*
X34171Y145805D01*
X34132Y145815D01*
X34095Y145832D01*
X33989Y145853D01*
X34018Y145857D01*
X34129Y145900D01*
X34242Y145937D01*
X34276Y145959D01*
X34314Y145974D01*
X34410Y146043D01*
X34511Y146107D01*
X34538Y146137D01*
X34571Y146160D01*
X34647Y146252D01*
X34729Y146339D01*
X34748Y146374D01*
X34774Y146405D01*
X34825Y146513D01*
X34882Y146617D01*
X34892Y146657D01*
X34910Y146693D01*
X34932Y146810D01*
X34962Y146925D01*
X34965Y146985D01*
X34969Y147005D01*
X34968Y147026D01*
X34972Y147086D01*
X34972Y152856D01*
X36434Y152857D01*
X37324Y152618D01*
X38122Y152157D01*
X38774Y151505D01*
X39004Y151106D01*
X39038Y151061D01*
X39065Y151011D01*
X39134Y150935D01*
X39197Y150853D01*
X39241Y150818D01*
X39279Y150776D01*
X39365Y150719D01*
X39446Y150655D01*
X39497Y150632D01*
X39544Y150601D01*
X39642Y150568D01*
X39736Y150526D01*
X39792Y150516D01*
X39845Y150498D01*
X39948Y150490D01*
X40050Y150473D01*
X40106Y150477D01*
X40162Y150473D01*
X40264Y150491D01*
X40367Y150499D01*
X40420Y150518D01*
X40476Y150527D01*
X40570Y150570D01*
X40667Y150604D01*
X40714Y150635D01*
X40766Y150658D01*
X40846Y150722D01*
X40932Y150779D01*
X40970Y150821D01*
X41014Y150856D01*
X41076Y150939D01*
X41145Y151016D01*
X41171Y151065D01*
X41205Y151111D01*
X41276Y151255D01*
X41795Y152508D01*
X43360Y154073D01*
X45406Y154921D01*
X54620Y154921D01*
X56665Y154073D01*
X58230Y152508D01*
X58451Y151974D01*
X58466Y151948D01*
X58475Y151920D01*
X58544Y151811D01*
X58609Y151698D01*
X58629Y151677D01*
X58645Y151652D01*
X58740Y151563D01*
X58830Y151469D01*
X58855Y151454D01*
X58877Y151434D01*
X58991Y151371D01*
X59101Y151303D01*
X59129Y151294D01*
X59155Y151280D01*
X59281Y151248D01*
X59405Y151210D01*
X59435Y151208D01*
X59463Y151201D01*
X59624Y151191D01*
X66920Y151191D01*
X67019Y151203D01*
X67118Y151206D01*
X67176Y151223D01*
X67236Y151230D01*
X67328Y151267D01*
X67423Y151294D01*
X67475Y151325D01*
X67532Y151347D01*
X67612Y151406D01*
X67697Y151456D01*
X67772Y151522D01*
X67789Y151534D01*
X67797Y151544D01*
X67818Y151562D01*
X70638Y154383D01*
X72599Y155195D01*
X109212Y155195D01*
X109310Y155207D01*
X109409Y155210D01*
X109467Y155227D01*
X109527Y155235D01*
X109619Y155271D01*
X109714Y155299D01*
X109767Y155329D01*
X109823Y155352D01*
X109903Y155410D01*
X109988Y155460D01*
X110064Y155526D01*
X110080Y155538D01*
X110088Y155548D01*
X110109Y155566D01*
X111602Y157060D01*
X125476Y157060D01*
X125594Y157075D01*
X125713Y157082D01*
X125751Y157095D01*
X125792Y157100D01*
X125902Y157143D01*
X126015Y157180D01*
X126050Y157202D01*
X126087Y157217D01*
X126183Y157287D01*
X126284Y157350D01*
X126312Y157380D01*
X126345Y157403D01*
X126421Y157495D01*
X126502Y157582D01*
X126522Y157617D01*
X126547Y157648D01*
X126598Y157756D01*
X126656Y157860D01*
X126666Y157900D01*
X126683Y157936D01*
X126705Y158053D01*
X126735Y158168D01*
X126739Y158229D01*
X126743Y158249D01*
X126741Y158269D01*
X126745Y158329D01*
X126745Y174651D01*
X126740Y174690D01*
X126743Y174730D01*
X126720Y174848D01*
X126705Y174966D01*
X126691Y175003D01*
X126683Y175042D01*
X126632Y175151D01*
X126588Y175262D01*
X126565Y175294D01*
X126548Y175330D01*
X126472Y175423D01*
X126402Y175519D01*
X126371Y175545D01*
X126346Y175575D01*
X126249Y175646D01*
X126157Y175722D01*
X126121Y175739D01*
X126088Y175763D01*
X125977Y175807D01*
X125869Y175858D01*
X125830Y175865D01*
X125793Y175880D01*
X125674Y175895D01*
X125557Y175918D01*
X125517Y175915D01*
X125477Y175920D01*
X125358Y175905D01*
X125239Y175898D01*
X125201Y175886D01*
X125162Y175881D01*
X125050Y175837D01*
X124937Y175800D01*
X124903Y175779D01*
X124866Y175764D01*
X124730Y175678D01*
X123322Y174655D01*
X121724Y173840D01*
X120017Y173286D01*
X119887Y173265D01*
X119887Y183134D01*
X119872Y183252D01*
X119865Y183371D01*
X119852Y183409D01*
X119847Y183449D01*
X119804Y183560D01*
X119767Y183673D01*
X119745Y183707D01*
X119730Y183745D01*
X119660Y183841D01*
X119597Y183942D01*
X119567Y183970D01*
X119543Y184002D01*
X119452Y184078D01*
X119365Y184160D01*
X119330Y184179D01*
X119299Y184205D01*
X119191Y184256D01*
X119087Y184313D01*
X119047Y184324D01*
X119011Y184341D01*
X118894Y184363D01*
X118779Y184393D01*
X118718Y184397D01*
X118698Y184401D01*
X118678Y184399D01*
X118618Y184403D01*
X116078Y184403D01*
X115960Y184388D01*
X115841Y184381D01*
X115803Y184368D01*
X115762Y184363D01*
X115652Y184319D01*
X115539Y184283D01*
X115504Y184261D01*
X115467Y184246D01*
X115371Y184176D01*
X115270Y184113D01*
X115242Y184083D01*
X115209Y184059D01*
X115134Y183968D01*
X115052Y183881D01*
X115032Y183846D01*
X115007Y183814D01*
X114956Y183707D01*
X114898Y183602D01*
X114888Y183563D01*
X114871Y183527D01*
X114849Y183410D01*
X114819Y183295D01*
X114815Y183234D01*
X114811Y183214D01*
X114813Y183194D01*
X114809Y183134D01*
X114809Y173265D01*
X114679Y173286D01*
X112972Y173840D01*
X111374Y174655D01*
X109922Y175710D01*
X108654Y176978D01*
X107599Y178430D01*
X106889Y179824D01*
X106838Y179898D01*
X106797Y179977D01*
X106749Y180029D01*
X106710Y180087D01*
X106643Y180146D01*
X106583Y180212D01*
X106524Y180251D01*
X106471Y180297D01*
X106392Y180338D01*
X106317Y180387D01*
X106251Y180410D01*
X106188Y180441D01*
X106101Y180461D01*
X106016Y180490D01*
X105946Y180496D01*
X105878Y180511D01*
X105788Y180508D01*
X105699Y180515D01*
X105630Y180503D01*
X105560Y180501D01*
X105474Y180476D01*
X105386Y180461D01*
X105322Y180432D01*
X105254Y180413D01*
X105177Y180367D01*
X105096Y180330D01*
X105041Y180287D01*
X104981Y180251D01*
X104917Y180188D01*
X104847Y180132D01*
X104805Y180076D01*
X104756Y180026D01*
X104710Y179949D01*
X104656Y179878D01*
X104601Y179765D01*
X104593Y179753D01*
X104592Y179746D01*
X104585Y179733D01*
X103361Y176778D01*
X99574Y172991D01*
X94626Y170941D01*
X89270Y170941D01*
X84322Y172991D01*
X80535Y176778D01*
X80421Y177054D01*
X80352Y177175D01*
X80287Y177297D01*
X80273Y177312D01*
X80263Y177330D01*
X80166Y177430D01*
X80073Y177533D01*
X80056Y177544D01*
X80042Y177558D01*
X79924Y177631D01*
X79807Y177708D01*
X79788Y177714D01*
X79771Y177725D01*
X79638Y177766D01*
X79506Y177811D01*
X79486Y177812D01*
X79467Y177818D01*
X79328Y177825D01*
X79189Y177836D01*
X79169Y177832D01*
X79149Y177833D01*
X79013Y177805D01*
X78876Y177781D01*
X78857Y177773D01*
X78838Y177769D01*
X78712Y177708D01*
X78586Y177651D01*
X78570Y177638D01*
X78552Y177629D01*
X78446Y177539D01*
X78337Y177452D01*
X78325Y177436D01*
X78310Y177423D01*
X78229Y177309D01*
X78146Y177198D01*
X78134Y177173D01*
X78127Y177163D01*
X78120Y177144D01*
X78075Y177054D01*
X77961Y176778D01*
X74174Y172991D01*
X69226Y170941D01*
X63870Y170941D01*
X58922Y172991D01*
X55135Y176778D01*
X55021Y177054D01*
X54952Y177175D01*
X54887Y177297D01*
X54873Y177312D01*
X54863Y177330D01*
X54766Y177430D01*
X54673Y177533D01*
X54656Y177544D01*
X54642Y177558D01*
X54524Y177631D01*
X54407Y177708D01*
X54388Y177714D01*
X54371Y177725D01*
X54238Y177766D01*
X54106Y177811D01*
X54086Y177812D01*
X54067Y177818D01*
X53928Y177825D01*
X53789Y177836D01*
X53769Y177832D01*
X53749Y177833D01*
X53613Y177805D01*
X53476Y177781D01*
X53457Y177773D01*
X53438Y177769D01*
X53312Y177708D01*
X53186Y177651D01*
X53170Y177638D01*
X53152Y177629D01*
X53046Y177539D01*
X52937Y177452D01*
X52925Y177436D01*
X52910Y177423D01*
X52829Y177309D01*
X52746Y177198D01*
X52734Y177173D01*
X52727Y177163D01*
X52720Y177144D01*
X52675Y177054D01*
X52561Y176778D01*
X48774Y172991D01*
X43826Y170941D01*
X38470Y170941D01*
X33522Y172991D01*
X29735Y176778D01*
X29621Y177054D01*
X29552Y177175D01*
X29487Y177297D01*
X29473Y177312D01*
X29463Y177330D01*
X29366Y177430D01*
X29273Y177533D01*
X29256Y177544D01*
X29242Y177558D01*
X29124Y177631D01*
X29007Y177708D01*
X28988Y177714D01*
X28971Y177725D01*
X28838Y177766D01*
X28706Y177811D01*
X28686Y177812D01*
X28667Y177818D01*
X28528Y177825D01*
X28389Y177836D01*
X28369Y177832D01*
X28349Y177833D01*
X28213Y177805D01*
X28076Y177781D01*
X28057Y177773D01*
X28038Y177769D01*
X27912Y177708D01*
X27786Y177651D01*
X27770Y177638D01*
X27752Y177629D01*
X27646Y177539D01*
X27537Y177452D01*
X27525Y177436D01*
X27510Y177423D01*
X27429Y177309D01*
X27346Y177198D01*
X27334Y177173D01*
X27327Y177163D01*
X27320Y177144D01*
X27275Y177054D01*
X27161Y176778D01*
X23374Y172991D01*
X18426Y170941D01*
X13070Y170941D01*
X8122Y172991D01*
X7501Y173611D01*
X7392Y173696D01*
X7285Y173785D01*
X7266Y173794D01*
X7250Y173806D01*
X7122Y173862D01*
X6997Y173921D01*
X6977Y173925D01*
X6958Y173933D01*
X6820Y173955D01*
X6684Y173981D01*
X6664Y173979D01*
X6644Y173982D01*
X6505Y173969D01*
X6367Y173961D01*
X6348Y173955D01*
X6328Y173953D01*
X6197Y173906D01*
X6065Y173863D01*
X6047Y173852D01*
X6028Y173845D01*
X5914Y173767D01*
X5796Y173693D01*
X5782Y173678D01*
X5765Y173666D01*
X5673Y173562D01*
X5578Y173461D01*
X5568Y173443D01*
X5555Y173428D01*
X5492Y173304D01*
X5424Y173182D01*
X5419Y173163D01*
X5410Y173145D01*
X5380Y173009D01*
X5345Y172875D01*
X5343Y172847D01*
X5340Y172835D01*
X5341Y172814D01*
X5335Y172714D01*
X5335Y153810D01*
X5350Y153692D01*
X5357Y153573D01*
X5370Y153535D01*
X5375Y153494D01*
X5418Y153384D01*
X5455Y153271D01*
X5477Y153236D01*
X5492Y153199D01*
X5561Y153103D01*
X5625Y153002D01*
X5655Y152974D01*
X5678Y152941D01*
X5770Y152865D01*
X5857Y152784D01*
X5892Y152764D01*
X5923Y152739D01*
X6031Y152688D01*
X6135Y152630D01*
X6175Y152620D01*
X6211Y152603D01*
X6328Y152581D01*
X6443Y152551D01*
X6503Y152547D01*
X6523Y152543D01*
X6544Y152545D01*
X6604Y152541D01*
X12145Y152541D01*
X12145Y144079D01*
X6604Y144079D01*
X6486Y144064D01*
X6367Y144057D01*
X6329Y144044D01*
X6288Y144039D01*
X6178Y143995D01*
X6065Y143959D01*
X6030Y143937D01*
X5993Y143922D01*
X5897Y143852D01*
X5796Y143789D01*
X5768Y143759D01*
X5735Y143735D01*
X5659Y143644D01*
X5578Y143557D01*
X5558Y143522D01*
X5533Y143490D01*
X5482Y143383D01*
X5424Y143279D01*
X5414Y143239D01*
X5397Y143203D01*
X5375Y143086D01*
X5345Y142971D01*
X5341Y142910D01*
X5337Y142890D01*
X5339Y142870D01*
X5335Y142810D01*
X5335Y140270D01*
X5350Y140152D01*
X5357Y140033D01*
X5370Y139995D01*
X5375Y139955D01*
X5418Y139844D01*
X5455Y139731D01*
X5477Y139696D01*
X5492Y139659D01*
X5561Y139563D01*
X5625Y139462D01*
X5655Y139434D01*
X5678Y139401D01*
X5770Y139326D01*
X5857Y139244D01*
X5892Y139224D01*
X5923Y139199D01*
X6031Y139148D01*
X6135Y139090D01*
X6175Y139080D01*
X6211Y139063D01*
X6328Y139041D01*
X6443Y139011D01*
X6503Y139007D01*
X6523Y139003D01*
X6544Y139005D01*
X6604Y139001D01*
X12145Y139001D01*
X12145Y130539D01*
X6604Y130539D01*
X6486Y130524D01*
X6367Y130517D01*
X6329Y130504D01*
X6288Y130499D01*
X6178Y130456D01*
X6065Y130419D01*
X6030Y130397D01*
X5993Y130382D01*
X5897Y130313D01*
X5796Y130249D01*
X5768Y130219D01*
X5735Y130196D01*
X5659Y130104D01*
X5578Y130017D01*
X5558Y129982D01*
X5533Y129951D01*
X5482Y129843D01*
X5424Y129739D01*
X5414Y129699D01*
X5397Y129663D01*
X5375Y129546D01*
X5345Y129431D01*
X5341Y129371D01*
X5337Y129351D01*
X5339Y129330D01*
X5335Y129270D01*
X5335Y129074D01*
X5350Y128956D01*
X5357Y128837D01*
X5370Y128799D01*
X5375Y128758D01*
X5418Y128648D01*
X5455Y128535D01*
X5477Y128500D01*
X5492Y128463D01*
X5561Y128367D01*
X5625Y128266D01*
X5655Y128238D01*
X5678Y128205D01*
X5770Y128129D01*
X5857Y128048D01*
X5892Y128028D01*
X5923Y128003D01*
X6031Y127952D01*
X6135Y127894D01*
X6175Y127884D01*
X6211Y127867D01*
X6328Y127845D01*
X6443Y127815D01*
X6503Y127811D01*
X6523Y127807D01*
X6544Y127809D01*
X6604Y127805D01*
X25868Y127805D01*
X28249Y125424D01*
X28249Y119167D01*
X28266Y119030D01*
X28279Y118891D01*
X28286Y118872D01*
X28289Y118852D01*
X28340Y118723D01*
X28387Y118592D01*
X28398Y118575D01*
X28406Y118556D01*
X28487Y118444D01*
X28565Y118329D01*
X28581Y118315D01*
X28592Y118299D01*
X28700Y118210D01*
X28804Y118118D01*
X28822Y118109D01*
X28837Y118096D01*
X28963Y118037D01*
X29087Y117974D01*
X29107Y117969D01*
X29125Y117960D01*
X29261Y117934D01*
X29397Y117904D01*
X29418Y117904D01*
X29437Y117901D01*
X29576Y117909D01*
G37*
G36*
X35204Y33544D02*
X35204Y33544D01*
X35323Y33551D01*
X35361Y33564D01*
X35402Y33569D01*
X35512Y33612D01*
X35625Y33649D01*
X35660Y33671D01*
X35697Y33686D01*
X35793Y33755D01*
X35894Y33819D01*
X35922Y33849D01*
X35955Y33872D01*
X36031Y33964D01*
X36112Y34051D01*
X36132Y34086D01*
X36157Y34117D01*
X36208Y34225D01*
X36266Y34329D01*
X36276Y34369D01*
X36293Y34405D01*
X36315Y34522D01*
X36345Y34637D01*
X36349Y34697D01*
X36353Y34717D01*
X36351Y34738D01*
X36355Y34798D01*
X36355Y44904D01*
X37474Y46022D01*
X37534Y46100D01*
X37602Y46172D01*
X37631Y46225D01*
X37668Y46273D01*
X37708Y46364D01*
X37756Y46451D01*
X37771Y46509D01*
X37795Y46565D01*
X37810Y46663D01*
X37835Y46759D01*
X37841Y46859D01*
X37845Y46879D01*
X37843Y46891D01*
X37845Y46919D01*
X37845Y59295D01*
X37843Y59312D01*
X37844Y59355D01*
X37799Y60301D01*
X37801Y60309D01*
X37835Y60442D01*
X37837Y60472D01*
X37840Y60484D01*
X37839Y60499D01*
X38191Y61348D01*
X38196Y61365D01*
X38213Y61405D01*
X38533Y62295D01*
X38538Y62302D01*
X38621Y62412D01*
X38634Y62439D01*
X38641Y62449D01*
X38646Y62463D01*
X39297Y63113D01*
X39307Y63127D01*
X39338Y63157D01*
X40241Y64150D01*
X40281Y64206D01*
X40328Y64257D01*
X40372Y64336D01*
X40424Y64410D01*
X40448Y64475D01*
X40482Y64535D01*
X40504Y64623D01*
X40536Y64708D01*
X40544Y64776D01*
X40561Y64843D01*
X40571Y65004D01*
X40571Y66569D01*
X41742Y69395D01*
X43905Y71558D01*
X46731Y72729D01*
X49098Y72729D01*
X49191Y72741D01*
X49286Y72743D01*
X49348Y72760D01*
X49413Y72769D01*
X49501Y72803D01*
X49592Y72829D01*
X49648Y72862D01*
X49709Y72886D01*
X49785Y72941D01*
X49867Y72989D01*
X49913Y73034D01*
X49966Y73072D01*
X50026Y73145D01*
X50094Y73212D01*
X50127Y73267D01*
X50169Y73317D01*
X50209Y73403D01*
X50258Y73484D01*
X50277Y73546D01*
X50304Y73605D01*
X50322Y73698D01*
X50349Y73789D01*
X50352Y73854D01*
X50364Y73917D01*
X50358Y74012D01*
X50362Y74106D01*
X50349Y74170D01*
X50344Y74235D01*
X50315Y74325D01*
X50296Y74417D01*
X50252Y74520D01*
X50246Y74537D01*
X50241Y74546D01*
X50233Y74566D01*
X49048Y76936D01*
X48979Y77038D01*
X48916Y77145D01*
X48885Y77180D01*
X48882Y77186D01*
X48879Y77188D01*
X48871Y77200D01*
X48855Y77214D01*
X48818Y77256D01*
X48501Y78022D01*
X48490Y78040D01*
X48464Y78104D01*
X48092Y78848D01*
X48071Y78954D01*
X48053Y79076D01*
X48036Y79126D01*
X48033Y79145D01*
X48023Y79164D01*
X48005Y79217D01*
X48005Y80046D01*
X48003Y80067D01*
X48002Y80136D01*
X47943Y80965D01*
X47964Y81072D01*
X47995Y81191D01*
X47998Y81243D01*
X48002Y81262D01*
X48001Y81284D01*
X48005Y81352D01*
X48005Y83520D01*
X47990Y83638D01*
X47983Y83757D01*
X47970Y83795D01*
X47965Y83836D01*
X47922Y83946D01*
X47885Y84059D01*
X47863Y84094D01*
X47848Y84131D01*
X47779Y84227D01*
X47715Y84328D01*
X47685Y84356D01*
X47662Y84389D01*
X47570Y84465D01*
X47483Y84546D01*
X47448Y84566D01*
X47417Y84591D01*
X47309Y84642D01*
X47205Y84700D01*
X47165Y84710D01*
X47129Y84727D01*
X47012Y84749D01*
X46897Y84779D01*
X46837Y84783D01*
X46817Y84787D01*
X46796Y84785D01*
X46736Y84789D01*
X42453Y84789D01*
X42453Y87956D01*
X42438Y88074D01*
X42431Y88193D01*
X42419Y88231D01*
X42414Y88272D01*
X42370Y88382D01*
X42333Y88495D01*
X42311Y88530D01*
X42297Y88567D01*
X42227Y88663D01*
X42163Y88764D01*
X42133Y88792D01*
X42110Y88825D01*
X42018Y88901D01*
X41931Y88982D01*
X41896Y89002D01*
X41865Y89027D01*
X41757Y89078D01*
X41653Y89136D01*
X41614Y89146D01*
X41577Y89163D01*
X41460Y89185D01*
X41345Y89215D01*
X41285Y89219D01*
X41265Y89223D01*
X41264Y89223D01*
X41244Y89221D01*
X41184Y89225D01*
X41066Y89210D01*
X40947Y89203D01*
X40908Y89190D01*
X40868Y89185D01*
X40758Y89142D01*
X40644Y89105D01*
X40610Y89083D01*
X40573Y89068D01*
X40476Y88999D01*
X40376Y88935D01*
X40348Y88905D01*
X40315Y88882D01*
X40239Y88790D01*
X40158Y88703D01*
X40138Y88668D01*
X40112Y88637D01*
X40062Y88529D01*
X40004Y88425D01*
X39994Y88385D01*
X39977Y88349D01*
X39955Y88232D01*
X39925Y88117D01*
X39921Y88057D01*
X39917Y88037D01*
X39918Y88016D01*
X39915Y87956D01*
X39915Y84789D01*
X33921Y84789D01*
X33412Y84926D01*
X32955Y85189D01*
X32583Y85561D01*
X32320Y86018D01*
X32183Y86527D01*
X32183Y87559D01*
X32259Y87614D01*
X32266Y87622D01*
X32274Y87628D01*
X32367Y87744D01*
X32462Y87859D01*
X32466Y87868D01*
X32473Y87876D01*
X32535Y88013D01*
X32598Y88147D01*
X32600Y88157D01*
X32604Y88166D01*
X32630Y88314D01*
X32657Y88459D01*
X32657Y88469D01*
X32659Y88479D01*
X32647Y88628D01*
X32638Y88777D01*
X32635Y88786D01*
X32634Y88796D01*
X32585Y88938D01*
X32540Y89079D01*
X32534Y89088D01*
X32531Y89097D01*
X32449Y89222D01*
X32370Y89348D01*
X32362Y89355D01*
X32357Y89363D01*
X32245Y89479D01*
X32244Y89479D01*
X32188Y89519D01*
X32138Y89566D01*
X32058Y89610D01*
X32020Y89637D01*
X31968Y89708D01*
X31918Y89793D01*
X31851Y89869D01*
X31840Y89885D01*
X31830Y89893D01*
X31812Y89914D01*
X30415Y91310D01*
X30306Y91395D01*
X30199Y91484D01*
X30180Y91493D01*
X30164Y91505D01*
X30036Y91561D01*
X29911Y91620D01*
X29891Y91623D01*
X29872Y91631D01*
X29734Y91653D01*
X29598Y91679D01*
X29578Y91678D01*
X29558Y91681D01*
X29419Y91668D01*
X29281Y91660D01*
X29262Y91653D01*
X29242Y91651D01*
X29110Y91604D01*
X28979Y91562D01*
X28961Y91551D01*
X28942Y91544D01*
X28827Y91466D01*
X28710Y91391D01*
X28696Y91377D01*
X28679Y91365D01*
X28587Y91261D01*
X28492Y91160D01*
X28482Y91142D01*
X28469Y91127D01*
X28405Y91003D01*
X28338Y90881D01*
X28333Y90862D01*
X28324Y90844D01*
X28294Y90708D01*
X28259Y90573D01*
X28257Y90545D01*
X28254Y90533D01*
X28255Y90513D01*
X28249Y90413D01*
X28249Y77656D01*
X25868Y75275D01*
X6604Y75275D01*
X6486Y75260D01*
X6367Y75253D01*
X6329Y75240D01*
X6288Y75235D01*
X6178Y75192D01*
X6065Y75155D01*
X6030Y75133D01*
X5993Y75118D01*
X5897Y75049D01*
X5796Y74985D01*
X5768Y74955D01*
X5735Y74932D01*
X5659Y74840D01*
X5578Y74753D01*
X5558Y74718D01*
X5533Y74687D01*
X5482Y74579D01*
X5424Y74475D01*
X5414Y74435D01*
X5397Y74399D01*
X5375Y74282D01*
X5345Y74167D01*
X5341Y74106D01*
X5337Y74087D01*
X5339Y74066D01*
X5335Y74006D01*
X5335Y73810D01*
X5350Y73692D01*
X5357Y73573D01*
X5370Y73535D01*
X5375Y73494D01*
X5418Y73384D01*
X5455Y73271D01*
X5477Y73236D01*
X5492Y73199D01*
X5561Y73103D01*
X5625Y73002D01*
X5655Y72974D01*
X5678Y72941D01*
X5770Y72865D01*
X5857Y72784D01*
X5892Y72764D01*
X5923Y72739D01*
X6031Y72688D01*
X6135Y72630D01*
X6175Y72620D01*
X6211Y72603D01*
X6328Y72581D01*
X6443Y72551D01*
X6503Y72547D01*
X6523Y72543D01*
X6544Y72545D01*
X6604Y72541D01*
X12145Y72541D01*
X12145Y64079D01*
X6604Y64079D01*
X6486Y64064D01*
X6367Y64057D01*
X6329Y64044D01*
X6288Y64039D01*
X6178Y63995D01*
X6065Y63959D01*
X6030Y63937D01*
X5993Y63922D01*
X5897Y63852D01*
X5796Y63789D01*
X5768Y63759D01*
X5735Y63735D01*
X5659Y63644D01*
X5578Y63557D01*
X5558Y63522D01*
X5533Y63490D01*
X5482Y63383D01*
X5424Y63279D01*
X5414Y63239D01*
X5397Y63203D01*
X5375Y63086D01*
X5345Y62971D01*
X5341Y62910D01*
X5337Y62890D01*
X5339Y62870D01*
X5335Y62810D01*
X5335Y60270D01*
X5350Y60152D01*
X5357Y60033D01*
X5370Y59995D01*
X5375Y59955D01*
X5418Y59844D01*
X5455Y59731D01*
X5477Y59696D01*
X5492Y59659D01*
X5561Y59563D01*
X5625Y59462D01*
X5655Y59434D01*
X5678Y59401D01*
X5770Y59326D01*
X5857Y59244D01*
X5892Y59224D01*
X5923Y59199D01*
X6031Y59148D01*
X6135Y59090D01*
X6175Y59080D01*
X6211Y59063D01*
X6328Y59041D01*
X6443Y59011D01*
X6503Y59007D01*
X6523Y59003D01*
X6544Y59005D01*
X6604Y59001D01*
X12145Y59001D01*
X12145Y50539D01*
X6604Y50539D01*
X6486Y50524D01*
X6367Y50517D01*
X6329Y50504D01*
X6288Y50499D01*
X6178Y50456D01*
X6065Y50419D01*
X6030Y50397D01*
X5993Y50382D01*
X5897Y50313D01*
X5796Y50249D01*
X5768Y50219D01*
X5735Y50196D01*
X5659Y50104D01*
X5578Y50017D01*
X5558Y49982D01*
X5533Y49951D01*
X5482Y49843D01*
X5424Y49739D01*
X5414Y49699D01*
X5397Y49663D01*
X5375Y49546D01*
X5345Y49431D01*
X5341Y49371D01*
X5337Y49351D01*
X5339Y49330D01*
X5335Y49270D01*
X5335Y48554D01*
X5350Y48436D01*
X5357Y48317D01*
X5370Y48279D01*
X5375Y48238D01*
X5418Y48128D01*
X5455Y48015D01*
X5477Y47980D01*
X5492Y47943D01*
X5561Y47847D01*
X5625Y47746D01*
X5655Y47718D01*
X5678Y47685D01*
X5770Y47609D01*
X5857Y47528D01*
X5892Y47508D01*
X5923Y47483D01*
X6031Y47432D01*
X6135Y47374D01*
X6175Y47364D01*
X6211Y47347D01*
X6328Y47325D01*
X6443Y47295D01*
X6503Y47291D01*
X6523Y47287D01*
X6544Y47289D01*
X6604Y47285D01*
X17104Y47285D01*
X19485Y44904D01*
X19485Y34798D01*
X19500Y34680D01*
X19507Y34561D01*
X19520Y34523D01*
X19525Y34482D01*
X19568Y34372D01*
X19605Y34259D01*
X19627Y34224D01*
X19642Y34187D01*
X19711Y34091D01*
X19775Y33990D01*
X19805Y33962D01*
X19828Y33929D01*
X19920Y33853D01*
X20007Y33772D01*
X20042Y33752D01*
X20073Y33727D01*
X20181Y33676D01*
X20285Y33618D01*
X20325Y33608D01*
X20361Y33591D01*
X20478Y33569D01*
X20593Y33539D01*
X20653Y33535D01*
X20673Y33531D01*
X20694Y33533D01*
X20754Y33529D01*
X35086Y33529D01*
X35204Y33544D01*
G37*
G36*
X54068Y5342D02*
X54068Y5342D01*
X54187Y5350D01*
X54225Y5362D01*
X54265Y5367D01*
X54376Y5411D01*
X54489Y5448D01*
X54524Y5469D01*
X54561Y5484D01*
X54658Y5554D01*
X54758Y5618D01*
X54786Y5648D01*
X54818Y5671D01*
X54894Y5763D01*
X54976Y5850D01*
X54996Y5885D01*
X55021Y5916D01*
X55072Y6024D01*
X55130Y6128D01*
X55140Y6167D01*
X55157Y6204D01*
X55179Y6321D01*
X55209Y6436D01*
X55213Y6496D01*
X55217Y6516D01*
X55215Y6537D01*
X55219Y6597D01*
X55219Y7581D01*
X60990Y7581D01*
X61108Y7596D01*
X61227Y7603D01*
X61265Y7615D01*
X61305Y7621D01*
X61416Y7664D01*
X61529Y7701D01*
X61563Y7723D01*
X61601Y7738D01*
X61697Y7807D01*
X61798Y7871D01*
X61826Y7901D01*
X61858Y7924D01*
X61934Y8016D01*
X62016Y8103D01*
X62035Y8138D01*
X62061Y8169D01*
X62112Y8277D01*
X62169Y8381D01*
X62179Y8421D01*
X62197Y8457D01*
X62219Y8574D01*
X62249Y8689D01*
X62253Y8749D01*
X62256Y8769D01*
X62255Y8790D01*
X62259Y8850D01*
X62259Y11310D01*
X62244Y11428D01*
X62237Y11547D01*
X62224Y11585D01*
X62219Y11626D01*
X62175Y11736D01*
X62139Y11849D01*
X62117Y11884D01*
X62102Y11921D01*
X62032Y12017D01*
X61969Y12118D01*
X61939Y12146D01*
X61915Y12179D01*
X61824Y12255D01*
X61737Y12336D01*
X61702Y12356D01*
X61670Y12381D01*
X61563Y12432D01*
X61458Y12490D01*
X61419Y12500D01*
X61383Y12517D01*
X61266Y12539D01*
X61150Y12569D01*
X61090Y12573D01*
X61070Y12577D01*
X61050Y12575D01*
X60990Y12579D01*
X55219Y12579D01*
X55219Y15843D01*
X55356Y16352D01*
X55360Y16361D01*
X55404Y16464D01*
X55455Y16564D01*
X55465Y16610D01*
X55484Y16654D01*
X55500Y16765D01*
X55525Y16875D01*
X55523Y16922D01*
X55530Y16968D01*
X55519Y17080D01*
X55515Y17193D01*
X55502Y17238D01*
X55497Y17285D01*
X55458Y17390D01*
X55427Y17498D01*
X55403Y17539D01*
X55386Y17583D01*
X55322Y17675D01*
X55265Y17772D01*
X55217Y17826D01*
X55205Y17844D01*
X55191Y17856D01*
X55159Y17893D01*
X52816Y20236D01*
X52792Y20254D01*
X52773Y20276D01*
X52667Y20351D01*
X52564Y20431D01*
X52537Y20443D01*
X52513Y20460D01*
X52392Y20506D01*
X52273Y20557D01*
X52243Y20562D01*
X52216Y20572D01*
X52087Y20587D01*
X51958Y20607D01*
X51929Y20604D01*
X51900Y20608D01*
X51771Y20589D01*
X51642Y20577D01*
X51614Y20567D01*
X51585Y20563D01*
X51432Y20511D01*
X50805Y20251D01*
X47747Y20251D01*
X44921Y21422D01*
X44363Y21980D01*
X44285Y22040D01*
X44213Y22108D01*
X44160Y22137D01*
X44112Y22174D01*
X44021Y22214D01*
X43934Y22262D01*
X43876Y22277D01*
X43820Y22301D01*
X43722Y22316D01*
X43626Y22341D01*
X43526Y22347D01*
X43506Y22351D01*
X43493Y22349D01*
X43465Y22351D01*
X14128Y22351D01*
X12074Y23202D01*
X10324Y24953D01*
X7501Y27775D01*
X7423Y27836D01*
X7352Y27903D01*
X7317Y27922D01*
X7285Y27949D01*
X7266Y27957D01*
X7250Y27970D01*
X7157Y28010D01*
X7073Y28056D01*
X7035Y28066D01*
X6997Y28084D01*
X6977Y28088D01*
X6958Y28096D01*
X6856Y28112D01*
X6765Y28136D01*
X6708Y28140D01*
X6684Y28144D01*
X6664Y28143D01*
X6644Y28146D01*
X6629Y28145D01*
X6604Y28146D01*
X6494Y28132D01*
X6367Y28124D01*
X6348Y28118D01*
X6328Y28116D01*
X6306Y28109D01*
X6288Y28106D01*
X6185Y28065D01*
X6065Y28026D01*
X6047Y28015D01*
X6028Y28009D01*
X6010Y27996D01*
X5993Y27989D01*
X5902Y27924D01*
X5796Y27856D01*
X5782Y27841D01*
X5765Y27830D01*
X5751Y27813D01*
X5735Y27802D01*
X5663Y27715D01*
X5578Y27625D01*
X5568Y27607D01*
X5555Y27592D01*
X5545Y27572D01*
X5533Y27557D01*
X5484Y27453D01*
X5424Y27346D01*
X5419Y27326D01*
X5410Y27308D01*
X5405Y27287D01*
X5397Y27270D01*
X5375Y27155D01*
X5345Y27038D01*
X5343Y27010D01*
X5340Y26998D01*
X5341Y26978D01*
X5341Y26977D01*
X5337Y26957D01*
X5339Y26937D01*
X5335Y26877D01*
X5335Y6603D01*
X5350Y6485D01*
X5357Y6366D01*
X5369Y6328D01*
X5375Y6288D01*
X5418Y6177D01*
X5455Y6064D01*
X5477Y6030D01*
X5492Y5992D01*
X5562Y5896D01*
X5625Y5795D01*
X5655Y5767D01*
X5678Y5735D01*
X5770Y5659D01*
X5857Y5577D01*
X5892Y5558D01*
X5923Y5532D01*
X6031Y5481D01*
X6135Y5424D01*
X6175Y5413D01*
X6211Y5396D01*
X6328Y5374D01*
X6443Y5344D01*
X6504Y5340D01*
X6523Y5336D01*
X6544Y5338D01*
X6604Y5334D01*
X53950Y5328D01*
X54068Y5342D01*
G37*
G36*
X248046Y30916D02*
X248046Y30916D01*
X248185Y30929D01*
X248204Y30936D01*
X248224Y30939D01*
X248353Y30990D01*
X248484Y31037D01*
X248501Y31048D01*
X248520Y31056D01*
X248632Y31137D01*
X248747Y31215D01*
X248761Y31231D01*
X248777Y31242D01*
X248866Y31350D01*
X248958Y31454D01*
X248967Y31472D01*
X248980Y31487D01*
X249039Y31613D01*
X249102Y31737D01*
X249107Y31757D01*
X249116Y31775D01*
X249142Y31911D01*
X249172Y32047D01*
X249172Y32068D01*
X249175Y32087D01*
X249167Y32226D01*
X249162Y32365D01*
X249157Y32385D01*
X249156Y32405D01*
X249113Y32537D01*
X249074Y32671D01*
X249064Y32688D01*
X249058Y32707D01*
X248983Y32825D01*
X248913Y32945D01*
X248894Y32966D01*
X248887Y32976D01*
X248873Y32990D01*
X248806Y33065D01*
X246573Y35299D01*
X246484Y35368D01*
X246401Y35443D01*
X246359Y35465D01*
X246322Y35494D01*
X246218Y35538D01*
X246119Y35591D01*
X246073Y35601D01*
X246030Y35620D01*
X245918Y35638D01*
X245809Y35663D01*
X245762Y35663D01*
X245716Y35670D01*
X245604Y35659D01*
X245491Y35657D01*
X245446Y35645D01*
X245399Y35640D01*
X245293Y35602D01*
X245185Y35572D01*
X245120Y35540D01*
X245100Y35533D01*
X245084Y35522D01*
X245041Y35500D01*
X245032Y35496D01*
X244523Y35359D01*
X241259Y35359D01*
X241259Y41130D01*
X241244Y41248D01*
X241237Y41367D01*
X241224Y41405D01*
X241219Y41445D01*
X241176Y41556D01*
X241139Y41669D01*
X241117Y41703D01*
X241102Y41741D01*
X241033Y41837D01*
X240969Y41938D01*
X240939Y41966D01*
X240916Y41998D01*
X240824Y42074D01*
X240737Y42156D01*
X240702Y42175D01*
X240671Y42201D01*
X240563Y42252D01*
X240459Y42309D01*
X240419Y42319D01*
X240383Y42337D01*
X240276Y42357D01*
X240306Y42361D01*
X240416Y42405D01*
X240529Y42441D01*
X240564Y42463D01*
X240601Y42478D01*
X240697Y42548D01*
X240798Y42611D01*
X240826Y42641D01*
X240859Y42665D01*
X240935Y42756D01*
X241016Y42843D01*
X241036Y42878D01*
X241061Y42910D01*
X241112Y43017D01*
X241170Y43122D01*
X241180Y43161D01*
X241197Y43197D01*
X241219Y43314D01*
X241249Y43430D01*
X241253Y43490D01*
X241257Y43510D01*
X241255Y43530D01*
X241259Y43590D01*
X241259Y49361D01*
X243831Y49361D01*
X243968Y49378D01*
X244107Y49391D01*
X244126Y49398D01*
X244146Y49401D01*
X244275Y49452D01*
X244406Y49499D01*
X244423Y49510D01*
X244442Y49518D01*
X244554Y49599D01*
X244669Y49677D01*
X244683Y49693D01*
X244699Y49704D01*
X244788Y49812D01*
X244880Y49916D01*
X244889Y49934D01*
X244902Y49949D01*
X244961Y50075D01*
X245024Y50199D01*
X245029Y50219D01*
X245038Y50237D01*
X245064Y50373D01*
X245094Y50509D01*
X245094Y50530D01*
X245097Y50549D01*
X245089Y50688D01*
X245084Y50827D01*
X245079Y50847D01*
X245078Y50867D01*
X245035Y50999D01*
X244996Y51133D01*
X244986Y51150D01*
X244980Y51169D01*
X244905Y51287D01*
X244835Y51407D01*
X244816Y51428D01*
X244809Y51438D01*
X244795Y51452D01*
X244728Y51527D01*
X244512Y51744D01*
X244434Y51804D01*
X244362Y51872D01*
X244309Y51901D01*
X244261Y51938D01*
X244170Y51978D01*
X244083Y52026D01*
X244025Y52041D01*
X243969Y52065D01*
X243871Y52080D01*
X243775Y52105D01*
X243675Y52111D01*
X243655Y52115D01*
X243643Y52113D01*
X243615Y52115D01*
X238996Y52115D01*
X236615Y54496D01*
X236615Y77475D01*
X236612Y77504D01*
X236614Y77533D01*
X236592Y77661D01*
X236575Y77790D01*
X236565Y77818D01*
X236560Y77847D01*
X236506Y77965D01*
X236458Y78086D01*
X236441Y78110D01*
X236429Y78137D01*
X236348Y78238D01*
X236272Y78343D01*
X236249Y78362D01*
X236230Y78385D01*
X236127Y78463D01*
X236027Y78546D01*
X236000Y78559D01*
X235976Y78576D01*
X235832Y78647D01*
X234938Y79017D01*
X233259Y80697D01*
X230358Y83598D01*
X230263Y83671D01*
X230174Y83750D01*
X230138Y83768D01*
X230106Y83793D01*
X229997Y83840D01*
X229891Y83894D01*
X229852Y83903D01*
X229814Y83919D01*
X229697Y83938D01*
X229581Y83964D01*
X229540Y83963D01*
X229500Y83969D01*
X229382Y83958D01*
X229263Y83954D01*
X229224Y83943D01*
X229184Y83939D01*
X229071Y83899D01*
X228957Y83866D01*
X228923Y83845D01*
X228884Y83832D01*
X228786Y83765D01*
X228683Y83704D01*
X228638Y83665D01*
X228621Y83653D01*
X228608Y83638D01*
X228563Y83598D01*
X225116Y80152D01*
X225056Y80074D01*
X224988Y80002D01*
X224959Y79949D01*
X224922Y79901D01*
X224882Y79810D01*
X224834Y79723D01*
X224819Y79665D01*
X224795Y79609D01*
X224780Y79511D01*
X224755Y79415D01*
X224749Y79315D01*
X224745Y79295D01*
X224747Y79283D01*
X224745Y79255D01*
X224745Y54496D01*
X222364Y52115D01*
X217605Y52115D01*
X217507Y52103D01*
X217408Y52100D01*
X217350Y52083D01*
X217290Y52075D01*
X217198Y52039D01*
X217103Y52011D01*
X217051Y51981D01*
X216994Y51958D01*
X216914Y51900D01*
X216829Y51850D01*
X216753Y51784D01*
X216737Y51772D01*
X216729Y51762D01*
X216708Y51744D01*
X216109Y51145D01*
X216020Y51029D01*
X215928Y50917D01*
X215923Y50904D01*
X215914Y50894D01*
X215856Y50759D01*
X215796Y50628D01*
X215793Y50614D01*
X215788Y50602D01*
X215765Y50457D01*
X215739Y50315D01*
X215740Y50301D01*
X215738Y50288D01*
X215752Y50142D01*
X215762Y49997D01*
X215767Y49985D01*
X215768Y49971D01*
X215818Y49833D01*
X215864Y49696D01*
X215871Y49685D01*
X215876Y49672D01*
X215958Y49551D01*
X216037Y49429D01*
X216047Y49420D01*
X216054Y49409D01*
X216164Y49312D01*
X216271Y49214D01*
X216283Y49207D01*
X216293Y49198D01*
X216423Y49132D01*
X216551Y49063D01*
X216564Y49060D01*
X216576Y49054D01*
X216718Y49022D01*
X216860Y48987D01*
X216873Y48987D01*
X216886Y48984D01*
X217032Y48988D01*
X217178Y48990D01*
X217196Y48993D01*
X217204Y48994D01*
X217221Y48998D01*
X217335Y49021D01*
X217557Y49081D01*
X220821Y49081D01*
X220821Y43310D01*
X220836Y43192D01*
X220843Y43073D01*
X220855Y43035D01*
X220861Y42995D01*
X220904Y42884D01*
X220941Y42771D01*
X220963Y42737D01*
X220978Y42699D01*
X221047Y42603D01*
X221111Y42502D01*
X221141Y42474D01*
X221164Y42442D01*
X221256Y42366D01*
X221343Y42284D01*
X221378Y42265D01*
X221409Y42239D01*
X221517Y42188D01*
X221621Y42131D01*
X221661Y42121D01*
X221697Y42103D01*
X221814Y42081D01*
X221929Y42051D01*
X221989Y42047D01*
X222009Y42044D01*
X222030Y42045D01*
X222090Y42041D01*
X223281Y42041D01*
X223281Y40850D01*
X223296Y40732D01*
X223303Y40613D01*
X223316Y40575D01*
X223321Y40534D01*
X223365Y40424D01*
X223401Y40311D01*
X223423Y40276D01*
X223438Y40239D01*
X223508Y40142D01*
X223571Y40042D01*
X223601Y40014D01*
X223625Y39981D01*
X223716Y39905D01*
X223803Y39824D01*
X223838Y39804D01*
X223870Y39779D01*
X223977Y39728D01*
X224082Y39670D01*
X224121Y39660D01*
X224157Y39643D01*
X224274Y39621D01*
X224390Y39591D01*
X224450Y39587D01*
X224470Y39583D01*
X224490Y39585D01*
X224550Y39581D01*
X229990Y39581D01*
X230108Y39596D01*
X230227Y39603D01*
X230265Y39615D01*
X230306Y39621D01*
X230416Y39664D01*
X230529Y39701D01*
X230564Y39723D01*
X230601Y39738D01*
X230697Y39807D01*
X230782Y39861D01*
X236261Y39861D01*
X236261Y35359D01*
X232997Y35359D01*
X232488Y35496D01*
X231981Y35788D01*
X231894Y35865D01*
X231858Y35883D01*
X231826Y35908D01*
X231717Y35955D01*
X231611Y36009D01*
X231572Y36018D01*
X231535Y36034D01*
X231417Y36053D01*
X231301Y36079D01*
X231260Y36078D01*
X231221Y36084D01*
X231102Y36073D01*
X230983Y36069D01*
X230944Y36058D01*
X230904Y36054D01*
X230792Y36014D01*
X230677Y35981D01*
X230643Y35961D01*
X230605Y35947D01*
X230506Y35880D01*
X230403Y35819D01*
X230358Y35780D01*
X230341Y35768D01*
X230328Y35753D01*
X230283Y35713D01*
X230049Y35479D01*
X229592Y35216D01*
X229083Y35079D01*
X226053Y35079D01*
X225916Y35062D01*
X225777Y35049D01*
X225758Y35042D01*
X225738Y35039D01*
X225609Y34988D01*
X225478Y34941D01*
X225461Y34930D01*
X225442Y34922D01*
X225330Y34841D01*
X225215Y34763D01*
X225201Y34747D01*
X225185Y34736D01*
X225096Y34628D01*
X225004Y34524D01*
X224995Y34506D01*
X224982Y34491D01*
X224923Y34365D01*
X224860Y34241D01*
X224855Y34221D01*
X224846Y34203D01*
X224820Y34067D01*
X224790Y33931D01*
X224791Y33910D01*
X224787Y33891D01*
X224795Y33752D01*
X224800Y33613D01*
X224805Y33593D01*
X224806Y33573D01*
X224849Y33441D01*
X224888Y33307D01*
X224898Y33290D01*
X224904Y33271D01*
X224979Y33153D01*
X225049Y33033D01*
X225068Y33012D01*
X225075Y33002D01*
X225090Y32988D01*
X225156Y32913D01*
X226798Y31270D01*
X226876Y31210D01*
X226948Y31142D01*
X227001Y31113D01*
X227049Y31076D01*
X227140Y31036D01*
X227227Y30988D01*
X227285Y30973D01*
X227341Y30949D01*
X227439Y30934D01*
X227535Y30909D01*
X227635Y30903D01*
X227655Y30899D01*
X227667Y30901D01*
X227695Y30899D01*
X247909Y30899D01*
X248046Y30916D01*
G37*
G36*
X77387Y34796D02*
X77387Y34796D01*
X77397Y34795D01*
X77537Y34815D01*
X77647Y34815D01*
X77765Y34830D01*
X77884Y34837D01*
X77922Y34850D01*
X77963Y34855D01*
X78073Y34898D01*
X78186Y34935D01*
X78221Y34957D01*
X78258Y34972D01*
X78354Y35041D01*
X78455Y35105D01*
X78483Y35135D01*
X78516Y35158D01*
X78592Y35250D01*
X78673Y35337D01*
X78693Y35372D01*
X78718Y35403D01*
X78769Y35511D01*
X78827Y35615D01*
X78837Y35655D01*
X78854Y35691D01*
X78876Y35808D01*
X78906Y35923D01*
X78910Y35983D01*
X78914Y36003D01*
X78912Y36024D01*
X78916Y36084D01*
X78916Y44914D01*
X81297Y47295D01*
X91872Y47295D01*
X91989Y47309D01*
X92106Y47316D01*
X92146Y47329D01*
X92188Y47335D01*
X92297Y47378D01*
X92408Y47413D01*
X92444Y47436D01*
X92484Y47452D01*
X92578Y47520D01*
X92678Y47583D01*
X92707Y47614D01*
X92741Y47638D01*
X92816Y47729D01*
X92896Y47814D01*
X92917Y47851D01*
X92944Y47883D01*
X92994Y47989D01*
X93051Y48092D01*
X93061Y48133D01*
X93079Y48171D01*
X93101Y48286D01*
X93131Y48400D01*
X93135Y48463D01*
X93139Y48483D01*
X93138Y48503D01*
X93142Y48560D01*
X93150Y51392D01*
X93135Y51512D01*
X93128Y51633D01*
X93116Y51670D01*
X93111Y51708D01*
X93067Y51821D01*
X93030Y51935D01*
X93009Y51968D01*
X92995Y52004D01*
X92924Y52102D01*
X92859Y52204D01*
X92831Y52231D01*
X92809Y52262D01*
X92716Y52339D01*
X92628Y52422D01*
X92594Y52441D01*
X92564Y52465D01*
X92455Y52517D01*
X92349Y52576D01*
X92312Y52585D01*
X92277Y52602D01*
X92158Y52625D01*
X92041Y52655D01*
X91984Y52659D01*
X91965Y52662D01*
X91944Y52661D01*
X91881Y52665D01*
X81297Y52665D01*
X78916Y55046D01*
X78916Y61937D01*
X78913Y61966D01*
X78915Y61996D01*
X78893Y62123D01*
X78876Y62252D01*
X78865Y62280D01*
X78860Y62309D01*
X78807Y62427D01*
X78759Y62548D01*
X78742Y62572D01*
X78730Y62599D01*
X78649Y62701D01*
X78573Y62805D01*
X78550Y62824D01*
X78531Y62847D01*
X78427Y62925D01*
X78328Y63008D01*
X78301Y63021D01*
X78277Y63039D01*
X75932Y65384D01*
X75925Y65405D01*
X75855Y65515D01*
X75791Y65628D01*
X75770Y65649D01*
X75754Y65674D01*
X75660Y65763D01*
X75570Y65856D01*
X75544Y65872D01*
X75523Y65892D01*
X75409Y65955D01*
X75298Y66023D01*
X75270Y66031D01*
X75244Y66046D01*
X75119Y66078D01*
X74994Y66116D01*
X74965Y66118D01*
X74936Y66125D01*
X74776Y66135D01*
X73886Y66135D01*
X73748Y66118D01*
X73610Y66105D01*
X73591Y66098D01*
X73571Y66095D01*
X73441Y66044D01*
X73311Y65997D01*
X73294Y65986D01*
X73275Y65978D01*
X73163Y65897D01*
X73048Y65819D01*
X73034Y65803D01*
X73018Y65792D01*
X72929Y65684D01*
X72837Y65580D01*
X72828Y65562D01*
X72815Y65547D01*
X72756Y65421D01*
X72692Y65297D01*
X72688Y65277D01*
X72679Y65259D01*
X72653Y65123D01*
X72623Y64987D01*
X72623Y64966D01*
X72620Y64947D01*
X72628Y64808D01*
X72633Y64669D01*
X72638Y64649D01*
X72639Y64629D01*
X72682Y64497D01*
X72721Y64363D01*
X72731Y64346D01*
X72737Y64327D01*
X72812Y64209D01*
X72882Y64089D01*
X72901Y64068D01*
X72908Y64058D01*
X72923Y64044D01*
X72989Y63968D01*
X73044Y63914D01*
X73044Y55046D01*
X71351Y53354D01*
X71291Y53276D01*
X71223Y53204D01*
X71194Y53151D01*
X71157Y53103D01*
X71117Y53012D01*
X71069Y52925D01*
X71054Y52867D01*
X71030Y52811D01*
X71015Y52713D01*
X70990Y52617D01*
X70984Y52517D01*
X70980Y52497D01*
X70982Y52485D01*
X70980Y52457D01*
X70980Y51354D01*
X63084Y51354D01*
X63014Y51345D01*
X62974Y51348D01*
X62954Y51352D01*
X62934Y51350D01*
X62874Y51354D01*
X54978Y51354D01*
X54978Y52457D01*
X54966Y52555D01*
X54963Y52654D01*
X54946Y52712D01*
X54938Y52772D01*
X54902Y52864D01*
X54874Y52959D01*
X54844Y53011D01*
X54821Y53068D01*
X54763Y53148D01*
X54713Y53233D01*
X54647Y53309D01*
X54635Y53325D01*
X54625Y53333D01*
X54607Y53354D01*
X54127Y53834D01*
X54049Y53894D01*
X53977Y53962D01*
X53924Y53991D01*
X53876Y54028D01*
X53785Y54068D01*
X53698Y54116D01*
X53640Y54131D01*
X53584Y54155D01*
X53486Y54170D01*
X53390Y54195D01*
X53290Y54201D01*
X53270Y54205D01*
X53258Y54203D01*
X53230Y54205D01*
X52699Y54205D01*
X50738Y55017D01*
X50682Y55074D01*
X50572Y55159D01*
X50465Y55248D01*
X50446Y55257D01*
X50430Y55269D01*
X50303Y55324D01*
X50177Y55384D01*
X50157Y55387D01*
X50138Y55395D01*
X50001Y55417D01*
X49864Y55443D01*
X49844Y55442D01*
X49824Y55445D01*
X49686Y55432D01*
X49547Y55424D01*
X49528Y55417D01*
X49508Y55415D01*
X49377Y55368D01*
X49245Y55326D01*
X49227Y55315D01*
X49208Y55308D01*
X49094Y55230D01*
X48976Y55155D01*
X48962Y55141D01*
X48945Y55129D01*
X48854Y55025D01*
X48758Y54924D01*
X48748Y54906D01*
X48735Y54891D01*
X48672Y54767D01*
X48604Y54645D01*
X48599Y54626D01*
X48590Y54608D01*
X48560Y54472D01*
X48525Y54337D01*
X48523Y54309D01*
X48520Y54297D01*
X48521Y54277D01*
X48515Y54177D01*
X48515Y48554D01*
X48530Y48436D01*
X48537Y48317D01*
X48550Y48279D01*
X48555Y48238D01*
X48598Y48128D01*
X48635Y48015D01*
X48657Y47980D01*
X48672Y47943D01*
X48741Y47847D01*
X48805Y47746D01*
X48835Y47718D01*
X48858Y47685D01*
X48950Y47609D01*
X49037Y47528D01*
X49072Y47508D01*
X49103Y47483D01*
X49211Y47432D01*
X49315Y47374D01*
X49355Y47364D01*
X49391Y47347D01*
X49508Y47325D01*
X49623Y47295D01*
X49683Y47291D01*
X49703Y47287D01*
X49724Y47289D01*
X49784Y47285D01*
X53709Y47285D01*
X53827Y47300D01*
X53946Y47307D01*
X53984Y47320D01*
X54025Y47325D01*
X54135Y47368D01*
X54248Y47405D01*
X54283Y47427D01*
X54320Y47442D01*
X54416Y47511D01*
X54517Y47575D01*
X54545Y47605D01*
X54578Y47628D01*
X54654Y47720D01*
X54735Y47807D01*
X54755Y47842D01*
X54780Y47873D01*
X54831Y47981D01*
X54889Y48085D01*
X54899Y48125D01*
X54916Y48161D01*
X54938Y48278D01*
X54968Y48393D01*
X54972Y48453D01*
X54976Y48473D01*
X54974Y48494D01*
X54978Y48554D01*
X54978Y48606D01*
X62874Y48606D01*
X62944Y48615D01*
X62984Y48612D01*
X63004Y48608D01*
X63024Y48610D01*
X63084Y48606D01*
X70980Y48606D01*
X70980Y47503D01*
X70992Y47405D01*
X70995Y47306D01*
X71012Y47248D01*
X71020Y47188D01*
X71056Y47096D01*
X71084Y47001D01*
X71114Y46949D01*
X71137Y46892D01*
X71195Y46812D01*
X71245Y46727D01*
X71311Y46651D01*
X71323Y46635D01*
X71333Y46627D01*
X71351Y46606D01*
X73044Y44914D01*
X73044Y36064D01*
X73059Y35946D01*
X73066Y35827D01*
X73079Y35789D01*
X73084Y35748D01*
X73127Y35638D01*
X73164Y35525D01*
X73186Y35490D01*
X73201Y35453D01*
X73270Y35357D01*
X73334Y35256D01*
X73364Y35228D01*
X73387Y35195D01*
X73479Y35119D01*
X73566Y35038D01*
X73601Y35018D01*
X73632Y34993D01*
X73740Y34942D01*
X73844Y34884D01*
X73884Y34874D01*
X73920Y34857D01*
X74037Y34835D01*
X74152Y34805D01*
X74212Y34801D01*
X74232Y34797D01*
X74253Y34799D01*
X74313Y34795D01*
X77378Y34795D01*
X77387Y34796D01*
G37*
G36*
X284440Y176576D02*
X284440Y176576D01*
X284559Y176583D01*
X284597Y176596D01*
X284638Y176601D01*
X284748Y176645D01*
X284861Y176681D01*
X284896Y176703D01*
X284933Y176718D01*
X285029Y176788D01*
X285130Y176851D01*
X285158Y176881D01*
X285191Y176905D01*
X285267Y176996D01*
X285348Y177083D01*
X285368Y177118D01*
X285393Y177150D01*
X285444Y177257D01*
X285502Y177362D01*
X285512Y177401D01*
X285529Y177437D01*
X285551Y177554D01*
X285581Y177670D01*
X285585Y177730D01*
X285589Y177750D01*
X285587Y177770D01*
X285591Y177830D01*
X285591Y186010D01*
X285726Y185988D01*
X287090Y185545D01*
X288368Y184894D01*
X289528Y184051D01*
X290543Y183036D01*
X291386Y181876D01*
X292037Y180598D01*
X292185Y180143D01*
X292236Y180035D01*
X292280Y179924D01*
X292303Y179892D01*
X292320Y179855D01*
X292396Y179763D01*
X292466Y179667D01*
X292497Y179641D01*
X292523Y179610D01*
X292620Y179540D01*
X292711Y179464D01*
X292748Y179447D01*
X292780Y179423D01*
X292891Y179379D01*
X292999Y179328D01*
X293039Y179321D01*
X293076Y179306D01*
X293194Y179291D01*
X293311Y179268D01*
X293352Y179271D01*
X293391Y179266D01*
X293510Y179281D01*
X293629Y179288D01*
X293667Y179301D01*
X293707Y179306D01*
X293818Y179349D01*
X293931Y179386D01*
X293965Y179408D01*
X294003Y179422D01*
X294099Y179492D01*
X294200Y179556D01*
X294228Y179586D01*
X294260Y179609D01*
X294336Y179701D01*
X294418Y179788D01*
X294437Y179823D01*
X294463Y179854D01*
X294514Y179962D01*
X294572Y180066D01*
X294582Y180105D01*
X294599Y180142D01*
X294621Y180259D01*
X294651Y180374D01*
X294655Y180434D01*
X294659Y180454D01*
X294658Y180474D01*
X294661Y180535D01*
X294664Y193396D01*
X294649Y193514D01*
X294642Y193633D01*
X294629Y193671D01*
X294624Y193711D01*
X294580Y193822D01*
X294544Y193935D01*
X294522Y193970D01*
X294507Y194007D01*
X294437Y194103D01*
X294373Y194204D01*
X294344Y194232D01*
X294320Y194264D01*
X294229Y194340D01*
X294142Y194422D01*
X294107Y194442D01*
X294075Y194467D01*
X293968Y194518D01*
X293863Y194576D01*
X293824Y194586D01*
X293788Y194603D01*
X293671Y194625D01*
X293555Y194655D01*
X293496Y194659D01*
X293475Y194663D01*
X293455Y194661D01*
X293395Y194665D01*
X270603Y194665D01*
X270466Y194648D01*
X270327Y194635D01*
X270308Y194628D01*
X270288Y194625D01*
X270159Y194574D01*
X270028Y194527D01*
X270011Y194516D01*
X269992Y194508D01*
X269880Y194427D01*
X269765Y194349D01*
X269751Y194333D01*
X269735Y194322D01*
X269646Y194214D01*
X269554Y194110D01*
X269545Y194092D01*
X269532Y194077D01*
X269473Y193951D01*
X269410Y193827D01*
X269405Y193807D01*
X269396Y193789D01*
X269370Y193652D01*
X269340Y193517D01*
X269341Y193496D01*
X269337Y193477D01*
X269345Y193338D01*
X269350Y193199D01*
X269355Y193179D01*
X269356Y193159D01*
X269399Y193027D01*
X269438Y192893D01*
X269448Y192876D01*
X269454Y192857D01*
X269529Y192739D01*
X269600Y192619D01*
X269618Y192598D01*
X269625Y192588D01*
X269640Y192574D01*
X269706Y192499D01*
X271401Y190803D01*
X275795Y186410D01*
X276360Y185045D01*
X276374Y185020D01*
X276383Y184994D01*
X276425Y184927D01*
X276461Y184851D01*
X276493Y184812D01*
X276518Y184768D01*
X276540Y184746D01*
X276553Y184725D01*
X276606Y184675D01*
X276663Y184606D01*
X276704Y184576D01*
X276739Y184540D01*
X276769Y184522D01*
X276784Y184507D01*
X276844Y184474D01*
X276920Y184419D01*
X276967Y184400D01*
X277010Y184374D01*
X277047Y184363D01*
X277063Y184354D01*
X277124Y184338D01*
X277216Y184301D01*
X277266Y184295D01*
X277314Y184280D01*
X277355Y184278D01*
X277371Y184274D01*
X277489Y184267D01*
X277531Y184261D01*
X277581Y184267D01*
X277632Y184265D01*
X277739Y184287D01*
X277847Y184301D01*
X277894Y184319D01*
X277943Y184329D01*
X278041Y184377D01*
X278143Y184417D01*
X278209Y184459D01*
X278229Y184469D01*
X278242Y184480D01*
X278279Y184504D01*
X278816Y184894D01*
X280094Y185545D01*
X281458Y185988D01*
X281593Y186010D01*
X281593Y177830D01*
X281608Y177712D01*
X281615Y177593D01*
X281627Y177555D01*
X281633Y177515D01*
X281676Y177404D01*
X281713Y177291D01*
X281735Y177257D01*
X281750Y177219D01*
X281819Y177123D01*
X281883Y177022D01*
X281913Y176994D01*
X281936Y176962D01*
X282028Y176886D01*
X282115Y176804D01*
X282150Y176785D01*
X282181Y176759D01*
X282289Y176708D01*
X282393Y176651D01*
X282433Y176641D01*
X282469Y176623D01*
X282586Y176601D01*
X282701Y176571D01*
X282761Y176567D01*
X282781Y176564D01*
X282802Y176565D01*
X282862Y176561D01*
X284322Y176561D01*
X284440Y176576D01*
G37*
%LPC*%
G36*
X17223Y130539D02*
X17223Y130539D01*
X17223Y140270D01*
X17208Y140388D01*
X17201Y140507D01*
X17188Y140545D01*
X17183Y140585D01*
X17139Y140696D01*
X17103Y140809D01*
X17081Y140844D01*
X17066Y140881D01*
X16996Y140977D01*
X16933Y141078D01*
X16903Y141106D01*
X16879Y141138D01*
X16788Y141214D01*
X16701Y141296D01*
X16666Y141315D01*
X16634Y141341D01*
X16527Y141392D01*
X16423Y141449D01*
X16383Y141460D01*
X16347Y141477D01*
X16230Y141499D01*
X16115Y141529D01*
X16054Y141533D01*
X16034Y141537D01*
X16014Y141535D01*
X15954Y141539D01*
X14683Y141539D01*
X14683Y141541D01*
X15954Y141541D01*
X16072Y141556D01*
X16191Y141563D01*
X16229Y141576D01*
X16269Y141581D01*
X16380Y141625D01*
X16493Y141661D01*
X16528Y141683D01*
X16565Y141698D01*
X16661Y141768D01*
X16762Y141831D01*
X16790Y141861D01*
X16822Y141885D01*
X16898Y141976D01*
X16980Y142063D01*
X16999Y142098D01*
X17025Y142130D01*
X17076Y142237D01*
X17133Y142341D01*
X17144Y142381D01*
X17161Y142417D01*
X17183Y142534D01*
X17213Y142649D01*
X17217Y142710D01*
X17221Y142730D01*
X17219Y142750D01*
X17223Y142810D01*
X17223Y152541D01*
X24447Y152541D01*
X24956Y152404D01*
X25469Y152108D01*
X25567Y152067D01*
X25660Y152018D01*
X25713Y152006D01*
X25762Y151985D01*
X25867Y151969D01*
X25970Y151945D01*
X26024Y151946D01*
X26077Y151938D01*
X26182Y151949D01*
X26288Y151952D01*
X26340Y151966D01*
X26393Y151972D01*
X26492Y152008D01*
X26594Y152037D01*
X26671Y152075D01*
X26691Y152082D01*
X26704Y152091D01*
X26738Y152108D01*
X27621Y152618D01*
X28512Y152857D01*
X29973Y152857D01*
X29973Y147086D01*
X29988Y146968D01*
X29996Y146849D01*
X30008Y146811D01*
X30013Y146770D01*
X30057Y146660D01*
X30094Y146547D01*
X30115Y146512D01*
X30130Y146475D01*
X30200Y146379D01*
X30264Y146278D01*
X30293Y146250D01*
X30317Y146217D01*
X30409Y146141D01*
X30495Y146060D01*
X30531Y146040D01*
X30562Y146015D01*
X30670Y145964D01*
X30774Y145906D01*
X30813Y145896D01*
X30850Y145879D01*
X30956Y145859D01*
X30927Y145855D01*
X30816Y145811D01*
X30703Y145774D01*
X30669Y145753D01*
X30631Y145738D01*
X30535Y145668D01*
X30434Y145604D01*
X30407Y145575D01*
X30374Y145551D01*
X30298Y145459D01*
X30217Y145373D01*
X30197Y145337D01*
X30171Y145306D01*
X30120Y145198D01*
X30063Y145094D01*
X30053Y145055D01*
X30036Y145018D01*
X30013Y144902D01*
X29984Y144786D01*
X29980Y144726D01*
X29976Y144706D01*
X29977Y144686D01*
X29973Y144626D01*
X29973Y138855D01*
X28512Y138855D01*
X27782Y139050D01*
X27658Y139068D01*
X27534Y139091D01*
X27501Y139089D01*
X27467Y139094D01*
X27342Y139079D01*
X27217Y139071D01*
X27185Y139061D01*
X27151Y139057D01*
X27034Y139012D01*
X26915Y138973D01*
X26886Y138955D01*
X26855Y138943D01*
X26752Y138870D01*
X26646Y138803D01*
X26623Y138779D01*
X26595Y138759D01*
X26514Y138663D01*
X26428Y138572D01*
X26412Y138542D01*
X26390Y138516D01*
X26335Y138403D01*
X26274Y138293D01*
X26266Y138260D01*
X26251Y138230D01*
X26226Y138107D01*
X26195Y137985D01*
X26192Y137936D01*
X26188Y137918D01*
X26189Y137897D01*
X26185Y137824D01*
X26185Y132277D01*
X26048Y131768D01*
X25785Y131311D01*
X25413Y130939D01*
X24956Y130676D01*
X24447Y130539D01*
X17223Y130539D01*
G37*
%LPD*%
G36*
X125048Y57876D02*
X125048Y57876D01*
X125167Y57883D01*
X125205Y57896D01*
X125246Y57901D01*
X125356Y57945D01*
X125469Y57981D01*
X125504Y58003D01*
X125541Y58018D01*
X125637Y58088D01*
X125738Y58151D01*
X125766Y58181D01*
X125799Y58205D01*
X125875Y58296D01*
X125956Y58383D01*
X125976Y58418D01*
X126001Y58450D01*
X126052Y58557D01*
X126110Y58662D01*
X126120Y58701D01*
X126137Y58737D01*
X126159Y58854D01*
X126189Y58970D01*
X126193Y59030D01*
X126197Y59050D01*
X126195Y59070D01*
X126199Y59130D01*
X126199Y64901D01*
X129463Y64901D01*
X129972Y64764D01*
X129981Y64760D01*
X130084Y64716D01*
X130184Y64665D01*
X130230Y64655D01*
X130274Y64636D01*
X130385Y64620D01*
X130495Y64595D01*
X130542Y64597D01*
X130588Y64590D01*
X130700Y64601D01*
X130813Y64605D01*
X130858Y64618D01*
X130905Y64623D01*
X131010Y64662D01*
X131118Y64693D01*
X131159Y64717D01*
X131203Y64734D01*
X131295Y64798D01*
X131392Y64855D01*
X131446Y64903D01*
X131464Y64915D01*
X131476Y64929D01*
X131513Y64961D01*
X133516Y66965D01*
X145586Y66965D01*
X145704Y66980D01*
X145823Y66987D01*
X145861Y67000D01*
X145902Y67005D01*
X146012Y67048D01*
X146125Y67085D01*
X146160Y67107D01*
X146197Y67122D01*
X146293Y67191D01*
X146394Y67255D01*
X146422Y67285D01*
X146455Y67308D01*
X146531Y67400D01*
X146612Y67487D01*
X146632Y67522D01*
X146657Y67553D01*
X146708Y67661D01*
X146766Y67765D01*
X146776Y67805D01*
X146793Y67841D01*
X146815Y67958D01*
X146845Y68073D01*
X146849Y68133D01*
X146853Y68153D01*
X146851Y68174D01*
X146855Y68234D01*
X146855Y71733D01*
X146852Y71762D01*
X146854Y71792D01*
X146832Y71920D01*
X146815Y72049D01*
X146805Y72076D01*
X146800Y72105D01*
X146746Y72224D01*
X146698Y72344D01*
X146681Y72368D01*
X146669Y72395D01*
X146588Y72496D01*
X146512Y72602D01*
X146489Y72620D01*
X146470Y72643D01*
X146367Y72721D01*
X146267Y72804D01*
X146240Y72817D01*
X146216Y72835D01*
X146072Y72906D01*
X144263Y73655D01*
X144228Y73664D01*
X144196Y73681D01*
X144075Y73706D01*
X143956Y73739D01*
X143920Y73739D01*
X143884Y73747D01*
X143761Y73742D01*
X143638Y73744D01*
X143603Y73735D01*
X143567Y73734D01*
X143449Y73698D01*
X143329Y73670D01*
X143297Y73653D01*
X143262Y73642D01*
X143157Y73579D01*
X143048Y73521D01*
X143021Y73497D01*
X142990Y73478D01*
X142904Y73390D01*
X142813Y73307D01*
X142793Y73277D01*
X142767Y73251D01*
X142678Y73117D01*
X142421Y72672D01*
X142049Y72299D01*
X141592Y72036D01*
X141083Y71899D01*
X137819Y71899D01*
X137819Y77670D01*
X137804Y77788D01*
X137797Y77907D01*
X137784Y77945D01*
X137779Y77985D01*
X137736Y78096D01*
X137699Y78209D01*
X137677Y78243D01*
X137662Y78281D01*
X137593Y78377D01*
X137529Y78478D01*
X137499Y78506D01*
X137476Y78538D01*
X137384Y78614D01*
X137297Y78696D01*
X137262Y78715D01*
X137231Y78741D01*
X137123Y78792D01*
X137019Y78849D01*
X136979Y78859D01*
X136943Y78877D01*
X136826Y78899D01*
X136711Y78929D01*
X136651Y78933D01*
X136631Y78936D01*
X136610Y78935D01*
X136550Y78939D01*
X134090Y78939D01*
X133972Y78924D01*
X133853Y78917D01*
X133815Y78904D01*
X133774Y78899D01*
X133664Y78855D01*
X133551Y78819D01*
X133516Y78797D01*
X133479Y78782D01*
X133382Y78712D01*
X133282Y78649D01*
X133254Y78619D01*
X133221Y78595D01*
X133145Y78504D01*
X133064Y78417D01*
X133044Y78382D01*
X133019Y78350D01*
X132968Y78243D01*
X132910Y78138D01*
X132900Y78099D01*
X132883Y78063D01*
X132861Y77946D01*
X132831Y77830D01*
X132827Y77770D01*
X132823Y77750D01*
X132824Y77733D01*
X132823Y77727D01*
X132824Y77719D01*
X132821Y77670D01*
X132821Y71899D01*
X129557Y71899D01*
X129048Y72036D01*
X129039Y72040D01*
X128936Y72084D01*
X128836Y72135D01*
X128790Y72145D01*
X128746Y72164D01*
X128635Y72180D01*
X128525Y72205D01*
X128478Y72203D01*
X128432Y72210D01*
X128320Y72199D01*
X128207Y72195D01*
X128162Y72182D01*
X128115Y72177D01*
X128010Y72138D01*
X127902Y72107D01*
X127861Y72083D01*
X127817Y72066D01*
X127725Y72002D01*
X127628Y71945D01*
X127574Y71897D01*
X127556Y71885D01*
X127544Y71871D01*
X127507Y71839D01*
X125504Y69835D01*
X114917Y69835D01*
X114780Y69818D01*
X114641Y69805D01*
X114622Y69798D01*
X114602Y69795D01*
X114473Y69744D01*
X114342Y69697D01*
X114325Y69686D01*
X114306Y69678D01*
X114194Y69597D01*
X114079Y69519D01*
X114065Y69503D01*
X114049Y69492D01*
X113960Y69384D01*
X113868Y69280D01*
X113859Y69262D01*
X113846Y69247D01*
X113787Y69121D01*
X113724Y68997D01*
X113719Y68977D01*
X113710Y68959D01*
X113684Y68823D01*
X113654Y68687D01*
X113654Y68666D01*
X113651Y68647D01*
X113659Y68508D01*
X113664Y68369D01*
X113669Y68349D01*
X113670Y68329D01*
X113713Y68197D01*
X113752Y68063D01*
X113762Y68046D01*
X113768Y68027D01*
X113843Y67909D01*
X113913Y67789D01*
X113932Y67768D01*
X113939Y67758D01*
X113953Y67744D01*
X114020Y67669D01*
X116512Y65176D01*
X116596Y65111D01*
X116674Y65040D01*
X116721Y65014D01*
X116764Y64981D01*
X116861Y64939D01*
X116954Y64889D01*
X117006Y64876D01*
X117055Y64855D01*
X117160Y64838D01*
X117263Y64813D01*
X117316Y64813D01*
X117370Y64805D01*
X117475Y64815D01*
X117581Y64816D01*
X117664Y64833D01*
X117686Y64835D01*
X117701Y64840D01*
X117738Y64848D01*
X117937Y64901D01*
X121201Y64901D01*
X121201Y59130D01*
X121216Y59012D01*
X121223Y58893D01*
X121235Y58855D01*
X121241Y58815D01*
X121284Y58704D01*
X121321Y58591D01*
X121343Y58557D01*
X121358Y58519D01*
X121427Y58423D01*
X121491Y58322D01*
X121521Y58294D01*
X121544Y58262D01*
X121636Y58186D01*
X121723Y58104D01*
X121758Y58085D01*
X121789Y58059D01*
X121897Y58008D01*
X122001Y57951D01*
X122041Y57941D01*
X122077Y57923D01*
X122194Y57901D01*
X122309Y57871D01*
X122369Y57867D01*
X122389Y57864D01*
X122410Y57865D01*
X122470Y57861D01*
X124930Y57861D01*
X125048Y57876D01*
G37*
G36*
X263304Y5315D02*
X263304Y5315D01*
X263423Y5322D01*
X263461Y5334D01*
X263501Y5339D01*
X263612Y5383D01*
X263725Y5420D01*
X263760Y5442D01*
X263797Y5456D01*
X263894Y5526D01*
X263994Y5590D01*
X264022Y5620D01*
X264054Y5643D01*
X264130Y5735D01*
X264212Y5822D01*
X264232Y5857D01*
X264257Y5888D01*
X264308Y5996D01*
X264366Y6100D01*
X264376Y6139D01*
X264393Y6176D01*
X264415Y6293D01*
X264445Y6408D01*
X264449Y6468D01*
X264453Y6488D01*
X264451Y6509D01*
X264455Y6569D01*
X264455Y7210D01*
X264440Y7328D01*
X264433Y7447D01*
X264420Y7485D01*
X264415Y7526D01*
X264372Y7636D01*
X264335Y7749D01*
X264313Y7784D01*
X264298Y7821D01*
X264229Y7917D01*
X264165Y8018D01*
X264135Y8046D01*
X264112Y8079D01*
X264020Y8155D01*
X263933Y8236D01*
X263898Y8256D01*
X263867Y8281D01*
X263759Y8332D01*
X263655Y8390D01*
X263615Y8400D01*
X263579Y8417D01*
X263462Y8439D01*
X263347Y8469D01*
X263287Y8473D01*
X263267Y8477D01*
X263246Y8475D01*
X263186Y8479D01*
X249364Y8479D01*
X247361Y10483D01*
X247272Y10552D01*
X247189Y10627D01*
X247147Y10649D01*
X247110Y10678D01*
X247006Y10722D01*
X246907Y10775D01*
X246861Y10785D01*
X246818Y10804D01*
X246706Y10822D01*
X246597Y10847D01*
X246550Y10847D01*
X246504Y10854D01*
X246392Y10843D01*
X246279Y10841D01*
X246234Y10829D01*
X246187Y10824D01*
X246081Y10786D01*
X245973Y10756D01*
X245908Y10724D01*
X245888Y10717D01*
X245872Y10706D01*
X245829Y10684D01*
X245820Y10680D01*
X245311Y10543D01*
X242047Y10543D01*
X242047Y16314D01*
X242032Y16432D01*
X242025Y16551D01*
X242012Y16589D01*
X242007Y16629D01*
X241964Y16740D01*
X241927Y16853D01*
X241905Y16887D01*
X241890Y16925D01*
X241821Y17021D01*
X241757Y17122D01*
X241727Y17150D01*
X241704Y17182D01*
X241612Y17258D01*
X241525Y17340D01*
X241490Y17359D01*
X241459Y17385D01*
X241351Y17436D01*
X241247Y17493D01*
X241207Y17503D01*
X241171Y17521D01*
X241054Y17543D01*
X240939Y17573D01*
X240879Y17577D01*
X240859Y17580D01*
X240838Y17579D01*
X240778Y17583D01*
X238318Y17583D01*
X238200Y17568D01*
X238081Y17561D01*
X238043Y17548D01*
X238002Y17543D01*
X237892Y17499D01*
X237779Y17463D01*
X237744Y17441D01*
X237707Y17426D01*
X237610Y17356D01*
X237510Y17293D01*
X237482Y17263D01*
X237449Y17239D01*
X237373Y17148D01*
X237292Y17061D01*
X237272Y17026D01*
X237247Y16994D01*
X237196Y16887D01*
X237138Y16782D01*
X237128Y16743D01*
X237111Y16707D01*
X237089Y16590D01*
X237059Y16474D01*
X237055Y16414D01*
X237051Y16394D01*
X237053Y16374D01*
X237049Y16314D01*
X237049Y10543D01*
X235001Y10543D01*
X234903Y10531D01*
X234804Y10528D01*
X234746Y10511D01*
X234686Y10503D01*
X234594Y10467D01*
X234499Y10439D01*
X234447Y10409D01*
X234390Y10386D01*
X234310Y10328D01*
X234225Y10278D01*
X234149Y10212D01*
X234133Y10200D01*
X234125Y10190D01*
X234104Y10172D01*
X232144Y8211D01*
X217776Y8211D01*
X215773Y10215D01*
X215684Y10284D01*
X215601Y10359D01*
X215559Y10381D01*
X215522Y10410D01*
X215418Y10454D01*
X215319Y10507D01*
X215273Y10517D01*
X215230Y10536D01*
X215118Y10554D01*
X215009Y10579D01*
X214962Y10579D01*
X214916Y10586D01*
X214804Y10575D01*
X214691Y10573D01*
X214646Y10561D01*
X214599Y10556D01*
X214493Y10518D01*
X214385Y10488D01*
X214320Y10456D01*
X214300Y10449D01*
X214284Y10438D01*
X214241Y10416D01*
X214232Y10412D01*
X213723Y10275D01*
X211096Y10275D01*
X211046Y10269D01*
X210996Y10271D01*
X210889Y10249D01*
X210780Y10235D01*
X210734Y10217D01*
X210685Y10207D01*
X210586Y10159D01*
X210484Y10118D01*
X210444Y10089D01*
X210399Y10067D01*
X210316Y9996D01*
X210227Y9932D01*
X210195Y9893D01*
X210157Y9861D01*
X210094Y9771D01*
X210024Y9687D01*
X210003Y9642D01*
X209974Y9601D01*
X209935Y9498D01*
X209889Y9399D01*
X209879Y9350D01*
X209862Y9304D01*
X209849Y9194D01*
X209829Y9087D01*
X209832Y9037D01*
X209826Y8987D01*
X209842Y8879D01*
X209849Y8769D01*
X209864Y8722D01*
X209871Y8673D01*
X209873Y8667D01*
X209873Y6576D01*
X209888Y6458D01*
X209895Y6339D01*
X209907Y6301D01*
X209913Y6260D01*
X209956Y6150D01*
X209993Y6037D01*
X210015Y6002D01*
X210030Y5965D01*
X210100Y5868D01*
X210163Y5768D01*
X210193Y5740D01*
X210216Y5707D01*
X210308Y5631D01*
X210395Y5550D01*
X210430Y5530D01*
X210461Y5504D01*
X210569Y5454D01*
X210673Y5396D01*
X210713Y5386D01*
X210749Y5369D01*
X210866Y5347D01*
X210981Y5317D01*
X211042Y5313D01*
X211061Y5309D01*
X211082Y5310D01*
X211142Y5307D01*
X263186Y5300D01*
X263304Y5315D01*
G37*
G36*
X140787Y157070D02*
X140787Y157070D01*
X140871Y157071D01*
X140944Y157090D01*
X141019Y157100D01*
X141097Y157131D01*
X141179Y157152D01*
X141245Y157189D01*
X141314Y157217D01*
X141383Y157266D01*
X141456Y157307D01*
X141511Y157359D01*
X141572Y157403D01*
X141626Y157469D01*
X141687Y157527D01*
X141727Y157591D01*
X141775Y157648D01*
X141811Y157725D01*
X141855Y157796D01*
X141878Y157868D01*
X141910Y157936D01*
X141926Y158019D01*
X141952Y158100D01*
X141956Y158175D01*
X141970Y158249D01*
X141965Y158333D01*
X141969Y158417D01*
X141951Y158557D01*
X141950Y158566D01*
X141949Y158569D01*
X141948Y158577D01*
X141874Y158951D01*
X147560Y158951D01*
X147678Y158966D01*
X147797Y158973D01*
X147835Y158985D01*
X147875Y158990D01*
X147986Y159034D01*
X148099Y159071D01*
X148133Y159093D01*
X148171Y159107D01*
X148267Y159177D01*
X148368Y159241D01*
X148396Y159271D01*
X148428Y159294D01*
X148504Y159386D01*
X148586Y159473D01*
X148605Y159508D01*
X148631Y159539D01*
X148682Y159647D01*
X148739Y159751D01*
X148749Y159790D01*
X148767Y159827D01*
X148789Y159944D01*
X148819Y160059D01*
X148823Y160119D01*
X148826Y160139D01*
X148826Y160140D01*
X148825Y160160D01*
X148829Y160220D01*
X148814Y160338D01*
X148807Y160457D01*
X148794Y160495D01*
X148789Y160536D01*
X148745Y160646D01*
X148709Y160760D01*
X148687Y160794D01*
X148672Y160831D01*
X148602Y160928D01*
X148538Y161028D01*
X148509Y161056D01*
X148485Y161089D01*
X148393Y161165D01*
X148307Y161246D01*
X148271Y161266D01*
X148240Y161292D01*
X148133Y161342D01*
X148028Y161400D01*
X147989Y161410D01*
X147953Y161427D01*
X147836Y161449D01*
X147720Y161479D01*
X147660Y161483D01*
X147640Y161487D01*
X147620Y161486D01*
X147560Y161489D01*
X141874Y161489D01*
X141959Y161919D01*
X142398Y162979D01*
X143036Y163933D01*
X143847Y164744D01*
X144801Y165382D01*
X145861Y165821D01*
X146230Y165894D01*
X146376Y165943D01*
X146521Y165990D01*
X146526Y165993D01*
X146531Y165995D01*
X146660Y166078D01*
X146790Y166160D01*
X146794Y166164D01*
X146799Y166167D01*
X146902Y166279D01*
X147008Y166392D01*
X147011Y166397D01*
X147014Y166401D01*
X147086Y166534D01*
X147162Y166670D01*
X147163Y166676D01*
X147166Y166681D01*
X147203Y166830D01*
X147241Y166978D01*
X147242Y166986D01*
X147242Y166989D01*
X147242Y166998D01*
X147251Y167139D01*
X147251Y169677D01*
X148422Y172503D01*
X150585Y174666D01*
X153411Y175837D01*
X154159Y175837D01*
X154287Y175853D01*
X154415Y175863D01*
X154444Y175873D01*
X154474Y175877D01*
X154594Y175924D01*
X154716Y175966D01*
X154742Y175982D01*
X154770Y175994D01*
X154874Y176069D01*
X154982Y176140D01*
X155013Y176170D01*
X155027Y176180D01*
X155041Y176197D01*
X155098Y176252D01*
X155593Y176797D01*
X155625Y176843D01*
X155664Y176883D01*
X155753Y177017D01*
X155927Y177318D01*
X156216Y177540D01*
X156231Y177556D01*
X156250Y177568D01*
X156344Y177668D01*
X156441Y177764D01*
X156453Y177783D01*
X156468Y177799D01*
X156534Y177919D01*
X156605Y178037D01*
X156611Y178058D01*
X156622Y178078D01*
X156656Y178211D01*
X156695Y178342D01*
X156696Y178364D01*
X156701Y178386D01*
X156711Y178546D01*
X156711Y181960D01*
X157242Y182491D01*
X157327Y182600D01*
X157416Y182707D01*
X157425Y182726D01*
X157437Y182742D01*
X157492Y182870D01*
X157552Y182995D01*
X157555Y183015D01*
X157563Y183034D01*
X157585Y183172D01*
X157611Y183308D01*
X157610Y183328D01*
X157613Y183348D01*
X157600Y183487D01*
X157592Y183625D01*
X157585Y183644D01*
X157583Y183664D01*
X157536Y183795D01*
X157494Y183927D01*
X157483Y183945D01*
X157476Y183964D01*
X157398Y184079D01*
X157323Y184196D01*
X157309Y184210D01*
X157297Y184227D01*
X157193Y184319D01*
X157092Y184414D01*
X157074Y184424D01*
X157059Y184437D01*
X156935Y184500D01*
X156813Y184568D01*
X156794Y184573D01*
X156776Y184582D01*
X156640Y184612D01*
X156505Y184647D01*
X156477Y184649D01*
X156465Y184652D01*
X156445Y184651D01*
X156345Y184657D01*
X153611Y184657D01*
X153513Y184645D01*
X153414Y184642D01*
X153356Y184625D01*
X153296Y184617D01*
X153204Y184581D01*
X153109Y184553D01*
X153057Y184523D01*
X153000Y184500D01*
X152920Y184442D01*
X152835Y184392D01*
X152759Y184326D01*
X152743Y184314D01*
X152735Y184304D01*
X152714Y184286D01*
X147760Y179332D01*
X147700Y179254D01*
X147632Y179182D01*
X147603Y179129D01*
X147566Y179081D01*
X147526Y178990D01*
X147478Y178903D01*
X147463Y178845D01*
X147439Y178789D01*
X147424Y178691D01*
X147399Y178595D01*
X147393Y178495D01*
X147389Y178475D01*
X147391Y178463D01*
X147389Y178435D01*
X147389Y177287D01*
X146218Y174461D01*
X144055Y172298D01*
X141229Y171127D01*
X138684Y171127D01*
X138566Y171112D01*
X138447Y171105D01*
X138409Y171092D01*
X138368Y171087D01*
X138258Y171044D01*
X138145Y171007D01*
X138110Y170985D01*
X138073Y170970D01*
X137977Y170901D01*
X137876Y170837D01*
X137848Y170807D01*
X137815Y170784D01*
X137739Y170692D01*
X137658Y170605D01*
X137638Y170570D01*
X137613Y170539D01*
X137562Y170431D01*
X137504Y170327D01*
X137494Y170287D01*
X137477Y170251D01*
X137455Y170134D01*
X137425Y170019D01*
X137421Y169958D01*
X137417Y169939D01*
X137419Y169918D01*
X137415Y169858D01*
X137415Y158329D01*
X137430Y158211D01*
X137437Y158092D01*
X137450Y158054D01*
X137455Y158013D01*
X137498Y157903D01*
X137535Y157790D01*
X137557Y157755D01*
X137572Y157718D01*
X137641Y157622D01*
X137705Y157521D01*
X137735Y157493D01*
X137758Y157460D01*
X137850Y157385D01*
X137937Y157303D01*
X137972Y157283D01*
X138003Y157258D01*
X138111Y157207D01*
X138215Y157149D01*
X138255Y157139D01*
X138291Y157122D01*
X138408Y157100D01*
X138523Y157070D01*
X138583Y157066D01*
X138603Y157062D01*
X138624Y157064D01*
X138684Y157060D01*
X140703Y157060D01*
X140787Y157070D01*
G37*
G36*
X129267Y10432D02*
X129267Y10432D01*
X129405Y10445D01*
X129424Y10452D01*
X129444Y10455D01*
X129573Y10506D01*
X129704Y10553D01*
X129721Y10564D01*
X129740Y10572D01*
X129852Y10653D01*
X129967Y10731D01*
X129981Y10747D01*
X129997Y10758D01*
X130086Y10866D01*
X130178Y10970D01*
X130187Y10988D01*
X130200Y11003D01*
X130259Y11129D01*
X130322Y11253D01*
X130327Y11273D01*
X130336Y11291D01*
X130362Y11428D01*
X130392Y11563D01*
X130392Y11584D01*
X130395Y11603D01*
X130387Y11742D01*
X130382Y11881D01*
X130377Y11901D01*
X130376Y11921D01*
X130333Y12053D01*
X130294Y12187D01*
X130284Y12204D01*
X130278Y12223D01*
X130203Y12341D01*
X130133Y12461D01*
X130114Y12482D01*
X130107Y12492D01*
X130092Y12506D01*
X130026Y12581D01*
X129159Y13448D01*
X129159Y24892D01*
X129144Y25010D01*
X129137Y25129D01*
X129124Y25167D01*
X129119Y25208D01*
X129076Y25318D01*
X129039Y25431D01*
X129017Y25466D01*
X129002Y25503D01*
X128933Y25599D01*
X128869Y25700D01*
X128839Y25728D01*
X128816Y25761D01*
X128724Y25837D01*
X128637Y25918D01*
X128602Y25938D01*
X128571Y25963D01*
X128463Y26014D01*
X128359Y26072D01*
X128319Y26082D01*
X128283Y26099D01*
X128166Y26121D01*
X128051Y26151D01*
X127991Y26155D01*
X127971Y26159D01*
X127950Y26157D01*
X127890Y26161D01*
X126494Y26161D01*
X126376Y26146D01*
X126257Y26139D01*
X126219Y26126D01*
X126178Y26121D01*
X126068Y26078D01*
X125955Y26041D01*
X125920Y26019D01*
X125883Y26004D01*
X125787Y25935D01*
X125686Y25871D01*
X125658Y25841D01*
X125625Y25818D01*
X125549Y25726D01*
X125468Y25639D01*
X125448Y25604D01*
X125423Y25573D01*
X125372Y25465D01*
X125314Y25361D01*
X125304Y25321D01*
X125287Y25285D01*
X125265Y25168D01*
X125235Y25053D01*
X125231Y24993D01*
X125227Y24973D01*
X125229Y24952D01*
X125225Y24892D01*
X125225Y23131D01*
X119954Y23131D01*
X119836Y23116D01*
X119717Y23109D01*
X119679Y23096D01*
X119639Y23091D01*
X119528Y23048D01*
X119415Y23011D01*
X119381Y22989D01*
X119343Y22974D01*
X119247Y22905D01*
X119146Y22841D01*
X119118Y22811D01*
X119086Y22788D01*
X119010Y22696D01*
X118928Y22609D01*
X118909Y22574D01*
X118883Y22543D01*
X118832Y22435D01*
X118775Y22331D01*
X118765Y22291D01*
X118747Y22255D01*
X118725Y22138D01*
X118695Y22023D01*
X118691Y21963D01*
X118688Y21943D01*
X118689Y21922D01*
X118685Y21862D01*
X118685Y21671D01*
X118494Y21671D01*
X118376Y21656D01*
X118257Y21649D01*
X118219Y21636D01*
X118178Y21631D01*
X118068Y21587D01*
X117955Y21551D01*
X117920Y21529D01*
X117883Y21514D01*
X117786Y21444D01*
X117686Y21381D01*
X117658Y21351D01*
X117625Y21327D01*
X117549Y21236D01*
X117468Y21149D01*
X117448Y21114D01*
X117423Y21082D01*
X117372Y20975D01*
X117314Y20870D01*
X117304Y20831D01*
X117287Y20795D01*
X117265Y20678D01*
X117235Y20562D01*
X117231Y20502D01*
X117227Y20482D01*
X117229Y20462D01*
X117225Y20402D01*
X117225Y13004D01*
X117201Y12989D01*
X117164Y12974D01*
X117068Y12905D01*
X116967Y12841D01*
X116939Y12811D01*
X116906Y12788D01*
X116830Y12696D01*
X116749Y12609D01*
X116729Y12574D01*
X116704Y12543D01*
X116653Y12435D01*
X116595Y12331D01*
X116585Y12291D01*
X116568Y12255D01*
X116546Y12138D01*
X116516Y12023D01*
X116512Y11963D01*
X116508Y11943D01*
X116510Y11922D01*
X116506Y11862D01*
X116506Y11684D01*
X116521Y11566D01*
X116528Y11447D01*
X116541Y11409D01*
X116546Y11368D01*
X116589Y11258D01*
X116626Y11145D01*
X116648Y11110D01*
X116663Y11073D01*
X116732Y10977D01*
X116796Y10876D01*
X116826Y10848D01*
X116849Y10815D01*
X116941Y10739D01*
X117028Y10658D01*
X117063Y10638D01*
X117094Y10613D01*
X117202Y10562D01*
X117306Y10504D01*
X117346Y10494D01*
X117382Y10477D01*
X117499Y10455D01*
X117614Y10425D01*
X117674Y10421D01*
X117694Y10417D01*
X117715Y10419D01*
X117775Y10415D01*
X129129Y10415D01*
X129267Y10432D01*
G37*
G36*
X89601Y133620D02*
X89601Y133620D01*
X89711Y133627D01*
X89758Y133642D01*
X89807Y133649D01*
X89960Y133701D01*
X90379Y133875D01*
X90870Y133875D01*
X90988Y133890D01*
X91107Y133897D01*
X91145Y133910D01*
X91186Y133915D01*
X91296Y133958D01*
X91409Y133995D01*
X91444Y134017D01*
X91481Y134032D01*
X91577Y134101D01*
X91678Y134165D01*
X91706Y134195D01*
X91739Y134218D01*
X91815Y134310D01*
X91896Y134397D01*
X91916Y134432D01*
X91941Y134463D01*
X91992Y134571D01*
X92050Y134675D01*
X92060Y134715D01*
X92077Y134751D01*
X92099Y134868D01*
X92129Y134983D01*
X92133Y135043D01*
X92137Y135063D01*
X92135Y135084D01*
X92139Y135144D01*
X92139Y136281D01*
X97410Y136281D01*
X97528Y136296D01*
X97647Y136303D01*
X97685Y136315D01*
X97725Y136321D01*
X97836Y136364D01*
X97949Y136401D01*
X97983Y136423D01*
X98021Y136438D01*
X98117Y136507D01*
X98134Y136518D01*
X98158Y136504D01*
X98190Y136479D01*
X98297Y136428D01*
X98402Y136370D01*
X98441Y136360D01*
X98477Y136343D01*
X98594Y136321D01*
X98710Y136291D01*
X98770Y136287D01*
X98790Y136283D01*
X98810Y136285D01*
X98870Y136281D01*
X102631Y136281D01*
X102729Y136293D01*
X102828Y136296D01*
X102886Y136313D01*
X102946Y136321D01*
X103038Y136357D01*
X103133Y136385D01*
X103185Y136415D01*
X103242Y136438D01*
X103322Y136496D01*
X103407Y136546D01*
X103483Y136612D01*
X103499Y136624D01*
X103507Y136634D01*
X103528Y136652D01*
X104988Y138113D01*
X105073Y138222D01*
X105162Y138329D01*
X105171Y138348D01*
X105183Y138364D01*
X105238Y138491D01*
X105298Y138617D01*
X105301Y138637D01*
X105309Y138656D01*
X105331Y138794D01*
X105357Y138930D01*
X105356Y138950D01*
X105359Y138970D01*
X105350Y139064D01*
X105468Y139071D01*
X105607Y139076D01*
X105627Y139081D01*
X105647Y139082D01*
X105779Y139125D01*
X105913Y139164D01*
X105930Y139174D01*
X105949Y139180D01*
X106067Y139255D01*
X106187Y139326D01*
X106208Y139344D01*
X106218Y139351D01*
X106232Y139366D01*
X106307Y139432D01*
X108259Y141383D01*
X108850Y141974D01*
X108910Y142052D01*
X108978Y142124D01*
X109007Y142177D01*
X109045Y142225D01*
X109084Y142316D01*
X109132Y142403D01*
X109147Y142462D01*
X109171Y142517D01*
X109186Y142615D01*
X109211Y142711D01*
X109218Y142811D01*
X109221Y142831D01*
X109220Y142844D01*
X109221Y142872D01*
X109221Y143256D01*
X109206Y143374D01*
X109199Y143493D01*
X109187Y143531D01*
X109182Y143572D01*
X109138Y143682D01*
X109101Y143795D01*
X109079Y143830D01*
X109065Y143867D01*
X108995Y143963D01*
X108931Y144064D01*
X108901Y144092D01*
X108878Y144125D01*
X108786Y144201D01*
X108699Y144282D01*
X108664Y144302D01*
X108633Y144327D01*
X108525Y144378D01*
X108421Y144436D01*
X108382Y144446D01*
X108345Y144463D01*
X108228Y144485D01*
X108113Y144515D01*
X108053Y144519D01*
X108033Y144523D01*
X108012Y144521D01*
X107952Y144525D01*
X105410Y144525D01*
X105292Y144510D01*
X105173Y144503D01*
X105135Y144490D01*
X105094Y144485D01*
X104984Y144442D01*
X104871Y144405D01*
X104836Y144383D01*
X104799Y144368D01*
X104703Y144299D01*
X104602Y144235D01*
X104574Y144205D01*
X104541Y144182D01*
X104465Y144090D01*
X104384Y144003D01*
X104364Y143968D01*
X104339Y143937D01*
X104288Y143829D01*
X104230Y143725D01*
X104220Y143685D01*
X104203Y143649D01*
X104181Y143532D01*
X104151Y143417D01*
X104147Y143357D01*
X104143Y143337D01*
X104145Y143316D01*
X104141Y143256D01*
X104141Y140329D01*
X104148Y140276D01*
X104091Y140279D01*
X98870Y140279D01*
X98752Y140264D01*
X98633Y140257D01*
X98595Y140244D01*
X98555Y140239D01*
X98444Y140196D01*
X98331Y140159D01*
X98297Y140137D01*
X98259Y140122D01*
X98163Y140053D01*
X98146Y140042D01*
X98122Y140056D01*
X98090Y140081D01*
X97983Y140132D01*
X97878Y140190D01*
X97839Y140200D01*
X97803Y140217D01*
X97686Y140239D01*
X97570Y140269D01*
X97510Y140273D01*
X97490Y140277D01*
X97470Y140275D01*
X97410Y140279D01*
X92139Y140279D01*
X92139Y143256D01*
X92124Y143374D01*
X92117Y143493D01*
X92104Y143531D01*
X92099Y143572D01*
X92056Y143682D01*
X92019Y143795D01*
X91997Y143830D01*
X91982Y143867D01*
X91913Y143963D01*
X91849Y144064D01*
X91819Y144092D01*
X91796Y144125D01*
X91704Y144201D01*
X91617Y144282D01*
X91582Y144302D01*
X91551Y144327D01*
X91443Y144378D01*
X91339Y144436D01*
X91299Y144446D01*
X91263Y144463D01*
X91146Y144485D01*
X91031Y144515D01*
X90971Y144519D01*
X90951Y144523D01*
X90930Y144521D01*
X90870Y144525D01*
X89474Y144525D01*
X89356Y144510D01*
X89237Y144503D01*
X89199Y144490D01*
X89158Y144485D01*
X89048Y144442D01*
X88935Y144405D01*
X88900Y144383D01*
X88863Y144368D01*
X88767Y144299D01*
X88666Y144235D01*
X88638Y144205D01*
X88605Y144182D01*
X88529Y144090D01*
X88448Y144003D01*
X88428Y143968D01*
X88403Y143937D01*
X88352Y143829D01*
X88294Y143725D01*
X88284Y143685D01*
X88267Y143649D01*
X88245Y143532D01*
X88215Y143417D01*
X88211Y143357D01*
X88207Y143337D01*
X88209Y143316D01*
X88205Y143256D01*
X88205Y134874D01*
X88211Y134824D01*
X88209Y134775D01*
X88231Y134667D01*
X88245Y134558D01*
X88263Y134512D01*
X88273Y134463D01*
X88321Y134365D01*
X88362Y134263D01*
X88391Y134222D01*
X88413Y134178D01*
X88484Y134094D01*
X88548Y134005D01*
X88587Y133973D01*
X88619Y133936D01*
X88709Y133872D01*
X88793Y133802D01*
X88838Y133781D01*
X88879Y133753D01*
X88982Y133714D01*
X89081Y133667D01*
X89130Y133658D01*
X89176Y133640D01*
X89286Y133628D01*
X89393Y133607D01*
X89443Y133610D01*
X89492Y133605D01*
X89601Y133620D01*
G37*
G36*
X90556Y81901D02*
X90556Y81901D01*
X90669Y81903D01*
X90714Y81915D01*
X90761Y81920D01*
X90867Y81958D01*
X90975Y81988D01*
X91040Y82020D01*
X91060Y82027D01*
X91076Y82038D01*
X91119Y82060D01*
X91128Y82064D01*
X91637Y82201D01*
X92854Y82201D01*
X92992Y82218D01*
X93130Y82231D01*
X93149Y82238D01*
X93169Y82241D01*
X93299Y82292D01*
X93429Y82339D01*
X93446Y82350D01*
X93465Y82358D01*
X93577Y82439D01*
X93692Y82517D01*
X93706Y82533D01*
X93722Y82544D01*
X93811Y82652D01*
X93903Y82756D01*
X93912Y82774D01*
X93925Y82789D01*
X93984Y82915D01*
X94047Y83039D01*
X94052Y83059D01*
X94060Y83077D01*
X94087Y83214D01*
X94117Y83349D01*
X94116Y83370D01*
X94120Y83389D01*
X94112Y83528D01*
X94107Y83667D01*
X94102Y83687D01*
X94100Y83707D01*
X94058Y83839D01*
X94019Y83973D01*
X94009Y83990D01*
X94002Y84009D01*
X93928Y84127D01*
X93857Y84247D01*
X93839Y84268D01*
X93832Y84278D01*
X93817Y84292D01*
X93751Y84368D01*
X93304Y84815D01*
X92133Y87641D01*
X92133Y90699D01*
X93320Y93565D01*
X93345Y93599D01*
X93424Y93702D01*
X93436Y93729D01*
X93453Y93753D01*
X93499Y93875D01*
X93550Y93994D01*
X93555Y94023D01*
X93566Y94051D01*
X93580Y94180D01*
X93600Y94308D01*
X93598Y94337D01*
X93601Y94367D01*
X93583Y94495D01*
X93571Y94624D01*
X93560Y94652D01*
X93556Y94682D01*
X93504Y94834D01*
X92860Y96389D01*
X92852Y96403D01*
X92847Y96419D01*
X92774Y96541D01*
X92702Y96666D01*
X92691Y96677D01*
X92683Y96691D01*
X92581Y96791D01*
X92481Y96894D01*
X92467Y96902D01*
X92456Y96914D01*
X92322Y97003D01*
X91504Y97475D01*
X91419Y97511D01*
X91338Y97556D01*
X91273Y97572D01*
X91211Y97598D01*
X91119Y97612D01*
X91030Y97635D01*
X90913Y97642D01*
X90896Y97645D01*
X90888Y97644D01*
X90869Y97645D01*
X90151Y97645D01*
X90059Y97634D01*
X89967Y97632D01*
X89902Y97614D01*
X89835Y97605D01*
X89749Y97571D01*
X89660Y97547D01*
X89555Y97495D01*
X89540Y97488D01*
X89533Y97483D01*
X89516Y97475D01*
X88838Y97084D01*
X88039Y96869D01*
X87998Y96864D01*
X87879Y96857D01*
X87841Y96844D01*
X87800Y96839D01*
X87690Y96796D01*
X87577Y96759D01*
X87542Y96737D01*
X87505Y96722D01*
X87409Y96653D01*
X87308Y96589D01*
X87280Y96559D01*
X87247Y96536D01*
X87171Y96444D01*
X87090Y96357D01*
X87070Y96322D01*
X87045Y96291D01*
X86994Y96183D01*
X86936Y96079D01*
X86926Y96039D01*
X86909Y96003D01*
X86887Y95886D01*
X86857Y95771D01*
X86853Y95711D01*
X86849Y95691D01*
X86851Y95670D01*
X86847Y95610D01*
X86847Y94560D01*
X86112Y92786D01*
X85121Y91794D01*
X85060Y91716D01*
X84992Y91644D01*
X84963Y91591D01*
X84926Y91543D01*
X84886Y91452D01*
X84838Y91366D01*
X84823Y91307D01*
X84799Y91251D01*
X84784Y91153D01*
X84759Y91058D01*
X84753Y90958D01*
X84749Y90937D01*
X84751Y90925D01*
X84749Y90897D01*
X84749Y89031D01*
X83502Y86020D01*
X83488Y85972D01*
X83467Y85927D01*
X83447Y85819D01*
X83418Y85713D01*
X83417Y85663D01*
X83407Y85614D01*
X83414Y85505D01*
X83413Y85395D01*
X83424Y85347D01*
X83427Y85297D01*
X83461Y85193D01*
X83487Y85086D01*
X83510Y85042D01*
X83525Y84995D01*
X83584Y84902D01*
X83635Y84805D01*
X83669Y84768D01*
X83695Y84726D01*
X83775Y84651D01*
X83849Y84569D01*
X83891Y84542D01*
X83927Y84508D01*
X84023Y84455D01*
X84115Y84395D01*
X84162Y84378D01*
X84206Y84354D01*
X84312Y84327D01*
X84416Y84291D01*
X84465Y84287D01*
X84513Y84275D01*
X84674Y84265D01*
X87584Y84265D01*
X89587Y82261D01*
X89676Y82192D01*
X89759Y82117D01*
X89801Y82095D01*
X89838Y82066D01*
X89942Y82022D01*
X90041Y81969D01*
X90087Y81959D01*
X90130Y81940D01*
X90242Y81922D01*
X90351Y81897D01*
X90398Y81897D01*
X90444Y81890D01*
X90556Y81901D01*
G37*
G36*
X263744Y26624D02*
X263744Y26624D01*
X263863Y26631D01*
X263901Y26644D01*
X263942Y26649D01*
X264052Y26692D01*
X264165Y26729D01*
X264200Y26751D01*
X264237Y26766D01*
X264333Y26835D01*
X264392Y26873D01*
X271166Y26873D01*
X271284Y26888D01*
X271403Y26895D01*
X271441Y26907D01*
X271481Y26913D01*
X271592Y26956D01*
X271705Y26993D01*
X271739Y27015D01*
X271777Y27030D01*
X271873Y27099D01*
X271974Y27163D01*
X272002Y27193D01*
X272034Y27216D01*
X272110Y27308D01*
X272192Y27395D01*
X272211Y27430D01*
X272237Y27461D01*
X272288Y27569D01*
X272345Y27673D01*
X272355Y27713D01*
X272373Y27749D01*
X272395Y27866D01*
X272425Y27981D01*
X272429Y28041D01*
X272432Y28061D01*
X272432Y28065D01*
X272432Y28066D01*
X272431Y28084D01*
X272435Y28142D01*
X272435Y30602D01*
X272420Y30720D01*
X272413Y30839D01*
X272400Y30877D01*
X272395Y30918D01*
X272351Y31028D01*
X272315Y31141D01*
X272293Y31176D01*
X272278Y31213D01*
X272208Y31309D01*
X272145Y31410D01*
X272115Y31438D01*
X272091Y31471D01*
X272000Y31547D01*
X271913Y31628D01*
X271878Y31648D01*
X271846Y31673D01*
X271739Y31724D01*
X271634Y31782D01*
X271595Y31792D01*
X271559Y31809D01*
X271442Y31831D01*
X271326Y31861D01*
X271266Y31865D01*
X271246Y31869D01*
X271226Y31867D01*
X271166Y31871D01*
X264895Y31871D01*
X264895Y32183D01*
X264878Y32320D01*
X264865Y32459D01*
X264858Y32478D01*
X264855Y32498D01*
X264804Y32627D01*
X264757Y32758D01*
X264746Y32775D01*
X264738Y32794D01*
X264657Y32906D01*
X264579Y33022D01*
X264563Y33035D01*
X264552Y33051D01*
X264444Y33140D01*
X264340Y33232D01*
X264322Y33241D01*
X264307Y33254D01*
X264181Y33313D01*
X264057Y33377D01*
X264037Y33381D01*
X264019Y33390D01*
X263883Y33416D01*
X263747Y33446D01*
X263726Y33446D01*
X263707Y33449D01*
X263568Y33441D01*
X263429Y33436D01*
X263409Y33431D01*
X263389Y33430D01*
X263257Y33387D01*
X263123Y33348D01*
X263106Y33338D01*
X263087Y33332D01*
X263029Y33295D01*
X254640Y33295D01*
X254571Y33287D01*
X254501Y33288D01*
X254414Y33267D01*
X254325Y33255D01*
X254260Y33230D01*
X254192Y33213D01*
X254113Y33171D01*
X254029Y33138D01*
X253973Y33097D01*
X253911Y33065D01*
X253844Y33004D01*
X253772Y32952D01*
X253727Y32898D01*
X253676Y32851D01*
X253626Y32776D01*
X253569Y32707D01*
X253539Y32643D01*
X253501Y32585D01*
X253472Y32500D01*
X253433Y32419D01*
X253420Y32350D01*
X253398Y32284D01*
X253390Y32195D01*
X253374Y32107D01*
X253378Y32037D01*
X253372Y31967D01*
X253388Y31879D01*
X253393Y31789D01*
X253415Y31723D01*
X253427Y31654D01*
X253464Y31572D01*
X253491Y31487D01*
X253529Y31428D01*
X253557Y31364D01*
X253613Y31294D01*
X253662Y31218D01*
X253712Y31170D01*
X253756Y31116D01*
X253828Y31061D01*
X253893Y31000D01*
X253954Y30966D01*
X254010Y30924D01*
X254155Y30853D01*
X256006Y30087D01*
X259112Y26980D01*
X259190Y26920D01*
X259262Y26852D01*
X259315Y26823D01*
X259363Y26786D01*
X259454Y26746D01*
X259541Y26698D01*
X259599Y26683D01*
X259655Y26659D01*
X259753Y26644D01*
X259849Y26619D01*
X259949Y26613D01*
X259969Y26609D01*
X259981Y26611D01*
X260009Y26609D01*
X263626Y26609D01*
X263744Y26624D01*
G37*
G36*
X271708Y61848D02*
X271708Y61848D01*
X271827Y61855D01*
X271865Y61868D01*
X271906Y61873D01*
X272016Y61917D01*
X272129Y61953D01*
X272164Y61975D01*
X272201Y61990D01*
X272297Y62060D01*
X272398Y62123D01*
X272426Y62153D01*
X272459Y62177D01*
X272535Y62268D01*
X272616Y62355D01*
X272636Y62390D01*
X272661Y62422D01*
X272712Y62529D01*
X272770Y62634D01*
X272780Y62673D01*
X272797Y62709D01*
X272819Y62826D01*
X272849Y62942D01*
X272853Y63002D01*
X272857Y63022D01*
X272855Y63042D01*
X272859Y63102D01*
X272859Y68873D01*
X276123Y68873D01*
X276632Y68736D01*
X276641Y68732D01*
X276744Y68688D01*
X276844Y68637D01*
X276890Y68626D01*
X276934Y68608D01*
X277045Y68592D01*
X277155Y68567D01*
X277202Y68569D01*
X277248Y68562D01*
X277360Y68573D01*
X277473Y68577D01*
X277518Y68590D01*
X277565Y68595D01*
X277670Y68634D01*
X277778Y68665D01*
X277819Y68689D01*
X277863Y68706D01*
X277955Y68770D01*
X278052Y68827D01*
X278106Y68875D01*
X278124Y68887D01*
X278136Y68901D01*
X278173Y68933D01*
X278774Y69534D01*
X278834Y69612D01*
X278902Y69684D01*
X278931Y69737D01*
X278968Y69785D01*
X279008Y69876D01*
X279056Y69963D01*
X279071Y70021D01*
X279095Y70077D01*
X279110Y70175D01*
X279135Y70271D01*
X279141Y70371D01*
X279145Y70391D01*
X279143Y70403D01*
X279145Y70431D01*
X279145Y70814D01*
X279130Y70932D01*
X279123Y71051D01*
X279110Y71089D01*
X279105Y71130D01*
X279062Y71240D01*
X279025Y71353D01*
X279003Y71388D01*
X278988Y71425D01*
X278919Y71521D01*
X278855Y71622D01*
X278825Y71650D01*
X278802Y71683D01*
X278710Y71759D01*
X278623Y71840D01*
X278588Y71860D01*
X278557Y71885D01*
X278449Y71936D01*
X278345Y71994D01*
X278305Y72004D01*
X278269Y72021D01*
X278152Y72043D01*
X278037Y72073D01*
X277977Y72077D01*
X277957Y72081D01*
X277936Y72079D01*
X277876Y72083D01*
X275331Y72083D01*
X272648Y73194D01*
X272620Y73202D01*
X272593Y73216D01*
X272466Y73244D01*
X272341Y73278D01*
X272312Y73279D01*
X272283Y73285D01*
X272153Y73281D01*
X272023Y73283D01*
X271994Y73277D01*
X271965Y73276D01*
X271840Y73240D01*
X271714Y73209D01*
X271688Y73195D01*
X271659Y73187D01*
X271548Y73121D01*
X271433Y73061D01*
X271411Y73041D01*
X271386Y73026D01*
X271333Y72980D01*
X268493Y71803D01*
X265435Y71803D01*
X263500Y72605D01*
X263452Y72618D01*
X263407Y72639D01*
X263299Y72660D01*
X263193Y72689D01*
X263143Y72689D01*
X263094Y72699D01*
X262985Y72692D01*
X262875Y72694D01*
X262827Y72682D01*
X262777Y72679D01*
X262673Y72645D01*
X262566Y72620D01*
X262522Y72596D01*
X262475Y72581D01*
X262382Y72522D01*
X262285Y72471D01*
X262248Y72437D01*
X262206Y72411D01*
X262131Y72331D01*
X262049Y72257D01*
X262022Y72215D01*
X261988Y72179D01*
X261935Y72083D01*
X261875Y71991D01*
X261858Y71944D01*
X261834Y71901D01*
X261807Y71794D01*
X261771Y71690D01*
X261767Y71641D01*
X261755Y71593D01*
X261745Y71432D01*
X261745Y69582D01*
X261761Y69451D01*
X261772Y69319D01*
X261781Y69293D01*
X261785Y69267D01*
X261833Y69143D01*
X261877Y69018D01*
X261892Y68996D01*
X261902Y68971D01*
X261979Y68864D01*
X262053Y68753D01*
X262073Y68735D01*
X262088Y68713D01*
X262190Y68629D01*
X262289Y68540D01*
X262313Y68528D01*
X262333Y68511D01*
X262453Y68454D01*
X262570Y68393D01*
X262597Y68387D01*
X262621Y68375D01*
X262751Y68350D01*
X262880Y68320D01*
X262907Y68320D01*
X262933Y68315D01*
X263065Y68324D01*
X263198Y68326D01*
X263224Y68333D01*
X263251Y68335D01*
X263377Y68376D01*
X263504Y68411D01*
X263539Y68428D01*
X263553Y68433D01*
X263572Y68445D01*
X263649Y68483D01*
X264088Y68736D01*
X264597Y68873D01*
X267861Y68873D01*
X267861Y63102D01*
X267876Y62984D01*
X267883Y62865D01*
X267895Y62827D01*
X267901Y62787D01*
X267944Y62676D01*
X267981Y62563D01*
X268003Y62529D01*
X268018Y62491D01*
X268087Y62395D01*
X268151Y62294D01*
X268181Y62266D01*
X268204Y62234D01*
X268296Y62158D01*
X268383Y62076D01*
X268418Y62057D01*
X268449Y62031D01*
X268557Y61980D01*
X268661Y61923D01*
X268701Y61913D01*
X268737Y61895D01*
X268854Y61873D01*
X268969Y61843D01*
X269029Y61839D01*
X269049Y61836D01*
X269070Y61837D01*
X269130Y61833D01*
X271590Y61833D01*
X271708Y61848D01*
G37*
G36*
X209308Y17252D02*
X209308Y17252D01*
X209427Y17259D01*
X209465Y17272D01*
X209506Y17277D01*
X209616Y17321D01*
X209729Y17357D01*
X209764Y17379D01*
X209801Y17394D01*
X209897Y17464D01*
X209998Y17527D01*
X210026Y17557D01*
X210059Y17581D01*
X210135Y17672D01*
X210216Y17759D01*
X210236Y17794D01*
X210261Y17826D01*
X210312Y17933D01*
X210370Y18038D01*
X210380Y18077D01*
X210397Y18113D01*
X210419Y18230D01*
X210449Y18346D01*
X210453Y18406D01*
X210457Y18426D01*
X210455Y18446D01*
X210459Y18506D01*
X210459Y24277D01*
X213723Y24277D01*
X214232Y24140D01*
X214241Y24136D01*
X214344Y24092D01*
X214444Y24041D01*
X214490Y24031D01*
X214534Y24012D01*
X214645Y23996D01*
X214755Y23971D01*
X214802Y23973D01*
X214848Y23966D01*
X214960Y23977D01*
X215073Y23981D01*
X215118Y23994D01*
X215165Y23999D01*
X215270Y24038D01*
X215378Y24069D01*
X215419Y24093D01*
X215463Y24110D01*
X215555Y24174D01*
X215652Y24231D01*
X215706Y24279D01*
X215724Y24291D01*
X215736Y24305D01*
X215773Y24337D01*
X216310Y24874D01*
X216383Y24969D01*
X216462Y25058D01*
X216480Y25094D01*
X216505Y25126D01*
X216552Y25235D01*
X216606Y25341D01*
X216615Y25380D01*
X216631Y25418D01*
X216650Y25535D01*
X216676Y25651D01*
X216675Y25692D01*
X216681Y25732D01*
X216670Y25850D01*
X216666Y25969D01*
X216655Y26008D01*
X216651Y26048D01*
X216611Y26161D01*
X216578Y26275D01*
X216558Y26309D01*
X216544Y26348D01*
X216477Y26446D01*
X216417Y26549D01*
X216377Y26594D01*
X216365Y26611D01*
X216350Y26624D01*
X216310Y26669D01*
X214650Y28330D01*
X214572Y28390D01*
X214500Y28458D01*
X214447Y28487D01*
X214399Y28524D01*
X214308Y28564D01*
X214221Y28612D01*
X214163Y28627D01*
X214107Y28651D01*
X214009Y28666D01*
X213913Y28691D01*
X213813Y28697D01*
X213793Y28701D01*
X213781Y28699D01*
X213753Y28701D01*
X204283Y28701D01*
X204234Y28695D01*
X204184Y28697D01*
X204077Y28675D01*
X203967Y28661D01*
X203921Y28643D01*
X203873Y28633D01*
X203774Y28585D01*
X203672Y28544D01*
X203631Y28515D01*
X203587Y28493D01*
X203503Y28422D01*
X203414Y28358D01*
X203383Y28319D01*
X203345Y28287D01*
X203282Y28197D01*
X203212Y28113D01*
X203190Y28068D01*
X203162Y28027D01*
X203123Y27924D01*
X203076Y27825D01*
X203067Y27776D01*
X203049Y27730D01*
X203037Y27620D01*
X203016Y27513D01*
X203019Y27463D01*
X203014Y27414D01*
X203029Y27305D01*
X203036Y27195D01*
X203051Y27148D01*
X203058Y27099D01*
X203110Y26946D01*
X203892Y25060D01*
X203906Y25035D01*
X203915Y25007D01*
X203985Y24897D01*
X204049Y24784D01*
X204070Y24763D01*
X204085Y24738D01*
X204180Y24649D01*
X204270Y24556D01*
X204296Y24540D01*
X204317Y24520D01*
X204431Y24457D01*
X204542Y24389D01*
X204570Y24381D01*
X204596Y24366D01*
X204722Y24334D01*
X204845Y24296D01*
X204875Y24294D01*
X204904Y24287D01*
X205064Y24277D01*
X205461Y24277D01*
X205461Y18506D01*
X205476Y18388D01*
X205483Y18269D01*
X205495Y18231D01*
X205501Y18191D01*
X205544Y18080D01*
X205581Y17967D01*
X205603Y17933D01*
X205618Y17895D01*
X205687Y17799D01*
X205751Y17698D01*
X205781Y17670D01*
X205804Y17638D01*
X205896Y17562D01*
X205983Y17480D01*
X206018Y17461D01*
X206049Y17435D01*
X206157Y17384D01*
X206261Y17327D01*
X206301Y17317D01*
X206337Y17299D01*
X206454Y17277D01*
X206569Y17247D01*
X206629Y17243D01*
X206649Y17240D01*
X206670Y17241D01*
X206730Y17237D01*
X209190Y17237D01*
X209308Y17252D01*
G37*
G36*
X190339Y33281D02*
X190339Y33281D01*
X190389Y33279D01*
X190496Y33301D01*
X190605Y33315D01*
X190651Y33333D01*
X190700Y33343D01*
X190799Y33391D01*
X190901Y33432D01*
X190941Y33461D01*
X190986Y33483D01*
X191069Y33554D01*
X191158Y33618D01*
X191190Y33657D01*
X191228Y33689D01*
X191291Y33779D01*
X191361Y33863D01*
X191382Y33908D01*
X191411Y33949D01*
X191450Y34052D01*
X191497Y34151D01*
X191506Y34200D01*
X191523Y34246D01*
X191536Y34356D01*
X191556Y34463D01*
X191553Y34513D01*
X191559Y34562D01*
X191543Y34671D01*
X191537Y34781D01*
X191521Y34828D01*
X191514Y34877D01*
X191462Y35030D01*
X191261Y35515D01*
X191261Y52369D01*
X192073Y54330D01*
X193430Y55686D01*
X193490Y55764D01*
X193558Y55836D01*
X193587Y55889D01*
X193624Y55937D01*
X193664Y56028D01*
X193712Y56115D01*
X193727Y56173D01*
X193751Y56229D01*
X193766Y56327D01*
X193791Y56423D01*
X193797Y56523D01*
X193801Y56543D01*
X193799Y56555D01*
X193801Y56583D01*
X193801Y57209D01*
X193789Y57307D01*
X193786Y57406D01*
X193769Y57464D01*
X193761Y57524D01*
X193725Y57616D01*
X193697Y57711D01*
X193667Y57763D01*
X193644Y57820D01*
X193586Y57900D01*
X193536Y57985D01*
X193470Y58061D01*
X193458Y58077D01*
X193448Y58085D01*
X193430Y58106D01*
X192778Y58758D01*
X192700Y58818D01*
X192628Y58886D01*
X192575Y58915D01*
X192527Y58952D01*
X192436Y58992D01*
X192349Y59040D01*
X192291Y59055D01*
X192235Y59079D01*
X192137Y59094D01*
X192041Y59119D01*
X191941Y59125D01*
X191921Y59129D01*
X191909Y59127D01*
X191881Y59129D01*
X191257Y59129D01*
X190050Y59629D01*
X190002Y59642D01*
X189957Y59663D01*
X189849Y59684D01*
X189743Y59713D01*
X189693Y59714D01*
X189644Y59723D01*
X189535Y59716D01*
X189425Y59718D01*
X189377Y59707D01*
X189327Y59704D01*
X189223Y59670D01*
X189116Y59644D01*
X189072Y59621D01*
X189025Y59605D01*
X188932Y59547D01*
X188835Y59495D01*
X188798Y59462D01*
X188756Y59435D01*
X188681Y59355D01*
X188599Y59281D01*
X188572Y59240D01*
X188538Y59204D01*
X188485Y59108D01*
X188425Y59016D01*
X188408Y58969D01*
X188384Y58925D01*
X188357Y58819D01*
X188321Y58715D01*
X188317Y58665D01*
X188305Y58617D01*
X188295Y58457D01*
X188295Y34544D01*
X188310Y34426D01*
X188317Y34307D01*
X188330Y34269D01*
X188335Y34228D01*
X188379Y34117D01*
X188415Y34005D01*
X188437Y33970D01*
X188452Y33933D01*
X188521Y33837D01*
X188585Y33736D01*
X188615Y33708D01*
X188638Y33675D01*
X188730Y33599D01*
X188817Y33518D01*
X188852Y33498D01*
X188883Y33473D01*
X188991Y33422D01*
X189095Y33364D01*
X189135Y33354D01*
X189171Y33337D01*
X189288Y33315D01*
X189403Y33285D01*
X189463Y33281D01*
X189483Y33277D01*
X189504Y33279D01*
X189564Y33275D01*
X190290Y33275D01*
X190339Y33281D01*
G37*
G36*
X110360Y67702D02*
X110360Y67702D01*
X110499Y67715D01*
X110518Y67722D01*
X110538Y67725D01*
X110667Y67776D01*
X110798Y67823D01*
X110815Y67834D01*
X110834Y67842D01*
X110946Y67923D01*
X111061Y68001D01*
X111075Y68017D01*
X111091Y68028D01*
X111180Y68136D01*
X111272Y68240D01*
X111281Y68258D01*
X111294Y68273D01*
X111353Y68399D01*
X111416Y68523D01*
X111421Y68543D01*
X111430Y68561D01*
X111456Y68697D01*
X111486Y68833D01*
X111486Y68854D01*
X111489Y68873D01*
X111481Y69012D01*
X111476Y69151D01*
X111471Y69171D01*
X111470Y69191D01*
X111427Y69323D01*
X111388Y69457D01*
X111378Y69474D01*
X111372Y69493D01*
X111297Y69611D01*
X111227Y69731D01*
X111208Y69752D01*
X111201Y69762D01*
X111186Y69776D01*
X111120Y69851D01*
X108755Y72216D01*
X108755Y75582D01*
X108740Y75700D01*
X108733Y75819D01*
X108720Y75857D01*
X108715Y75898D01*
X108672Y76008D01*
X108635Y76121D01*
X108613Y76156D01*
X108598Y76193D01*
X108529Y76289D01*
X108465Y76390D01*
X108435Y76418D01*
X108412Y76451D01*
X108320Y76527D01*
X108233Y76608D01*
X108198Y76628D01*
X108167Y76653D01*
X108059Y76704D01*
X107955Y76762D01*
X107915Y76772D01*
X107879Y76789D01*
X107762Y76811D01*
X107647Y76841D01*
X107587Y76845D01*
X107567Y76849D01*
X107546Y76847D01*
X107486Y76851D01*
X105931Y76851D01*
X104117Y77603D01*
X104108Y77605D01*
X104100Y77610D01*
X103954Y77647D01*
X103810Y77687D01*
X103801Y77687D01*
X103792Y77689D01*
X103631Y77699D01*
X98630Y77699D01*
X98512Y77684D01*
X98393Y77677D01*
X98355Y77664D01*
X98315Y77659D01*
X98204Y77616D01*
X98091Y77579D01*
X98057Y77557D01*
X98019Y77542D01*
X97923Y77473D01*
X97822Y77409D01*
X97794Y77379D01*
X97762Y77356D01*
X97686Y77264D01*
X97604Y77177D01*
X97585Y77142D01*
X97559Y77111D01*
X97508Y77003D01*
X97451Y76899D01*
X97441Y76859D01*
X97423Y76823D01*
X97401Y76706D01*
X97371Y76591D01*
X97367Y76531D01*
X97364Y76511D01*
X97365Y76490D01*
X97361Y76430D01*
X97361Y73970D01*
X97376Y73852D01*
X97383Y73733D01*
X97396Y73695D01*
X97401Y73654D01*
X97445Y73544D01*
X97481Y73431D01*
X97503Y73396D01*
X97518Y73359D01*
X97588Y73262D01*
X97651Y73162D01*
X97681Y73134D01*
X97705Y73101D01*
X97796Y73025D01*
X97883Y72944D01*
X97918Y72924D01*
X97950Y72899D01*
X98057Y72848D01*
X98162Y72790D01*
X98201Y72780D01*
X98237Y72763D01*
X98354Y72741D01*
X98470Y72711D01*
X98530Y72707D01*
X98550Y72703D01*
X98570Y72705D01*
X98630Y72701D01*
X104901Y72701D01*
X104901Y69937D01*
X104725Y69283D01*
X104708Y69158D01*
X104685Y69034D01*
X104687Y69001D01*
X104682Y68967D01*
X104697Y68842D01*
X104705Y68717D01*
X104715Y68685D01*
X104719Y68652D01*
X104764Y68534D01*
X104803Y68415D01*
X104821Y68386D01*
X104833Y68355D01*
X104906Y68252D01*
X104973Y68146D01*
X104997Y68123D01*
X105017Y68095D01*
X105113Y68014D01*
X105204Y67928D01*
X105234Y67912D01*
X105260Y67890D01*
X105373Y67835D01*
X105483Y67774D01*
X105515Y67766D01*
X105546Y67751D01*
X105669Y67726D01*
X105791Y67695D01*
X105839Y67692D01*
X105858Y67688D01*
X105879Y67689D01*
X105951Y67685D01*
X110223Y67685D01*
X110360Y67702D01*
G37*
%LPC*%
G36*
X17223Y64079D02*
X17223Y64079D01*
X17223Y72541D01*
X24447Y72541D01*
X24956Y72404D01*
X25413Y72141D01*
X25785Y71769D01*
X26048Y71312D01*
X26185Y70803D01*
X26185Y64079D01*
X17223Y64079D01*
G37*
%LPD*%
%LPC*%
G36*
X17223Y50539D02*
X17223Y50539D01*
X17223Y59001D01*
X26185Y59001D01*
X26185Y52277D01*
X26048Y51768D01*
X25785Y51311D01*
X25413Y50939D01*
X24956Y50676D01*
X24447Y50539D01*
X17223Y50539D01*
G37*
%LPD*%
%LPC*%
G36*
X225819Y44579D02*
X225819Y44579D01*
X225819Y49081D01*
X229083Y49081D01*
X229592Y48944D01*
X230099Y48652D01*
X230186Y48575D01*
X230222Y48557D01*
X230254Y48532D01*
X230363Y48485D01*
X230469Y48431D01*
X230509Y48422D01*
X230546Y48406D01*
X230663Y48387D01*
X230779Y48361D01*
X230820Y48362D01*
X230860Y48356D01*
X230979Y48367D01*
X231097Y48371D01*
X231136Y48382D01*
X231176Y48386D01*
X231288Y48426D01*
X231403Y48459D01*
X231438Y48480D01*
X231476Y48493D01*
X231574Y48560D01*
X231677Y48621D01*
X231722Y48660D01*
X231739Y48672D01*
X231752Y48687D01*
X231798Y48727D01*
X232032Y48961D01*
X232488Y49224D01*
X232997Y49361D01*
X236261Y49361D01*
X236261Y44859D01*
X232090Y44859D01*
X231972Y44844D01*
X231853Y44837D01*
X231815Y44824D01*
X231774Y44819D01*
X231664Y44776D01*
X231551Y44739D01*
X231516Y44717D01*
X231479Y44702D01*
X231383Y44633D01*
X231298Y44579D01*
X225819Y44579D01*
G37*
%LPD*%
%LPC*%
G36*
X121223Y13131D02*
X121223Y13131D01*
X121223Y19133D01*
X125225Y19133D01*
X125225Y14869D01*
X125088Y14360D01*
X124825Y13903D01*
X124453Y13531D01*
X123996Y13268D01*
X123487Y13131D01*
X121223Y13131D01*
G37*
%LPD*%
G36*
X126779Y87328D02*
X126779Y87328D01*
X126917Y87336D01*
X126936Y87343D01*
X126956Y87344D01*
X127088Y87392D01*
X127220Y87434D01*
X127237Y87445D01*
X127256Y87452D01*
X127371Y87530D01*
X127488Y87604D01*
X127502Y87619D01*
X127519Y87631D01*
X127611Y87735D01*
X127706Y87836D01*
X127716Y87854D01*
X127729Y87869D01*
X127793Y87993D01*
X127860Y88115D01*
X127865Y88134D01*
X127874Y88152D01*
X127904Y88288D01*
X127939Y88423D01*
X127941Y88451D01*
X127944Y88463D01*
X127943Y88483D01*
X127949Y88583D01*
X127949Y93276D01*
X127941Y93345D01*
X127942Y93414D01*
X127921Y93502D01*
X127910Y93592D01*
X127884Y93656D01*
X127868Y93723D01*
X127826Y93803D01*
X127793Y93888D01*
X127752Y93943D01*
X127720Y94004D01*
X127619Y94130D01*
X127619Y94131D01*
X127612Y94137D01*
X127606Y94145D01*
X127605Y94145D01*
X127490Y94241D01*
X127377Y94337D01*
X127368Y94342D01*
X127360Y94348D01*
X127226Y94412D01*
X127092Y94477D01*
X127082Y94479D01*
X127073Y94484D01*
X126926Y94512D01*
X126780Y94542D01*
X126770Y94542D01*
X126760Y94543D01*
X126611Y94534D01*
X126463Y94527D01*
X126453Y94524D01*
X126443Y94524D01*
X126301Y94478D01*
X126159Y94434D01*
X126150Y94429D01*
X126140Y94426D01*
X126014Y94346D01*
X125887Y94268D01*
X125880Y94261D01*
X125872Y94256D01*
X125770Y94147D01*
X125666Y94040D01*
X125661Y94031D01*
X125654Y94024D01*
X125582Y93894D01*
X125508Y93764D01*
X125505Y93754D01*
X125500Y93745D01*
X125463Y93602D01*
X125423Y93457D01*
X125423Y93447D01*
X125421Y93437D01*
X125411Y93277D01*
X125411Y88584D01*
X125423Y88485D01*
X125426Y88386D01*
X125443Y88328D01*
X125450Y88268D01*
X125487Y88176D01*
X125514Y88081D01*
X125545Y88029D01*
X125567Y87972D01*
X125626Y87892D01*
X125676Y87807D01*
X125742Y87731D01*
X125754Y87715D01*
X125755Y87715D01*
X125764Y87707D01*
X125782Y87686D01*
X125783Y87686D01*
X125893Y87600D01*
X126000Y87512D01*
X126018Y87503D01*
X126034Y87491D01*
X126162Y87435D01*
X126287Y87376D01*
X126307Y87373D01*
X126326Y87364D01*
X126464Y87343D01*
X126600Y87317D01*
X126620Y87318D01*
X126640Y87315D01*
X126779Y87328D01*
G37*
%LPC*%
G36*
X14683Y61539D02*
X14683Y61539D01*
X14683Y61541D01*
X14685Y61541D01*
X14685Y61539D01*
X14683Y61539D01*
G37*
%LPD*%
D10*
X271956Y10864D03*
X288956Y10864D03*
X238760Y42360D03*
X255760Y42360D03*
X223320Y42080D03*
X206320Y42080D03*
D11*
X107320Y58120D03*
X107320Y41120D03*
D10*
X272396Y29372D03*
X289396Y29372D03*
X239548Y17544D03*
X256548Y17544D03*
X118320Y78900D03*
X135320Y78900D03*
X97400Y75200D03*
X80400Y75200D03*
X224960Y17276D03*
X207960Y17276D03*
D12*
X80140Y138280D03*
X98140Y138280D03*
X137224Y21132D03*
X119224Y21132D03*
D13*
X106441Y8980D03*
X106441Y18480D03*
X106441Y27980D03*
X80439Y27980D03*
X80439Y8980D03*
D14*
X46420Y39720D03*
X9420Y39720D03*
D15*
X84850Y108370D03*
X84850Y102710D03*
X90510Y108370D03*
X90510Y102710D03*
X87680Y111200D03*
X93340Y111200D03*
X82020Y111200D03*
X93340Y105540D03*
X82020Y105540D03*
X87680Y99880D03*
X93340Y99880D03*
X82020Y99880D03*
D16*
X283592Y177100D03*
X283592Y157100D03*
D17*
X35973Y149356D02*
X35973Y142356D01*
X28973Y142356D01*
X28973Y149356D01*
X35973Y149356D01*
X35973Y145206D02*
X28973Y145206D01*
X28973Y148056D02*
X35973Y148056D01*
X53513Y149356D02*
X53513Y142356D01*
X46513Y142356D01*
X46513Y149356D01*
X53513Y149356D01*
X53513Y145206D02*
X46513Y145206D01*
X46513Y148056D02*
X53513Y148056D01*
D18*
X109055Y112820D03*
X109055Y107820D03*
X109055Y102820D03*
X109055Y97820D03*
D19*
X126680Y95195D03*
X121680Y95195D03*
X116680Y95195D03*
D18*
X134305Y112820D03*
X134305Y107820D03*
X134305Y102820D03*
X134305Y97820D03*
D19*
X126680Y115320D03*
X121680Y115320D03*
X116680Y115320D03*
D10*
X118786Y147995D03*
X135786Y147995D03*
D11*
X62220Y10080D03*
X62220Y27080D03*
D10*
X166276Y175276D03*
X183276Y175276D03*
X123868Y41940D03*
X140868Y41940D03*
X140700Y57900D03*
X123700Y57900D03*
D11*
X62840Y91780D03*
X62840Y74780D03*
X63120Y122980D03*
X63120Y105980D03*
D10*
X270360Y61872D03*
X287360Y61872D03*
X273192Y46280D03*
X290192Y46280D03*
D20*
X200730Y165190D02*
X194830Y165190D01*
X200730Y165190D02*
X200730Y164290D01*
X194830Y164290D01*
X194830Y165190D01*
X194830Y160190D02*
X200730Y160190D01*
X200730Y159290D01*
X194830Y159290D01*
X194830Y160190D01*
X194830Y155190D02*
X200730Y155190D01*
X200730Y154290D01*
X194830Y154290D01*
X194830Y155190D01*
X194830Y150190D02*
X200730Y150190D01*
X200730Y149290D01*
X194830Y149290D01*
X194830Y150190D01*
X194830Y145190D02*
X200730Y145190D01*
X200730Y144290D01*
X194830Y144290D01*
X194830Y145190D01*
X194830Y140190D02*
X200730Y140190D01*
X200730Y139290D01*
X194830Y139290D01*
X194830Y140190D01*
X194830Y134290D02*
X200730Y134290D01*
X194830Y134290D02*
X194830Y135190D01*
X200730Y135190D01*
X200730Y134290D01*
X200730Y129290D02*
X194830Y129290D01*
X194830Y130190D01*
X200730Y130190D01*
X200730Y129290D01*
X200730Y124290D02*
X194830Y124290D01*
X194830Y125190D01*
X200730Y125190D01*
X200730Y124290D01*
X200730Y119290D02*
X194830Y119290D01*
X194830Y120190D01*
X200730Y120190D01*
X200730Y119290D01*
X200730Y114290D02*
X194830Y114290D01*
X194830Y115190D01*
X200730Y115190D01*
X200730Y114290D01*
X206330Y108690D02*
X206330Y102790D01*
X206330Y108690D02*
X207230Y108690D01*
X207230Y102790D01*
X206330Y102790D01*
X206330Y104785D02*
X207230Y104785D01*
X207230Y106780D02*
X206330Y106780D01*
X211330Y108690D02*
X211330Y102790D01*
X211330Y108690D02*
X212230Y108690D01*
X212230Y102790D01*
X211330Y102790D01*
X211330Y104785D02*
X212230Y104785D01*
X212230Y106780D02*
X211330Y106780D01*
X216330Y108690D02*
X216330Y102790D01*
X216330Y108690D02*
X217230Y108690D01*
X217230Y102790D01*
X216330Y102790D01*
X216330Y104785D02*
X217230Y104785D01*
X217230Y106780D02*
X216330Y106780D01*
X221330Y108690D02*
X221330Y102790D01*
X221330Y108690D02*
X222230Y108690D01*
X222230Y102790D01*
X221330Y102790D01*
X221330Y104785D02*
X222230Y104785D01*
X222230Y106780D02*
X221330Y106780D01*
X226330Y108690D02*
X226330Y102790D01*
X226330Y108690D02*
X227230Y108690D01*
X227230Y102790D01*
X226330Y102790D01*
X226330Y104785D02*
X227230Y104785D01*
X227230Y106780D02*
X226330Y106780D01*
X231330Y108690D02*
X231330Y102790D01*
X231330Y108690D02*
X232230Y108690D01*
X232230Y102790D01*
X231330Y102790D01*
X231330Y104785D02*
X232230Y104785D01*
X232230Y106780D02*
X231330Y106780D01*
X237230Y108690D02*
X237230Y102790D01*
X236330Y102790D01*
X236330Y108690D01*
X237230Y108690D01*
X237230Y104785D02*
X236330Y104785D01*
X236330Y106780D02*
X237230Y106780D01*
X242230Y108690D02*
X242230Y102790D01*
X241330Y102790D01*
X241330Y108690D01*
X242230Y108690D01*
X242230Y104785D02*
X241330Y104785D01*
X241330Y106780D02*
X242230Y106780D01*
X247230Y108690D02*
X247230Y102790D01*
X246330Y102790D01*
X246330Y108690D01*
X247230Y108690D01*
X247230Y104785D02*
X246330Y104785D01*
X246330Y106780D02*
X247230Y106780D01*
X252230Y108690D02*
X252230Y102790D01*
X251330Y102790D01*
X251330Y108690D01*
X252230Y108690D01*
X252230Y104785D02*
X251330Y104785D01*
X251330Y106780D02*
X252230Y106780D01*
X257230Y108690D02*
X257230Y102790D01*
X256330Y102790D01*
X256330Y108690D01*
X257230Y108690D01*
X257230Y104785D02*
X256330Y104785D01*
X256330Y106780D02*
X257230Y106780D01*
X262830Y114290D02*
X268730Y114290D01*
X262830Y114290D02*
X262830Y115190D01*
X268730Y115190D01*
X268730Y114290D01*
X268730Y119290D02*
X262830Y119290D01*
X262830Y120190D01*
X268730Y120190D01*
X268730Y119290D01*
X268730Y124290D02*
X262830Y124290D01*
X262830Y125190D01*
X268730Y125190D01*
X268730Y124290D01*
X268730Y129290D02*
X262830Y129290D01*
X262830Y130190D01*
X268730Y130190D01*
X268730Y129290D01*
X268730Y134290D02*
X262830Y134290D01*
X262830Y135190D01*
X268730Y135190D01*
X268730Y134290D01*
X268730Y139290D02*
X262830Y139290D01*
X262830Y140190D01*
X268730Y140190D01*
X268730Y139290D01*
X268730Y145190D02*
X262830Y145190D01*
X268730Y145190D02*
X268730Y144290D01*
X262830Y144290D01*
X262830Y145190D01*
X262830Y150190D02*
X268730Y150190D01*
X268730Y149290D01*
X262830Y149290D01*
X262830Y150190D01*
X262830Y155190D02*
X268730Y155190D01*
X268730Y154290D01*
X262830Y154290D01*
X262830Y155190D01*
X262830Y160190D02*
X268730Y160190D01*
X268730Y159290D01*
X262830Y159290D01*
X262830Y160190D01*
X262830Y165190D02*
X268730Y165190D01*
X268730Y164290D01*
X262830Y164290D01*
X262830Y165190D01*
X257230Y170790D02*
X257230Y176690D01*
X257230Y170790D02*
X256330Y170790D01*
X256330Y176690D01*
X257230Y176690D01*
X257230Y172785D02*
X256330Y172785D01*
X256330Y174780D02*
X257230Y174780D01*
X252230Y176690D02*
X252230Y170790D01*
X251330Y170790D01*
X251330Y176690D01*
X252230Y176690D01*
X252230Y172785D02*
X251330Y172785D01*
X251330Y174780D02*
X252230Y174780D01*
X247230Y176690D02*
X247230Y170790D01*
X246330Y170790D01*
X246330Y176690D01*
X247230Y176690D01*
X247230Y172785D02*
X246330Y172785D01*
X246330Y174780D02*
X247230Y174780D01*
X242230Y176690D02*
X242230Y170790D01*
X241330Y170790D01*
X241330Y176690D01*
X242230Y176690D01*
X242230Y172785D02*
X241330Y172785D01*
X241330Y174780D02*
X242230Y174780D01*
X237230Y176690D02*
X237230Y170790D01*
X236330Y170790D01*
X236330Y176690D01*
X237230Y176690D01*
X237230Y172785D02*
X236330Y172785D01*
X236330Y174780D02*
X237230Y174780D01*
X232230Y176690D02*
X232230Y170790D01*
X231330Y170790D01*
X231330Y176690D01*
X232230Y176690D01*
X232230Y172785D02*
X231330Y172785D01*
X231330Y174780D02*
X232230Y174780D01*
X226330Y176690D02*
X226330Y170790D01*
X226330Y176690D02*
X227230Y176690D01*
X227230Y170790D01*
X226330Y170790D01*
X226330Y172785D02*
X227230Y172785D01*
X227230Y174780D02*
X226330Y174780D01*
X221330Y176690D02*
X221330Y170790D01*
X221330Y176690D02*
X222230Y176690D01*
X222230Y170790D01*
X221330Y170790D01*
X221330Y172785D02*
X222230Y172785D01*
X222230Y174780D02*
X221330Y174780D01*
X216330Y176690D02*
X216330Y170790D01*
X216330Y176690D02*
X217230Y176690D01*
X217230Y170790D01*
X216330Y170790D01*
X216330Y172785D02*
X217230Y172785D01*
X217230Y174780D02*
X216330Y174780D01*
X211330Y176690D02*
X211330Y170790D01*
X211330Y176690D02*
X212230Y176690D01*
X212230Y170790D01*
X211330Y170790D01*
X211330Y172785D02*
X212230Y172785D01*
X212230Y174780D02*
X211330Y174780D01*
X206330Y176690D02*
X206330Y170790D01*
X206330Y176690D02*
X207230Y176690D01*
X207230Y170790D01*
X206330Y170790D01*
X206330Y172785D02*
X207230Y172785D01*
X207230Y174780D02*
X206330Y174780D01*
D21*
X231780Y139740D03*
D13*
X62979Y59480D03*
X62979Y49980D03*
X62979Y40480D03*
X88981Y40480D03*
X88981Y59480D03*
D22*
X41184Y114540D03*
X41184Y88540D03*
X41184Y108040D03*
X41184Y101540D03*
X41184Y95040D03*
D23*
X14684Y141540D03*
X14684Y61540D03*
D24*
X14684Y114240D03*
X14684Y88840D03*
D25*
X212180Y68180D03*
X249180Y68180D03*
D11*
X155820Y20080D03*
X155820Y37080D03*
X155920Y67180D03*
X155920Y50180D03*
D26*
X172960Y109420D03*
X147560Y109420D03*
X172960Y134820D03*
X147560Y134820D03*
X172960Y160220D03*
X147560Y160220D03*
D27*
X15748Y184404D03*
X41148Y184404D03*
X66548Y184404D03*
X91948Y184404D03*
X117348Y184404D03*
D28*
X106441Y27980D02*
X96400Y27980D01*
X93460Y25040D01*
X93460Y18540D01*
X92960Y18040D01*
D29*
X92960Y18040D03*
D30*
X9420Y33760D02*
X9420Y39720D01*
X9420Y33760D02*
X15240Y27940D01*
X49276Y27940D01*
D29*
X49276Y27940D03*
X202184Y7112D03*
D28*
X92964Y18036D02*
X92960Y18040D01*
D30*
X160528Y7112D02*
X202184Y7112D01*
D29*
X160528Y7112D03*
X292862Y73152D03*
D30*
X292862Y147830D02*
X283592Y157100D01*
X292862Y147830D02*
X292862Y73152D01*
D28*
X138240Y25844D02*
X137224Y21132D01*
X138240Y25844D02*
X132588Y31496D01*
X124460Y31496D01*
X109957Y31496D01*
X106441Y27980D01*
X123868Y32088D02*
X123868Y41940D01*
X123868Y32088D02*
X124460Y31496D01*
X14540Y140480D02*
X14684Y141540D01*
X121680Y95195D02*
X121700Y95175D01*
X121700Y90940D01*
X126680Y90940D01*
X126680Y95195D01*
D31*
X93340Y99880D02*
X87680Y99880D01*
X87680Y111200D01*
D28*
X231484Y139844D02*
X251780Y160140D01*
X231484Y139844D02*
X216768Y139844D01*
X212140Y144980D01*
X198020Y144980D01*
X197780Y144740D01*
X211780Y146120D02*
X211780Y173740D01*
X211780Y146120D02*
X212140Y144980D01*
X256380Y164740D02*
X265780Y164740D01*
X256380Y164740D02*
X251780Y160140D01*
X251780Y173740D01*
X221780Y130140D02*
X221780Y105740D01*
X221780Y130140D02*
X231484Y139844D01*
X258620Y114740D02*
X265780Y114740D01*
X130020Y90940D02*
X126680Y90940D01*
X130020Y90940D02*
X133440Y87520D01*
X133440Y80780D01*
X135320Y78900D01*
X133660Y77240D01*
D31*
X93340Y94880D02*
X93340Y99880D01*
X93340Y94880D02*
X91440Y92980D01*
X91440Y87900D01*
X82020Y105540D02*
X82020Y111200D01*
X87680Y111200D01*
D28*
X223320Y42080D02*
X231140Y42080D01*
X238480Y42080D01*
X238760Y42360D01*
D30*
X41184Y88540D02*
X40020Y87900D01*
X33020Y87900D01*
X30480Y85360D01*
D28*
X14540Y140480D02*
X14160Y141240D01*
X104140Y75200D02*
X110760Y68580D01*
X104140Y75200D02*
X97400Y75200D01*
D31*
X97400Y81940D01*
X91440Y87900D01*
D28*
X207876Y18800D02*
X207960Y17276D01*
X256540Y32004D02*
X259588Y28956D01*
D29*
X259588Y28956D03*
D28*
X239548Y17544D02*
X239548Y13488D01*
X234696Y8636D01*
X213360Y8636D01*
X209296Y12700D01*
X206756Y17464D01*
X207960Y17276D01*
D29*
X213360Y27432D03*
D28*
X207772Y21152D01*
X207960Y17276D01*
X231140Y32004D02*
X231140Y42080D01*
D29*
X231140Y32004D03*
D28*
X256540Y32004D01*
X62979Y49980D02*
X52128Y49980D01*
X50800Y51308D01*
D29*
X50800Y51308D03*
X30480Y61468D03*
D30*
X13232Y61468D01*
D28*
X14684Y61540D01*
D30*
X30480Y61468D02*
X30480Y85360D01*
X31397Y144780D02*
X32473Y145856D01*
D28*
X31397Y144780D02*
X15240Y144780D01*
X13160Y142700D01*
D30*
X14684Y141540D01*
X14540Y140480D02*
X25480Y129540D01*
X30480Y129540D01*
D29*
X30480Y129540D03*
D30*
X55452Y10080D02*
X62220Y10080D01*
X55452Y10080D02*
X50800Y14732D01*
D29*
X50800Y14732D03*
X231484Y139844D03*
D28*
X258620Y114740D01*
D30*
X117348Y184404D02*
X102616Y169672D01*
X30480Y169672D01*
X13160Y152352D01*
X14684Y141540D01*
D28*
X98140Y138280D02*
X103116Y138176D01*
X107696Y142748D01*
D29*
X107696Y142748D03*
D28*
X259588Y30988D02*
X259588Y28956D01*
X271980Y28956D02*
X272396Y29372D01*
X271980Y28956D02*
X259588Y28956D01*
X264160Y55672D02*
X270360Y61872D01*
X264160Y55672D02*
X264160Y33528D01*
X259588Y28956D01*
D29*
X127000Y68580D03*
D28*
X123700Y65280D01*
X123700Y57900D01*
X127000Y68580D02*
X135320Y76900D01*
X135320Y78900D01*
X127000Y68580D02*
X110760Y68580D01*
X123700Y57900D02*
X107320Y41520D01*
X107320Y41120D01*
X106441Y18480D02*
X117588Y18480D01*
X119224Y21132D01*
D29*
X248412Y8128D03*
D28*
X268712Y7620D02*
X268825Y7622D01*
X268938Y7628D01*
X269051Y7638D01*
X269163Y7652D01*
X269275Y7669D01*
X269386Y7691D01*
X269497Y7716D01*
X269606Y7746D01*
X269714Y7779D01*
X269822Y7816D01*
X269927Y7856D01*
X270031Y7900D01*
X270134Y7948D01*
X270235Y8000D01*
X270334Y8055D01*
X270431Y8113D01*
X270526Y8175D01*
X270619Y8240D01*
X270709Y8308D01*
X270797Y8379D01*
X270883Y8453D01*
X270965Y8530D01*
X271046Y8611D01*
X271123Y8693D01*
X271197Y8779D01*
X271268Y8867D01*
X271336Y8957D01*
X271401Y9050D01*
X271463Y9145D01*
X271521Y9242D01*
X271576Y9341D01*
X271628Y9442D01*
X271676Y9545D01*
X271720Y9649D01*
X271760Y9754D01*
X271797Y9862D01*
X271830Y9970D01*
X271860Y10079D01*
X271885Y10190D01*
X271907Y10301D01*
X271924Y10413D01*
X271938Y10525D01*
X271948Y10638D01*
X271954Y10751D01*
X271956Y10864D01*
X268712Y7620D02*
X248412Y7620D01*
X248412Y8128D01*
X122236Y18480D02*
X106441Y18480D01*
X122236Y18480D02*
X128524Y12192D01*
D29*
X128524Y12192D03*
X192024Y57404D03*
D28*
X192024Y33528D01*
X196088Y29464D01*
X211328Y29464D01*
X213360Y27432D01*
D29*
X211000Y96000D03*
D28*
X211780Y96940D01*
X211780Y105740D01*
X176640Y160220D02*
X172960Y160220D01*
X176640Y160220D02*
X179460Y163040D01*
X179460Y171460D01*
X183276Y175276D01*
D29*
X187614Y136034D03*
D28*
X189670Y134740D01*
X197780Y134740D01*
D29*
X153460Y153040D03*
D28*
X49960Y114540D02*
X41184Y114540D01*
X49960Y114540D02*
X52460Y117040D01*
X52460Y129540D01*
X50460Y132040D01*
D29*
X50460Y132040D03*
X48260Y65040D03*
D28*
X58919Y59540D02*
X62979Y59480D01*
X80240Y27980D02*
X80439Y27980D01*
X80240Y27980D02*
X78740Y29480D01*
X78740Y19320D01*
D29*
X78740Y19320D03*
D28*
X62979Y59480D02*
X62499Y59960D01*
X62979Y40480D02*
X63500Y39959D01*
X63500Y39640D01*
X62979Y59480D02*
X63919Y59540D01*
D30*
X62219Y39720D02*
X46420Y39720D01*
D28*
X62219Y39720D02*
X62979Y40480D01*
X43180Y59452D02*
X48260Y65040D01*
X43180Y59452D02*
X43180Y41052D01*
X46420Y39720D01*
X56700Y138280D02*
X80140Y138280D01*
X56700Y138280D02*
X50460Y132040D01*
X53760Y59540D02*
X63919Y59540D01*
X53760Y59540D02*
X48260Y65040D01*
X76960Y120540D02*
X94960Y120540D01*
X197580Y149540D02*
X197780Y149740D01*
X76960Y120540D02*
X72460Y116040D01*
X72460Y96860D01*
X68580Y92980D01*
X64040Y92980D01*
X62840Y91780D01*
X175460Y146040D02*
X180820Y151400D01*
X175460Y146040D02*
X165460Y146040D01*
X180820Y151400D02*
X188960Y151400D01*
X190620Y149740D01*
X197780Y149740D01*
X165460Y146040D02*
X159460Y140040D01*
D29*
X94960Y120540D03*
X156460Y140040D03*
D28*
X159460Y140040D01*
X63120Y122980D02*
X62720Y125040D01*
X63120Y122980D02*
X65060Y125040D01*
X192240Y154740D02*
X197780Y154740D01*
X192240Y154740D02*
X190440Y156540D01*
X172960Y150540D02*
X163460Y150540D01*
X172960Y150540D02*
X178960Y156540D01*
X190440Y156540D01*
X163460Y150540D02*
X159460Y146540D01*
X87940Y125040D02*
X65060Y125040D01*
X87940Y125040D02*
X91440Y128540D01*
X102960Y128540D01*
X141460Y138540D02*
X149460Y146540D01*
X159460Y146540D01*
X112960Y138540D02*
X102960Y128540D01*
X112960Y138540D02*
X141460Y138540D01*
D29*
X113700Y123746D03*
D28*
X164720Y119740D02*
X197780Y119740D01*
X164720Y119740D02*
X158840Y125620D01*
X158840Y128160D01*
X152180Y134820D01*
D29*
X170286Y77066D03*
X154500Y93000D03*
D28*
X170286Y77066D01*
X152180Y134820D02*
X147560Y134820D01*
X116680Y120004D02*
X116680Y115320D01*
X116680Y120004D02*
X113700Y123746D01*
X180040Y124740D02*
X197780Y124740D01*
X180040Y124740D02*
X172960Y131820D01*
X172960Y134820D01*
X121680Y115320D02*
X121500Y115500D01*
X121500Y123040D01*
X124500Y126040D01*
D29*
X124500Y126040D03*
D28*
X197580Y114540D02*
X197780Y114740D01*
X197580Y114540D02*
X177460Y114540D01*
X172960Y110040D01*
X172960Y109420D01*
X168580Y109420D02*
X154540Y123460D01*
D29*
X170500Y58120D03*
D28*
X170246Y39300D01*
D29*
X170246Y39300D03*
D28*
X168580Y109420D02*
X172960Y109420D01*
X154540Y123460D02*
X144780Y123460D01*
X142240Y126000D01*
X142240Y128540D01*
X139700Y131080D01*
X132080Y131080D01*
X129540Y133620D01*
X114300Y133620D01*
X106680Y126000D01*
X106680Y115195D01*
X109055Y112820D01*
X254900Y43220D02*
X255760Y42360D01*
X231960Y105740D02*
X231780Y105740D01*
X231960Y105740D02*
X231960Y89540D01*
X237960Y83540D01*
X245460Y83540D01*
X246960Y82040D01*
X246960Y70400D01*
X249180Y68180D01*
X255460Y42660D02*
X255760Y42360D01*
X254900Y43220D02*
X254900Y48900D01*
X248920Y54880D01*
X248920Y59960D01*
X249180Y60220D01*
X249180Y68180D01*
X69656Y145856D02*
X50013Y145856D01*
X69656Y145856D02*
X73660Y149860D01*
X113365Y149860D01*
D30*
X118786Y147995D01*
D29*
X135400Y123080D03*
X165960Y127660D03*
D28*
X180660Y131840D02*
X180660Y137320D01*
X180660Y131840D02*
X182960Y129540D01*
X197580Y129540D01*
X197780Y129740D01*
X168656Y141478D02*
X164960Y137820D01*
X168656Y141478D02*
X176366Y141614D01*
X180660Y137320D01*
D29*
X148360Y80280D03*
D28*
X164960Y128660D02*
X164960Y137820D01*
X164960Y128660D02*
X165960Y127660D01*
X127000Y115640D02*
X126680Y115320D01*
X127000Y115640D02*
X127000Y118380D01*
X131700Y123080D01*
X135400Y123080D01*
X148360Y80280D02*
X150220Y80280D01*
X155960Y74540D01*
X155960Y67220D01*
X155920Y67180D01*
D31*
X77060Y90560D02*
X77060Y113460D01*
D29*
X77060Y90560D03*
D31*
X93340Y111200D02*
X93320Y112220D01*
X93340Y111200D02*
X90510Y108370D01*
D28*
X216640Y173880D02*
X216780Y173740D01*
X116680Y95195D02*
X116680Y78900D01*
X118320Y78900D01*
X107460Y89480D02*
X110580Y92600D01*
X114085Y92600D01*
X116680Y95195D01*
D31*
X79140Y115540D02*
X77060Y113460D01*
X79140Y115540D02*
X90500Y115540D01*
X93340Y112700D01*
X93340Y111200D01*
D28*
X134305Y97820D02*
X140920Y97820D01*
X141060Y97680D01*
X140960Y97580D01*
X193014Y139740D02*
X197780Y139740D01*
D29*
X183460Y144040D03*
X141060Y90060D03*
D28*
X147624Y90060D01*
D29*
X170246Y68200D03*
D28*
X216748Y99686D02*
X216780Y105740D01*
D31*
X82020Y95520D02*
X77060Y90560D01*
X82020Y95520D02*
X82020Y99880D01*
D28*
X267444Y106548D02*
X273460Y112564D01*
D29*
X267444Y106548D03*
D28*
X220206Y96302D02*
X216748Y99686D01*
D29*
X220206Y96302D03*
D28*
X141060Y97680D02*
X141060Y90060D01*
D29*
X107460Y84540D03*
D28*
X107460Y89480D01*
X188714Y144040D02*
X193014Y139740D01*
X265780Y119740D02*
X271760Y119740D01*
X273460Y118040D01*
X273460Y112564D01*
D29*
X163032Y157492D03*
X192786Y66818D03*
D28*
X199960Y73992D01*
X199960Y85040D01*
X203460Y88540D01*
X219460Y88540D01*
X220206Y89540D01*
X220206Y96302D01*
X156820Y50080D02*
X155820Y37080D01*
X156820Y50080D02*
X155920Y50180D01*
X156920Y50500D01*
X163960Y57540D01*
X163960Y61660D01*
X170246Y68200D01*
X224960Y25564D02*
X224960Y17276D01*
X256548Y17544D02*
X256548Y22000D01*
X252984Y25564D01*
X224960Y25564D01*
X77060Y78540D02*
X77060Y90560D01*
X80460Y68400D02*
X81280Y67580D01*
X86360Y67580D01*
X88900Y65040D01*
X88900Y59561D01*
X88981Y59480D01*
X162560Y171560D02*
X166276Y175276D01*
X256540Y173980D02*
X256780Y173740D01*
X206780Y173740D02*
X206460Y173740D01*
X188714Y144040D02*
X183460Y144040D01*
X80460Y75140D02*
X80460Y68400D01*
X80460Y75140D02*
X80400Y75200D01*
X77060Y78540D01*
X256540Y173980D02*
X256540Y177800D01*
X259080Y180340D01*
X262880Y180340D01*
X262926Y180294D01*
D29*
X262926Y180294D03*
D28*
X216761Y174001D02*
X216640Y173880D01*
X206780Y173740D02*
X206780Y184257D01*
X216657Y174105D02*
X216761Y174001D01*
X216657Y174105D02*
X216657Y182585D01*
X214986Y184257D01*
X206780Y184257D01*
X168509Y183749D01*
X162560Y177800D01*
X162560Y171880D01*
X166276Y175276D01*
X216484Y34040D02*
X224960Y25564D01*
X289396Y29372D02*
X289396Y45484D01*
X290192Y46280D01*
D29*
X154940Y168148D03*
D28*
X154940Y165584D01*
X163032Y157492D01*
X162560Y171880D02*
X163908Y173228D01*
X165100Y173228D01*
X163908Y173228D02*
X160020Y173736D01*
X154940Y168148D01*
X289396Y29372D02*
X289396Y19812D01*
X289396Y11304D01*
X288956Y10864D01*
X258736Y19812D02*
X256548Y22000D01*
X258736Y19812D02*
X289396Y19812D01*
X199136Y34036D02*
X196596Y36576D01*
X199136Y34036D02*
X216480Y34036D01*
X216484Y34040D01*
X192532Y66548D02*
X192786Y66818D01*
X192532Y66548D02*
X199136Y59944D01*
X199136Y53848D01*
X196596Y51308D01*
X196596Y36576D01*
X145274Y107174D02*
X147560Y109420D01*
X145274Y107174D02*
X145288Y105664D01*
X145288Y103632D01*
X141060Y99404D01*
X141060Y97680D01*
X147624Y90060D02*
X169484Y68200D01*
X170246Y68200D01*
X226780Y89360D02*
X226780Y105740D01*
X226780Y89360D02*
X220960Y83540D01*
X213960Y83540D01*
X212460Y82040D01*
X212460Y68460D01*
X212180Y68180D01*
X205960Y42440D02*
X206320Y42080D01*
X205960Y42440D02*
X205960Y48540D01*
X212460Y55040D01*
X212460Y60540D01*
X212180Y60820D01*
X212180Y68180D01*
D29*
X151260Y101268D03*
X193920Y108040D03*
X99822Y89170D03*
D28*
X107640Y97820D02*
X109055Y97820D01*
D29*
X238460Y92540D03*
D28*
X236780Y94220D01*
X236780Y105740D01*
X193920Y108040D02*
X182920Y97040D01*
X164960Y97040D01*
X160224Y101268D02*
X151260Y101268D01*
X160224Y101268D02*
X164960Y97040D01*
X107640Y96988D02*
X107640Y97820D01*
X107640Y96988D02*
X99822Y89170D01*
X134305Y102820D02*
X138580Y102820D01*
X141060Y105300D01*
X167240Y102260D02*
X176628Y102260D01*
X182208Y107840D01*
D29*
X182208Y107840D03*
X246960Y95540D03*
D28*
X241780Y100720D01*
X241780Y105740D01*
X167240Y102260D02*
X152460Y117040D01*
X142960Y117040D01*
X140960Y115040D01*
X140960Y105400D01*
X141060Y105300D01*
X80439Y8980D02*
X73840Y8980D01*
X71120Y11700D01*
X71120Y21860D01*
X68580Y24400D01*
X64900Y24400D01*
X62220Y27080D01*
X88981Y40480D02*
X95900Y40480D01*
X98460Y43040D01*
X98500Y56540D01*
X100000Y58040D01*
X104740Y58040D01*
X107320Y58120D01*
X50980Y108040D02*
X41184Y108040D01*
X50980Y108040D02*
X53340Y105680D01*
X62820Y105680D01*
X63120Y105980D01*
X49860Y101540D02*
X41184Y101540D01*
X49860Y101540D02*
X53340Y98060D01*
X53340Y80280D01*
X55880Y75200D01*
X57340Y75200D01*
X62840Y74780D01*
X265780Y139740D02*
X265980Y139540D01*
D29*
X192540Y76320D03*
X258792Y86944D03*
D28*
X192540Y76320D02*
X192540Y76120D01*
X182960Y66540D01*
X155820Y20080D02*
X159136Y16764D01*
X182960Y34624D02*
X182960Y66540D01*
X182960Y34624D02*
X170180Y21844D01*
X157584Y21844D01*
X155820Y20080D01*
X258792Y86944D02*
X259884Y86360D01*
X267716Y86360D01*
X281940Y100584D01*
X281940Y116840D01*
X281960Y116860D01*
X270924Y139540D02*
X265980Y139540D01*
X281940Y128524D02*
X281940Y116840D01*
X281940Y128524D02*
X270924Y139540D01*
X206780Y105740D02*
X206780Y100860D01*
X204460Y98540D01*
X190960Y98540D01*
X178460Y86040D01*
D29*
X145160Y30948D03*
D28*
X140868Y35240D01*
X140868Y41940D01*
X140700Y39740D01*
X140700Y57900D01*
X178460Y36220D02*
X178460Y86040D01*
X178460Y36220D02*
X172720Y30480D01*
X167640Y30480D01*
X165608Y28956D01*
D29*
X165608Y28956D03*
D28*
X265780Y159740D02*
X270992Y159740D01*
X273812Y162560D01*
X273812Y167132D01*
X271272Y169672D01*
X271272Y183388D01*
X266700Y187960D01*
X259080Y187960D01*
X256032Y191008D01*
X234696Y191008D01*
X231648Y194056D01*
X140716Y194056D01*
X132080Y185420D01*
X132080Y151193D01*
X135786Y147995D01*
X265780Y129740D02*
X272620Y129740D01*
X277860Y124500D01*
X277860Y106068D01*
D29*
X265172Y93380D03*
X276860Y79772D03*
X196436Y22968D03*
D28*
X182372Y27940D02*
X171704Y17272D01*
X169672Y17272D01*
X167640Y15240D01*
D29*
X167640Y15240D03*
X146050Y11938D03*
D28*
X265172Y93380D02*
X277860Y106068D01*
X278368Y79772D02*
X276860Y79772D01*
X278368Y79772D02*
X284480Y73660D01*
X284480Y64752D01*
X287360Y61872D01*
X273192Y47704D02*
X273192Y46280D01*
X273192Y47704D02*
X287360Y61872D01*
X146050Y11938D02*
X139192Y5080D01*
X111760Y5080D01*
X107860Y8980D01*
X106441Y8980D01*
X182372Y27940D02*
X191464Y27940D01*
X196436Y22968D01*
D31*
X109055Y107820D02*
X104180Y107820D01*
X96934Y102710D02*
X90510Y102710D01*
X96934Y102710D02*
X100076Y99060D01*
D29*
X100076Y99060D03*
X100076Y111760D03*
D31*
X101256Y110744D01*
X104180Y107820D01*
X101470Y105540D02*
X93340Y105540D01*
X101470Y105540D02*
X103886Y103124D01*
X108751Y103124D01*
X109055Y102820D01*
D29*
X266964Y79492D03*
D28*
X267420Y80000D02*
X275960Y88032D01*
X267420Y80000D02*
X266964Y79492D01*
X275960Y88032D02*
X286512Y98584D01*
X272836Y144740D02*
X265780Y144740D01*
X272836Y144740D02*
X286512Y131064D01*
X286512Y98584D01*
D29*
X185928Y163068D03*
D28*
X188320Y164740D01*
X197780Y164740D01*
X265780Y149740D02*
X266020Y149980D01*
X265780Y149740D02*
X265980Y149540D01*
X274440Y149740D02*
X280924Y143256D01*
X285496Y143256D01*
D29*
X285496Y143256D03*
D28*
X274440Y149740D02*
X265780Y149740D01*
X246780Y173740D02*
X246780Y178708D01*
X251968Y183896D01*
D29*
X251968Y183896D03*
D28*
X242316Y184404D02*
X241780Y173740D01*
D29*
X242316Y184404D03*
D28*
X236780Y180796D02*
X236780Y173740D01*
X236780Y180796D02*
X233680Y183896D01*
X233680Y185420D01*
X229108Y189992D01*
X150876Y189992D01*
X139700Y178816D01*
D29*
X139700Y178816D03*
D28*
X231780Y179700D02*
X231780Y173740D01*
D29*
X226568Y182880D03*
D28*
X228600Y182880D02*
X231780Y179700D01*
X228600Y182880D02*
X226568Y182880D01*
M02*
