G04 EAGLE Gerber RS-274X export*
G75*
%MOMM*%
%FSLAX34Y34*%
%LPD*%
%INBottom Copper*%
%IPPOS*%
%AMOC8*
5,1,8,0,0,1.08239X$1,22.5*%
G01*
%ADD10C,1.422400*%
%ADD11R,1.350000X1.900000*%
%ADD12R,1.000000X1.200000*%
%ADD13R,1.350000X1.550000*%
%ADD14R,1.100000X0.850000*%
%ADD15R,1.100000X0.750000*%
%ADD16R,1.800000X1.170000*%
%ADD17C,0.764800*%
%ADD18C,1.879600*%
%ADD19C,0.724800*%
%ADD20C,0.304800*%
%ADD21C,0.254000*%
%ADD22C,0.152400*%

G36*
X73354Y3278D02*
X73354Y3278D01*
X73494Y3291D01*
X73513Y3298D01*
X73533Y3301D01*
X73662Y3352D01*
X73793Y3399D01*
X73809Y3410D01*
X73828Y3418D01*
X73941Y3499D01*
X74056Y3578D01*
X74069Y3593D01*
X74086Y3605D01*
X74174Y3712D01*
X74266Y3816D01*
X74276Y3834D01*
X74288Y3850D01*
X74348Y3975D01*
X74411Y4099D01*
X74415Y4119D01*
X74424Y4137D01*
X74450Y4274D01*
X74481Y4410D01*
X74480Y4430D01*
X74484Y4450D01*
X74475Y4588D01*
X74471Y4727D01*
X74465Y4747D01*
X74464Y4767D01*
X74421Y4899D01*
X74383Y5033D01*
X74372Y5050D01*
X74366Y5069D01*
X74292Y5187D01*
X74221Y5307D01*
X74203Y5328D01*
X74196Y5338D01*
X74181Y5352D01*
X74115Y5428D01*
X54999Y24544D01*
X54921Y24604D01*
X54848Y24672D01*
X54795Y24701D01*
X54748Y24738D01*
X54657Y24778D01*
X54570Y24826D01*
X54511Y24841D01*
X54456Y24865D01*
X54358Y24880D01*
X54262Y24905D01*
X54162Y24911D01*
X54142Y24915D01*
X54129Y24913D01*
X54101Y24915D01*
X54024Y24915D01*
X53926Y24903D01*
X53827Y24900D01*
X53769Y24883D01*
X53709Y24875D01*
X53617Y24839D01*
X53522Y24811D01*
X53470Y24781D01*
X53413Y24758D01*
X53333Y24700D01*
X53248Y24650D01*
X53172Y24584D01*
X53156Y24572D01*
X53148Y24562D01*
X53127Y24544D01*
X52179Y23595D01*
X50295Y22815D01*
X48257Y22815D01*
X46373Y23595D01*
X44931Y25037D01*
X44151Y26921D01*
X44151Y28959D01*
X44931Y30843D01*
X46373Y32285D01*
X48257Y33065D01*
X50295Y33065D01*
X52179Y32285D01*
X53127Y31336D01*
X53205Y31276D01*
X53277Y31208D01*
X53330Y31179D01*
X53378Y31142D01*
X53469Y31102D01*
X53556Y31054D01*
X53614Y31039D01*
X53670Y31015D01*
X53768Y31000D01*
X53864Y30975D01*
X53964Y30969D01*
X53984Y30965D01*
X53996Y30967D01*
X54024Y30965D01*
X57133Y30965D01*
X71803Y16294D01*
X71858Y16252D01*
X71907Y16202D01*
X71932Y16186D01*
X71952Y16167D01*
X72004Y16138D01*
X72054Y16099D01*
X72119Y16072D01*
X72178Y16035D01*
X72208Y16026D01*
X72231Y16014D01*
X72286Y15999D01*
X72346Y15973D01*
X72415Y15962D01*
X72482Y15942D01*
X72515Y15940D01*
X72539Y15934D01*
X72629Y15928D01*
X72660Y15923D01*
X72680Y15925D01*
X72700Y15924D01*
X72743Y15929D01*
X72800Y15927D01*
X72887Y15945D01*
X72977Y15953D01*
X73001Y15962D01*
X73016Y15964D01*
X73055Y15979D01*
X73111Y15991D01*
X73192Y16030D01*
X73276Y16061D01*
X73298Y16075D01*
X73311Y16081D01*
X73346Y16106D01*
X73397Y16131D01*
X73465Y16189D01*
X73539Y16239D01*
X73557Y16259D01*
X73569Y16268D01*
X73596Y16300D01*
X73639Y16337D01*
X73691Y16410D01*
X73750Y16478D01*
X73761Y16500D01*
X73772Y16513D01*
X73790Y16552D01*
X73822Y16597D01*
X73854Y16681D01*
X73895Y16761D01*
X73900Y16785D01*
X73907Y16800D01*
X73915Y16844D01*
X73935Y16894D01*
X73945Y16984D01*
X73964Y17071D01*
X73963Y17095D01*
X73967Y17113D01*
X73964Y17158D01*
X73970Y17210D01*
X73957Y17299D01*
X73955Y17389D01*
X73948Y17411D01*
X73947Y17430D01*
X73932Y17475D01*
X73925Y17525D01*
X73873Y17678D01*
X73615Y18301D01*
X73615Y20339D01*
X74395Y22223D01*
X75598Y23425D01*
X75658Y23503D01*
X75726Y23575D01*
X75755Y23628D01*
X75792Y23676D01*
X75832Y23767D01*
X75880Y23854D01*
X75895Y23912D01*
X75919Y23968D01*
X75934Y24066D01*
X75959Y24162D01*
X75965Y24262D01*
X75969Y24282D01*
X75967Y24294D01*
X75969Y24322D01*
X75969Y55087D01*
X75957Y55185D01*
X75954Y55284D01*
X75937Y55342D01*
X75929Y55402D01*
X75893Y55494D01*
X75865Y55589D01*
X75835Y55641D01*
X75812Y55698D01*
X75754Y55778D01*
X75704Y55863D01*
X75638Y55939D01*
X75626Y55955D01*
X75616Y55963D01*
X75598Y55984D01*
X69684Y61898D01*
X69606Y61958D01*
X69534Y62026D01*
X69481Y62055D01*
X69433Y62092D01*
X69342Y62132D01*
X69255Y62180D01*
X69197Y62195D01*
X69141Y62219D01*
X69043Y62234D01*
X68947Y62259D01*
X68847Y62265D01*
X68827Y62269D01*
X68815Y62267D01*
X68787Y62269D01*
X53262Y62269D01*
X53164Y62257D01*
X53065Y62254D01*
X53007Y62237D01*
X52947Y62229D01*
X52855Y62193D01*
X52760Y62165D01*
X52708Y62135D01*
X52651Y62112D01*
X52571Y62054D01*
X52486Y62004D01*
X52410Y61938D01*
X52394Y61926D01*
X52386Y61916D01*
X52365Y61898D01*
X51163Y60695D01*
X49279Y59915D01*
X47241Y59915D01*
X45357Y60695D01*
X43915Y62137D01*
X43135Y64021D01*
X43135Y66059D01*
X43915Y67943D01*
X45357Y69385D01*
X46906Y70026D01*
X46931Y70041D01*
X46959Y70050D01*
X47069Y70119D01*
X47182Y70184D01*
X47203Y70204D01*
X47228Y70220D01*
X47317Y70315D01*
X47410Y70405D01*
X47426Y70430D01*
X47446Y70452D01*
X47509Y70565D01*
X47577Y70676D01*
X47585Y70704D01*
X47600Y70730D01*
X47632Y70856D01*
X47670Y70980D01*
X47672Y71009D01*
X47679Y71038D01*
X47689Y71199D01*
X47689Y127038D01*
X47677Y127136D01*
X47674Y127235D01*
X47657Y127293D01*
X47649Y127353D01*
X47613Y127445D01*
X47585Y127540D01*
X47555Y127592D01*
X47532Y127649D01*
X47474Y127729D01*
X47424Y127814D01*
X47358Y127890D01*
X47346Y127906D01*
X47336Y127914D01*
X47318Y127935D01*
X46115Y129137D01*
X45335Y131021D01*
X45335Y133059D01*
X46115Y134943D01*
X47557Y136385D01*
X49441Y137165D01*
X51479Y137165D01*
X53363Y136385D01*
X54565Y135182D01*
X54643Y135122D01*
X54715Y135054D01*
X54768Y135025D01*
X54816Y134988D01*
X54907Y134948D01*
X54994Y134900D01*
X55052Y134885D01*
X55108Y134861D01*
X55206Y134846D01*
X55302Y134821D01*
X55402Y134815D01*
X55422Y134811D01*
X55434Y134813D01*
X55462Y134811D01*
X104787Y134811D01*
X104885Y134823D01*
X104984Y134826D01*
X105042Y134843D01*
X105102Y134851D01*
X105194Y134887D01*
X105289Y134915D01*
X105341Y134945D01*
X105398Y134968D01*
X105478Y135026D01*
X105563Y135076D01*
X105639Y135142D01*
X105655Y135154D01*
X105663Y135164D01*
X105684Y135182D01*
X117818Y147316D01*
X119812Y149311D01*
X145287Y149311D01*
X145385Y149323D01*
X145484Y149326D01*
X145542Y149343D01*
X145602Y149351D01*
X145694Y149387D01*
X145789Y149415D01*
X145841Y149445D01*
X145898Y149468D01*
X145978Y149526D01*
X146063Y149576D01*
X146139Y149642D01*
X146155Y149654D01*
X146163Y149664D01*
X146184Y149682D01*
X147964Y151462D01*
X148024Y151540D01*
X148092Y151612D01*
X148121Y151665D01*
X148158Y151713D01*
X148198Y151804D01*
X148246Y151891D01*
X148261Y151949D01*
X148285Y152005D01*
X148300Y152103D01*
X148325Y152199D01*
X148331Y152299D01*
X148335Y152319D01*
X148333Y152331D01*
X148335Y152359D01*
X148335Y153126D01*
X148320Y153244D01*
X148313Y153363D01*
X148300Y153401D01*
X148295Y153442D01*
X148252Y153552D01*
X148215Y153665D01*
X148193Y153700D01*
X148178Y153737D01*
X148109Y153833D01*
X148045Y153934D01*
X148015Y153962D01*
X147992Y153995D01*
X147900Y154071D01*
X147813Y154152D01*
X147778Y154172D01*
X147747Y154197D01*
X147639Y154248D01*
X147535Y154306D01*
X147495Y154316D01*
X147459Y154333D01*
X147342Y154355D01*
X147227Y154385D01*
X147167Y154389D01*
X147147Y154393D01*
X147126Y154391D01*
X147066Y154395D01*
X146986Y154395D01*
X145861Y154619D01*
X144801Y155058D01*
X143847Y155696D01*
X143036Y156507D01*
X142398Y157461D01*
X141953Y158536D01*
X141925Y158586D01*
X141905Y158639D01*
X141846Y158723D01*
X141795Y158812D01*
X141756Y158853D01*
X141723Y158900D01*
X141645Y158967D01*
X141574Y159041D01*
X141525Y159071D01*
X141482Y159108D01*
X141390Y159153D01*
X141303Y159207D01*
X141248Y159224D01*
X141197Y159249D01*
X141097Y159271D01*
X140999Y159301D01*
X140942Y159303D01*
X140886Y159315D01*
X140784Y159311D01*
X140681Y159316D01*
X140625Y159304D01*
X140569Y159302D01*
X140471Y159272D01*
X140370Y159252D01*
X140319Y159227D01*
X140264Y159210D01*
X140176Y159157D01*
X140084Y159112D01*
X140041Y159075D01*
X139992Y159045D01*
X139872Y158938D01*
X135720Y154689D01*
X135665Y154616D01*
X135602Y154549D01*
X135595Y154537D01*
X134564Y153506D01*
X134561Y153502D01*
X134554Y153495D01*
X133754Y152677D01*
X132612Y152677D01*
X132608Y152677D01*
X132598Y152677D01*
X131129Y152660D01*
X131102Y152667D01*
X130984Y152675D01*
X130968Y152677D01*
X130959Y152676D01*
X130942Y152677D01*
X43556Y152677D01*
X21918Y174315D01*
X21895Y174333D01*
X21876Y174356D01*
X21770Y174430D01*
X21667Y174510D01*
X21640Y174522D01*
X21616Y174539D01*
X21495Y174585D01*
X21375Y174636D01*
X21346Y174641D01*
X21319Y174652D01*
X21190Y174666D01*
X21061Y174686D01*
X21032Y174683D01*
X21003Y174687D01*
X20874Y174669D01*
X20745Y174656D01*
X20717Y174646D01*
X20688Y174642D01*
X20535Y174590D01*
X17916Y173505D01*
X13580Y173505D01*
X9574Y175164D01*
X6508Y178230D01*
X5713Y180152D01*
X5700Y180174D01*
X5693Y180197D01*
X5671Y180231D01*
X5652Y180277D01*
X5600Y180350D01*
X5555Y180428D01*
X5529Y180455D01*
X5522Y180465D01*
X5502Y180485D01*
X5466Y180535D01*
X5396Y180592D01*
X5334Y180657D01*
X5292Y180682D01*
X5291Y180683D01*
X5286Y180686D01*
X5274Y180693D01*
X5221Y180738D01*
X5139Y180776D01*
X5063Y180823D01*
X4996Y180843D01*
X4933Y180873D01*
X4845Y180890D01*
X4759Y180916D01*
X4689Y180920D01*
X4620Y180933D01*
X4531Y180927D01*
X4441Y180932D01*
X4373Y180917D01*
X4303Y180913D01*
X4218Y180885D01*
X4130Y180867D01*
X4067Y180837D01*
X4001Y180815D01*
X3925Y180767D01*
X3844Y180728D01*
X3791Y180682D01*
X3732Y180645D01*
X3677Y180587D01*
X3671Y180583D01*
X3665Y180575D01*
X3602Y180521D01*
X3562Y180464D01*
X3514Y180413D01*
X3479Y180351D01*
X3469Y180338D01*
X3460Y180320D01*
X3419Y180261D01*
X3394Y180196D01*
X3360Y180135D01*
X3345Y180076D01*
X3333Y180050D01*
X3327Y180020D01*
X3306Y179964D01*
X3298Y179894D01*
X3281Y179827D01*
X3276Y179753D01*
X3273Y179738D01*
X3274Y179722D01*
X3271Y179666D01*
X3271Y4539D01*
X3286Y4421D01*
X3293Y4303D01*
X3305Y4264D01*
X3311Y4224D01*
X3354Y4113D01*
X3391Y4000D01*
X3413Y3966D01*
X3428Y3928D01*
X3498Y3832D01*
X3561Y3731D01*
X3591Y3704D01*
X3614Y3671D01*
X3706Y3595D01*
X3793Y3513D01*
X3828Y3494D01*
X3859Y3468D01*
X3967Y3417D01*
X4071Y3360D01*
X4111Y3350D01*
X4147Y3332D01*
X4264Y3310D01*
X4379Y3280D01*
X4440Y3276D01*
X4459Y3273D01*
X4480Y3274D01*
X4540Y3270D01*
X73217Y3261D01*
X73354Y3278D01*
G37*
G36*
X195908Y6326D02*
X195908Y6326D01*
X196027Y6333D01*
X196065Y6346D01*
X196106Y6351D01*
X196216Y6394D01*
X196329Y6431D01*
X196364Y6453D01*
X196401Y6468D01*
X196497Y6538D01*
X196598Y6601D01*
X196626Y6631D01*
X196659Y6655D01*
X196735Y6746D01*
X196816Y6833D01*
X196836Y6868D01*
X196861Y6899D01*
X196912Y7007D01*
X196970Y7111D01*
X196980Y7151D01*
X196997Y7187D01*
X197019Y7304D01*
X197049Y7419D01*
X197053Y7480D01*
X197057Y7500D01*
X197055Y7520D01*
X197059Y7580D01*
X197059Y8131D01*
X197682Y9634D01*
X197695Y9682D01*
X197716Y9727D01*
X197737Y9835D01*
X197766Y9941D01*
X197767Y9943D01*
X199281Y11457D01*
X201165Y12237D01*
X203203Y12237D01*
X205087Y11457D01*
X206085Y10459D01*
X206158Y10402D01*
X206224Y10338D01*
X206283Y10305D01*
X206336Y10264D01*
X206421Y10227D01*
X206501Y10182D01*
X206566Y10164D01*
X206628Y10137D01*
X206719Y10123D01*
X206808Y10099D01*
X206925Y10090D01*
X206942Y10088D01*
X206951Y10088D01*
X206969Y10087D01*
X224795Y9901D01*
X224900Y9913D01*
X225005Y9917D01*
X225057Y9932D01*
X225111Y9938D01*
X225209Y9976D01*
X225311Y10005D01*
X225357Y10032D01*
X225408Y10052D01*
X225494Y10113D01*
X225585Y10167D01*
X225649Y10223D01*
X225667Y10236D01*
X225677Y10248D01*
X225705Y10273D01*
X287366Y71933D01*
X287426Y72011D01*
X287494Y72084D01*
X287523Y72137D01*
X287560Y72184D01*
X287600Y72275D01*
X287648Y72362D01*
X287663Y72421D01*
X287687Y72476D01*
X287702Y72574D01*
X287727Y72670D01*
X287733Y72770D01*
X287737Y72790D01*
X287735Y72803D01*
X287737Y72831D01*
X287737Y74171D01*
X288314Y75564D01*
X288327Y75612D01*
X288349Y75657D01*
X288369Y75765D01*
X288398Y75871D01*
X288399Y75921D01*
X288408Y75970D01*
X288401Y76079D01*
X288403Y76189D01*
X288392Y76237D01*
X288391Y76255D01*
X288407Y76256D01*
X288539Y76298D01*
X288673Y76337D01*
X288690Y76347D01*
X288709Y76354D01*
X288827Y76428D01*
X288947Y76499D01*
X288968Y76517D01*
X288978Y76524D01*
X288992Y76539D01*
X289068Y76605D01*
X289959Y77497D01*
X291196Y78009D01*
X291221Y78023D01*
X291249Y78032D01*
X291359Y78102D01*
X291472Y78166D01*
X291493Y78187D01*
X291518Y78203D01*
X291607Y78297D01*
X291700Y78388D01*
X291716Y78413D01*
X291736Y78434D01*
X291799Y78548D01*
X291867Y78659D01*
X291875Y78687D01*
X291889Y78713D01*
X291922Y78838D01*
X291960Y78963D01*
X291962Y78992D01*
X291969Y79021D01*
X291979Y79181D01*
X291979Y87550D01*
X291964Y87668D01*
X291957Y87787D01*
X291944Y87825D01*
X291939Y87865D01*
X291895Y87976D01*
X291859Y88089D01*
X291837Y88124D01*
X291822Y88161D01*
X291752Y88257D01*
X291689Y88358D01*
X291659Y88386D01*
X291635Y88418D01*
X291544Y88494D01*
X291457Y88576D01*
X291422Y88595D01*
X291390Y88621D01*
X291283Y88672D01*
X291179Y88729D01*
X291139Y88740D01*
X291103Y88757D01*
X290986Y88779D01*
X290871Y88809D01*
X290810Y88813D01*
X290790Y88817D01*
X290770Y88815D01*
X290710Y88819D01*
X289439Y88819D01*
X289439Y88821D01*
X290710Y88821D01*
X290828Y88836D01*
X290947Y88843D01*
X290985Y88856D01*
X291025Y88861D01*
X291136Y88905D01*
X291249Y88941D01*
X291284Y88963D01*
X291321Y88978D01*
X291417Y89048D01*
X291518Y89111D01*
X291546Y89141D01*
X291578Y89165D01*
X291654Y89256D01*
X291736Y89343D01*
X291755Y89378D01*
X291781Y89410D01*
X291832Y89517D01*
X291889Y89621D01*
X291900Y89661D01*
X291917Y89697D01*
X291939Y89814D01*
X291969Y89929D01*
X291973Y89990D01*
X291977Y90010D01*
X291975Y90030D01*
X291979Y90090D01*
X291979Y100321D01*
X295440Y100321D01*
X295558Y100336D01*
X295677Y100343D01*
X295716Y100355D01*
X295756Y100361D01*
X295866Y100404D01*
X295980Y100441D01*
X296014Y100463D01*
X296052Y100478D01*
X296148Y100547D01*
X296248Y100611D01*
X296276Y100641D01*
X296309Y100664D01*
X296385Y100756D01*
X296466Y100843D01*
X296486Y100878D01*
X296512Y100909D01*
X296562Y101017D01*
X296620Y101121D01*
X296630Y101160D01*
X296647Y101197D01*
X296670Y101313D01*
X296699Y101429D01*
X296703Y101489D01*
X296707Y101509D01*
X296706Y101530D01*
X296710Y101590D01*
X296728Y195460D01*
X296713Y195578D01*
X296706Y195697D01*
X296694Y195735D01*
X296689Y195775D01*
X296645Y195886D01*
X296608Y195999D01*
X296586Y196034D01*
X296572Y196071D01*
X296502Y196167D01*
X296438Y196268D01*
X296408Y196296D01*
X296385Y196328D01*
X296293Y196404D01*
X296206Y196486D01*
X296171Y196506D01*
X296140Y196531D01*
X296032Y196582D01*
X295928Y196640D01*
X295889Y196650D01*
X295852Y196667D01*
X295735Y196689D01*
X295620Y196719D01*
X295560Y196723D01*
X295540Y196727D01*
X295519Y196725D01*
X295459Y196729D01*
X123553Y196729D01*
X123533Y196727D01*
X123513Y196729D01*
X123376Y196707D01*
X123237Y196689D01*
X123219Y196682D01*
X123199Y196679D01*
X123071Y196624D01*
X122942Y196572D01*
X122926Y196561D01*
X122907Y196553D01*
X122797Y196467D01*
X122684Y196386D01*
X122672Y196370D01*
X122656Y196358D01*
X122571Y196248D01*
X122482Y196141D01*
X122473Y196123D01*
X122461Y196107D01*
X122405Y195978D01*
X122346Y195853D01*
X122342Y195833D01*
X122334Y195815D01*
X122312Y195677D01*
X122286Y195541D01*
X122288Y195521D01*
X122284Y195501D01*
X122297Y195362D01*
X122306Y195223D01*
X122312Y195204D01*
X122314Y195184D01*
X122361Y195053D01*
X122404Y194921D01*
X122415Y194904D01*
X122421Y194885D01*
X122500Y194770D01*
X122574Y194652D01*
X122589Y194638D01*
X122600Y194622D01*
X122704Y194530D01*
X122806Y194434D01*
X122823Y194424D01*
X122838Y194411D01*
X122977Y194329D01*
X123322Y194153D01*
X124774Y193098D01*
X126042Y191830D01*
X127097Y190378D01*
X127912Y188780D01*
X128466Y187073D01*
X128487Y186943D01*
X118618Y186943D01*
X118500Y186928D01*
X118381Y186921D01*
X118343Y186908D01*
X118303Y186903D01*
X118192Y186860D01*
X118079Y186823D01*
X118045Y186801D01*
X118007Y186786D01*
X117911Y186716D01*
X117810Y186653D01*
X117782Y186623D01*
X117750Y186599D01*
X117674Y186508D01*
X117592Y186421D01*
X117573Y186386D01*
X117547Y186355D01*
X117496Y186247D01*
X117439Y186143D01*
X117428Y186103D01*
X117411Y186067D01*
X117389Y185950D01*
X117359Y185835D01*
X117355Y185774D01*
X117351Y185754D01*
X117353Y185734D01*
X117349Y185674D01*
X117349Y183134D01*
X117364Y183016D01*
X117371Y182897D01*
X117384Y182859D01*
X117389Y182818D01*
X117433Y182708D01*
X117469Y182595D01*
X117491Y182560D01*
X117506Y182523D01*
X117576Y182427D01*
X117639Y182326D01*
X117669Y182298D01*
X117693Y182265D01*
X117784Y182190D01*
X117871Y182108D01*
X117906Y182088D01*
X117938Y182063D01*
X118045Y182012D01*
X118150Y181954D01*
X118189Y181944D01*
X118225Y181927D01*
X118342Y181905D01*
X118457Y181875D01*
X118518Y181871D01*
X118538Y181867D01*
X118558Y181869D01*
X118618Y181865D01*
X129161Y181865D01*
X129259Y181877D01*
X129358Y181880D01*
X129416Y181897D01*
X129476Y181905D01*
X129568Y181941D01*
X129663Y181969D01*
X129716Y181999D01*
X129772Y182022D01*
X129852Y182080D01*
X129937Y182130D01*
X130013Y182196D01*
X130029Y182208D01*
X130037Y182218D01*
X130058Y182237D01*
X136520Y188699D01*
X204348Y188699D01*
X207024Y186022D01*
X207102Y185962D01*
X207174Y185894D01*
X207227Y185865D01*
X207275Y185828D01*
X207366Y185788D01*
X207453Y185740D01*
X207511Y185725D01*
X207567Y185701D01*
X207665Y185686D01*
X207761Y185661D01*
X207861Y185655D01*
X207881Y185651D01*
X207893Y185653D01*
X207921Y185651D01*
X221566Y185651D01*
X221664Y185663D01*
X221763Y185666D01*
X221821Y185683D01*
X221881Y185691D01*
X221973Y185727D01*
X222068Y185755D01*
X222120Y185785D01*
X222177Y185808D01*
X222257Y185866D01*
X222342Y185916D01*
X222418Y185982D01*
X222434Y185994D01*
X222442Y186004D01*
X222463Y186022D01*
X223665Y187225D01*
X225549Y188005D01*
X227587Y188005D01*
X229471Y187225D01*
X230913Y185783D01*
X231693Y183899D01*
X231693Y181861D01*
X230903Y179955D01*
X230881Y179871D01*
X230848Y179791D01*
X230839Y179719D01*
X230820Y179648D01*
X230818Y179562D01*
X230807Y179475D01*
X230816Y179403D01*
X230814Y179330D01*
X230835Y179246D01*
X230845Y179160D01*
X230872Y179092D01*
X230889Y179021D01*
X230929Y178944D01*
X230961Y178863D01*
X231003Y178804D01*
X231037Y178740D01*
X231096Y178676D01*
X231146Y178605D01*
X231202Y178559D01*
X231251Y178505D01*
X231324Y178457D01*
X231390Y178401D01*
X231456Y178370D01*
X231517Y178330D01*
X231599Y178302D01*
X231678Y178264D01*
X231749Y178250D01*
X231818Y178227D01*
X231904Y178220D01*
X231990Y178203D01*
X232062Y178207D01*
X232135Y178202D01*
X232221Y178216D01*
X232307Y178221D01*
X232376Y178243D01*
X232448Y178256D01*
X232527Y178292D01*
X232610Y178318D01*
X232672Y178357D01*
X232738Y178387D01*
X232806Y178441D01*
X232880Y178487D01*
X232977Y178577D01*
X232987Y178585D01*
X232990Y178589D01*
X232997Y178597D01*
X236843Y182656D01*
X236892Y182722D01*
X236948Y182782D01*
X236986Y182850D01*
X237032Y182913D01*
X237062Y182989D01*
X237102Y183060D01*
X237121Y183136D01*
X237150Y183208D01*
X237161Y183289D01*
X237181Y183368D01*
X237191Y183517D01*
X237191Y183523D01*
X237191Y183525D01*
X237191Y183529D01*
X237191Y185423D01*
X237971Y187307D01*
X239413Y188749D01*
X241297Y189529D01*
X243335Y189529D01*
X245219Y188749D01*
X246498Y187469D01*
X246593Y187396D01*
X246682Y187317D01*
X246718Y187299D01*
X246750Y187274D01*
X246859Y187227D01*
X246965Y187173D01*
X247004Y187164D01*
X247042Y187148D01*
X247159Y187129D01*
X247275Y187103D01*
X247316Y187104D01*
X247356Y187098D01*
X247474Y187109D01*
X247593Y187113D01*
X247632Y187124D01*
X247672Y187128D01*
X247785Y187168D01*
X247899Y187201D01*
X247933Y187222D01*
X247972Y187235D01*
X248070Y187302D01*
X248173Y187363D01*
X248218Y187402D01*
X248235Y187414D01*
X248248Y187429D01*
X248293Y187469D01*
X249065Y188241D01*
X250949Y189021D01*
X252987Y189021D01*
X254871Y188241D01*
X256313Y186799D01*
X257093Y184915D01*
X257093Y184773D01*
X257110Y184635D01*
X257123Y184497D01*
X257130Y184478D01*
X257133Y184458D01*
X257184Y184329D01*
X257231Y184197D01*
X257242Y184181D01*
X257250Y184162D01*
X257331Y184050D01*
X257409Y183934D01*
X257425Y183921D01*
X257436Y183905D01*
X257544Y183816D01*
X257648Y183724D01*
X257666Y183715D01*
X257681Y183702D01*
X257807Y183643D01*
X257931Y183579D01*
X257951Y183575D01*
X257969Y183566D01*
X258106Y183540D01*
X258241Y183510D01*
X258262Y183510D01*
X258281Y183506D01*
X258420Y183515D01*
X258559Y183519D01*
X258579Y183525D01*
X258599Y183526D01*
X258731Y183569D01*
X258865Y183608D01*
X258882Y183618D01*
X258901Y183624D01*
X259019Y183699D01*
X259139Y183769D01*
X259160Y183788D01*
X259170Y183794D01*
X259184Y183809D01*
X259259Y183876D01*
X260023Y184639D01*
X261906Y185419D01*
X263945Y185419D01*
X265828Y184639D01*
X267270Y183197D01*
X268050Y181314D01*
X268050Y179275D01*
X267270Y177391D01*
X265828Y175950D01*
X263945Y175170D01*
X262245Y175170D01*
X262147Y175157D01*
X262048Y175154D01*
X261990Y175137D01*
X261929Y175130D01*
X261837Y175093D01*
X261742Y175066D01*
X261690Y175035D01*
X261634Y175013D01*
X261554Y174955D01*
X261468Y174904D01*
X261393Y174838D01*
X261376Y174826D01*
X261369Y174816D01*
X261347Y174798D01*
X249895Y163345D01*
X200020Y163345D01*
X192772Y170594D01*
X192694Y170654D01*
X192622Y170722D01*
X192569Y170751D01*
X192521Y170788D01*
X192430Y170828D01*
X192343Y170876D01*
X192285Y170891D01*
X192229Y170915D01*
X192131Y170930D01*
X192035Y170955D01*
X191935Y170961D01*
X191915Y170965D01*
X191903Y170963D01*
X191875Y170965D01*
X161807Y170965D01*
X161679Y170949D01*
X161551Y170939D01*
X161522Y170929D01*
X161492Y170925D01*
X161372Y170878D01*
X161250Y170836D01*
X161224Y170820D01*
X161196Y170808D01*
X161091Y170732D01*
X160984Y170662D01*
X160952Y170632D01*
X160939Y170622D01*
X160925Y170605D01*
X160868Y170550D01*
X160395Y170029D01*
X160355Y169973D01*
X160308Y169923D01*
X160264Y169843D01*
X160212Y169769D01*
X160188Y169704D01*
X160154Y169644D01*
X160132Y169556D01*
X160100Y169472D01*
X160092Y169403D01*
X160075Y169336D01*
X160065Y169176D01*
X160065Y167129D01*
X159285Y165245D01*
X157843Y163803D01*
X155959Y163023D01*
X154488Y163023D01*
X154404Y163013D01*
X154320Y163012D01*
X154247Y162993D01*
X154172Y162983D01*
X154094Y162952D01*
X154012Y162931D01*
X153946Y162894D01*
X153877Y162866D01*
X153808Y162817D01*
X153735Y162776D01*
X153680Y162724D01*
X153619Y162680D01*
X153565Y162614D01*
X153504Y162556D01*
X153464Y162493D01*
X153416Y162435D01*
X153380Y162358D01*
X153336Y162287D01*
X153313Y162215D01*
X153281Y162147D01*
X153265Y162064D01*
X153239Y161983D01*
X153235Y161908D01*
X153221Y161835D01*
X153226Y161750D01*
X153222Y161666D01*
X153240Y161526D01*
X153241Y161517D01*
X153242Y161514D01*
X153243Y161506D01*
X153246Y161489D01*
X147560Y161489D01*
X147442Y161474D01*
X147323Y161467D01*
X147285Y161455D01*
X147245Y161450D01*
X147134Y161406D01*
X147021Y161369D01*
X146987Y161347D01*
X146949Y161333D01*
X146853Y161263D01*
X146752Y161199D01*
X146724Y161169D01*
X146692Y161146D01*
X146616Y161054D01*
X146534Y160967D01*
X146515Y160932D01*
X146489Y160901D01*
X146438Y160793D01*
X146381Y160689D01*
X146371Y160650D01*
X146353Y160613D01*
X146331Y160496D01*
X146301Y160381D01*
X146297Y160321D01*
X146294Y160301D01*
X146294Y160300D01*
X146295Y160280D01*
X146291Y160220D01*
X146306Y160102D01*
X146313Y159983D01*
X146326Y159944D01*
X146331Y159904D01*
X146375Y159794D01*
X146411Y159680D01*
X146433Y159646D01*
X146448Y159609D01*
X146518Y159512D01*
X146582Y159412D01*
X146611Y159384D01*
X146635Y159351D01*
X146727Y159275D01*
X146813Y159194D01*
X146849Y159174D01*
X146880Y159148D01*
X146987Y159098D01*
X147092Y159040D01*
X147131Y159030D01*
X147167Y159013D01*
X147284Y158991D01*
X147400Y158961D01*
X147460Y158957D01*
X147480Y158953D01*
X147500Y158954D01*
X147560Y158951D01*
X153470Y158951D01*
X153488Y158895D01*
X153528Y158831D01*
X153559Y158763D01*
X153613Y158697D01*
X153658Y158626D01*
X153713Y158574D01*
X153760Y158516D01*
X153828Y158466D01*
X153889Y158408D01*
X153955Y158372D01*
X154016Y158327D01*
X154094Y158295D01*
X154168Y158254D01*
X154241Y158236D01*
X154310Y158207D01*
X154394Y158196D01*
X154420Y158189D01*
X156152Y157472D01*
X156200Y157459D01*
X156245Y157437D01*
X156353Y157417D01*
X156459Y157388D01*
X156509Y157387D01*
X156558Y157378D01*
X156667Y157385D01*
X156777Y157383D01*
X156825Y157394D01*
X156875Y157397D01*
X156979Y157431D01*
X157086Y157457D01*
X157130Y157480D01*
X157177Y157495D01*
X157270Y157554D01*
X157367Y157606D01*
X157404Y157639D01*
X157446Y157666D01*
X157521Y157746D01*
X157603Y157820D01*
X157630Y157861D01*
X157664Y157897D01*
X157717Y157993D01*
X157777Y158085D01*
X157794Y158132D01*
X157818Y158176D01*
X157845Y158282D01*
X157881Y158386D01*
X157885Y158436D01*
X157897Y158484D01*
X157897Y158487D01*
X158687Y160395D01*
X160129Y161837D01*
X162013Y162617D01*
X164051Y162617D01*
X165935Y161837D01*
X165957Y161814D01*
X165997Y161784D01*
X166030Y161747D01*
X166122Y161687D01*
X166208Y161619D01*
X166254Y161600D01*
X166296Y161572D01*
X166400Y161537D01*
X166500Y161493D01*
X166549Y161485D01*
X166596Y161469D01*
X166706Y161460D01*
X166814Y161443D01*
X166864Y161448D01*
X166914Y161444D01*
X167022Y161463D01*
X167131Y161473D01*
X167178Y161490D01*
X167227Y161498D01*
X167327Y161543D01*
X167430Y161580D01*
X167471Y161608D01*
X167517Y161629D01*
X167603Y161697D01*
X167693Y161759D01*
X167726Y161796D01*
X167765Y161827D01*
X167831Y161915D01*
X167904Y161997D01*
X167927Y162042D01*
X167957Y162081D01*
X168027Y162226D01*
X168446Y163236D01*
X169944Y164734D01*
X171901Y165545D01*
X174019Y165545D01*
X175976Y164734D01*
X177474Y163236D01*
X178285Y161279D01*
X178285Y159378D01*
X178298Y159276D01*
X178301Y159174D01*
X178317Y159119D01*
X178325Y159062D01*
X178362Y158967D01*
X178391Y158869D01*
X178421Y158820D01*
X178442Y158767D01*
X178502Y158684D01*
X178554Y158596D01*
X178616Y158527D01*
X178628Y158509D01*
X178639Y158500D01*
X178661Y158476D01*
X180584Y156574D01*
X180660Y156515D01*
X180729Y156450D01*
X180786Y156419D01*
X180836Y156380D01*
X180924Y156343D01*
X181008Y156296D01*
X181070Y156280D01*
X181129Y156255D01*
X181223Y156241D01*
X181316Y156217D01*
X181424Y156210D01*
X181443Y156207D01*
X181454Y156208D01*
X181477Y156207D01*
X182720Y156207D01*
X182789Y156215D01*
X182859Y156214D01*
X182946Y156235D01*
X183036Y156247D01*
X183101Y156272D01*
X183168Y156289D01*
X183248Y156331D01*
X183331Y156364D01*
X183388Y156405D01*
X183450Y156437D01*
X183516Y156498D01*
X183589Y156550D01*
X183633Y156604D01*
X183685Y156651D01*
X183734Y156726D01*
X183791Y156795D01*
X183821Y156859D01*
X183860Y156917D01*
X183889Y157002D01*
X183927Y157083D01*
X183940Y157152D01*
X183963Y157218D01*
X183970Y157307D01*
X183987Y157395D01*
X183982Y157465D01*
X183988Y157535D01*
X183973Y157623D01*
X183967Y157713D01*
X183946Y157779D01*
X183934Y157848D01*
X183897Y157930D01*
X183869Y158015D01*
X183832Y158074D01*
X183803Y158138D01*
X183747Y158208D01*
X183699Y158284D01*
X183648Y158332D01*
X183604Y158386D01*
X183533Y158440D01*
X183467Y158502D01*
X183406Y158536D01*
X183350Y158578D01*
X183206Y158649D01*
X183025Y158723D01*
X181583Y160165D01*
X180803Y162049D01*
X180803Y164087D01*
X181583Y165971D01*
X183025Y167413D01*
X184909Y168193D01*
X186947Y168193D01*
X188831Y167413D01*
X190273Y165971D01*
X191053Y164087D01*
X191053Y162387D01*
X191065Y162289D01*
X191068Y162190D01*
X191085Y162132D01*
X191093Y162072D01*
X191129Y161980D01*
X191157Y161885D01*
X191187Y161833D01*
X191210Y161776D01*
X191268Y161696D01*
X191318Y161611D01*
X191384Y161535D01*
X191396Y161519D01*
X191406Y161511D01*
X191424Y161490D01*
X208003Y144912D01*
X208003Y127657D01*
X208015Y127559D01*
X208018Y127460D01*
X208035Y127402D01*
X208043Y127342D01*
X208079Y127250D01*
X208107Y127155D01*
X208137Y127102D01*
X208160Y127046D01*
X208218Y126966D01*
X208268Y126881D01*
X208334Y126805D01*
X208346Y126789D01*
X208356Y126781D01*
X208374Y126760D01*
X219216Y115918D01*
X219294Y115858D01*
X219366Y115790D01*
X219419Y115761D01*
X219467Y115724D01*
X219558Y115684D01*
X219645Y115636D01*
X219703Y115621D01*
X219759Y115597D01*
X219857Y115582D01*
X219953Y115557D01*
X220053Y115551D01*
X220073Y115547D01*
X220085Y115549D01*
X220113Y115547D01*
X234680Y115547D01*
X234798Y115562D01*
X234917Y115569D01*
X234955Y115582D01*
X234996Y115587D01*
X235106Y115630D01*
X235219Y115667D01*
X235254Y115689D01*
X235291Y115704D01*
X235387Y115773D01*
X235488Y115837D01*
X235516Y115867D01*
X235549Y115890D01*
X235625Y115982D01*
X235706Y116069D01*
X235726Y116104D01*
X235751Y116135D01*
X235802Y116243D01*
X235860Y116347D01*
X235870Y116387D01*
X235887Y116423D01*
X235909Y116540D01*
X235939Y116655D01*
X235943Y116715D01*
X235947Y116735D01*
X235945Y116756D01*
X235949Y116816D01*
X235949Y130512D01*
X236828Y131391D01*
X248072Y131391D01*
X248951Y130512D01*
X248951Y116816D01*
X248966Y116698D01*
X248973Y116579D01*
X248986Y116541D01*
X248991Y116500D01*
X249034Y116390D01*
X249071Y116277D01*
X249093Y116242D01*
X249108Y116205D01*
X249177Y116109D01*
X249241Y116008D01*
X249271Y115980D01*
X249294Y115947D01*
X249386Y115871D01*
X249473Y115790D01*
X249508Y115770D01*
X249539Y115745D01*
X249647Y115694D01*
X249751Y115636D01*
X249791Y115626D01*
X249827Y115609D01*
X249944Y115587D01*
X250059Y115557D01*
X250119Y115553D01*
X250139Y115549D01*
X250160Y115551D01*
X250220Y115547D01*
X258931Y115547D01*
X259029Y115559D01*
X259128Y115562D01*
X259186Y115579D01*
X259246Y115587D01*
X259338Y115623D01*
X259433Y115651D01*
X259485Y115681D01*
X259542Y115704D01*
X259622Y115762D01*
X259707Y115812D01*
X259783Y115878D01*
X259799Y115890D01*
X259807Y115900D01*
X259828Y115918D01*
X270632Y126723D01*
X271880Y126723D01*
X271998Y126738D01*
X272117Y126745D01*
X272155Y126758D01*
X272196Y126763D01*
X272306Y126806D01*
X272419Y126843D01*
X272454Y126865D01*
X272491Y126880D01*
X272587Y126949D01*
X272688Y127013D01*
X272716Y127043D01*
X272749Y127066D01*
X272825Y127158D01*
X272906Y127245D01*
X272926Y127280D01*
X272951Y127311D01*
X273002Y127419D01*
X273060Y127523D01*
X273070Y127563D01*
X273087Y127599D01*
X273109Y127716D01*
X273139Y127831D01*
X273143Y127891D01*
X273147Y127911D01*
X273145Y127932D01*
X273149Y127992D01*
X273149Y130532D01*
X274028Y131411D01*
X283996Y131411D01*
X284114Y131426D01*
X284233Y131433D01*
X284271Y131446D01*
X284312Y131451D01*
X284422Y131494D01*
X284535Y131531D01*
X284570Y131553D01*
X284607Y131568D01*
X284703Y131637D01*
X284804Y131701D01*
X284832Y131731D01*
X284865Y131754D01*
X284941Y131846D01*
X285022Y131933D01*
X285042Y131968D01*
X285067Y131999D01*
X285118Y132107D01*
X285176Y132211D01*
X285186Y132251D01*
X285203Y132287D01*
X285225Y132404D01*
X285255Y132519D01*
X285259Y132579D01*
X285263Y132599D01*
X285262Y132611D01*
X285263Y132614D01*
X285262Y132627D01*
X285265Y132680D01*
X285265Y136957D01*
X285262Y136986D01*
X285264Y137015D01*
X285242Y137143D01*
X285225Y137272D01*
X285215Y137299D01*
X285210Y137329D01*
X285156Y137447D01*
X285108Y137568D01*
X285091Y137592D01*
X285079Y137619D01*
X284998Y137720D01*
X284922Y137825D01*
X284899Y137844D01*
X284880Y137867D01*
X284777Y137945D01*
X284677Y138028D01*
X284650Y138040D01*
X284626Y138058D01*
X284482Y138129D01*
X282593Y138911D01*
X281151Y140353D01*
X280371Y142237D01*
X280371Y144275D01*
X281151Y146159D01*
X281668Y146675D01*
X281698Y146714D01*
X281735Y146748D01*
X281795Y146840D01*
X281863Y146926D01*
X281882Y146972D01*
X281910Y147014D01*
X281945Y147117D01*
X281989Y147218D01*
X281997Y147267D01*
X282013Y147314D01*
X282022Y147424D01*
X282039Y147532D01*
X282034Y147582D01*
X282038Y147631D01*
X282019Y147740D01*
X282009Y147849D01*
X281992Y147896D01*
X281984Y147945D01*
X281939Y148045D01*
X281901Y148148D01*
X281874Y148189D01*
X281853Y148235D01*
X281785Y148320D01*
X281723Y148411D01*
X281686Y148444D01*
X281655Y148483D01*
X281567Y148549D01*
X281484Y148622D01*
X281440Y148644D01*
X281400Y148674D01*
X281256Y148745D01*
X278713Y149798D01*
X276290Y152221D01*
X274979Y155387D01*
X274979Y158813D01*
X276290Y161979D01*
X278713Y164402D01*
X281969Y165750D01*
X282081Y165814D01*
X282196Y165873D01*
X282219Y165893D01*
X282245Y165908D01*
X282338Y165998D01*
X282435Y166083D01*
X282452Y166108D01*
X282473Y166129D01*
X282541Y166239D01*
X282614Y166346D01*
X282624Y166374D01*
X282640Y166400D01*
X282678Y166523D01*
X282722Y166645D01*
X282724Y166675D01*
X282733Y166704D01*
X282739Y166833D01*
X282752Y166962D01*
X282747Y166992D01*
X282748Y167022D01*
X282722Y167148D01*
X282702Y167276D01*
X282690Y167304D01*
X282684Y167333D01*
X282627Y167449D01*
X282576Y167568D01*
X282558Y167592D01*
X282544Y167619D01*
X282460Y167717D01*
X282381Y167819D01*
X282358Y167838D01*
X282338Y167861D01*
X282232Y167935D01*
X282130Y168014D01*
X282103Y168026D01*
X282078Y168044D01*
X281957Y168090D01*
X281839Y168141D01*
X281796Y168151D01*
X281781Y168157D01*
X281759Y168159D01*
X281682Y168176D01*
X281458Y168212D01*
X280094Y168655D01*
X278816Y169306D01*
X277656Y170149D01*
X276641Y171164D01*
X275798Y172324D01*
X275147Y173602D01*
X274704Y174966D01*
X274682Y175101D01*
X282862Y175101D01*
X282980Y175116D01*
X283099Y175123D01*
X283137Y175135D01*
X283177Y175141D01*
X283288Y175184D01*
X283401Y175221D01*
X283435Y175243D01*
X283473Y175258D01*
X283569Y175327D01*
X283586Y175338D01*
X283610Y175324D01*
X283642Y175299D01*
X283749Y175248D01*
X283854Y175190D01*
X283893Y175180D01*
X283929Y175163D01*
X284046Y175141D01*
X284162Y175111D01*
X284222Y175107D01*
X284242Y175103D01*
X284262Y175105D01*
X284322Y175101D01*
X292502Y175101D01*
X292480Y174966D01*
X292037Y173602D01*
X291386Y172324D01*
X290543Y171164D01*
X289528Y170149D01*
X288368Y169306D01*
X287090Y168655D01*
X285726Y168212D01*
X285502Y168176D01*
X285378Y168140D01*
X285253Y168110D01*
X285226Y168096D01*
X285197Y168088D01*
X285086Y168022D01*
X284972Y167961D01*
X284949Y167941D01*
X284923Y167926D01*
X284832Y167834D01*
X284736Y167747D01*
X284720Y167722D01*
X284698Y167701D01*
X284633Y167590D01*
X284561Y167482D01*
X284552Y167453D01*
X284536Y167427D01*
X284500Y167303D01*
X284458Y167181D01*
X284456Y167151D01*
X284447Y167122D01*
X284443Y166993D01*
X284433Y166864D01*
X284438Y166834D01*
X284437Y166804D01*
X284465Y166678D01*
X284487Y166551D01*
X284500Y166523D01*
X284506Y166494D01*
X284565Y166379D01*
X284618Y166261D01*
X284637Y166237D01*
X284650Y166210D01*
X284736Y166113D01*
X284817Y166012D01*
X284841Y165994D01*
X284861Y165971D01*
X284967Y165899D01*
X285071Y165821D01*
X285109Y165802D01*
X285123Y165792D01*
X285144Y165785D01*
X285215Y165750D01*
X288471Y164402D01*
X290894Y161979D01*
X292205Y158813D01*
X292205Y155387D01*
X290894Y152221D01*
X288425Y149753D01*
X288369Y149723D01*
X288354Y149710D01*
X288337Y149700D01*
X288236Y149603D01*
X288133Y149509D01*
X288122Y149492D01*
X288108Y149479D01*
X288035Y149360D01*
X287959Y149243D01*
X287952Y149225D01*
X287942Y149208D01*
X287901Y149074D01*
X287856Y148942D01*
X287854Y148923D01*
X287848Y148904D01*
X287841Y148764D01*
X287830Y148625D01*
X287834Y148606D01*
X287833Y148586D01*
X287861Y148450D01*
X287885Y148312D01*
X287893Y148294D01*
X287897Y148275D01*
X287958Y148149D01*
X288016Y148022D01*
X288028Y148007D01*
X288037Y147989D01*
X288128Y147882D01*
X288214Y147774D01*
X288230Y147762D01*
X288243Y147747D01*
X288275Y147724D01*
X289841Y146159D01*
X290621Y144275D01*
X290621Y142575D01*
X290633Y142477D01*
X290636Y142378D01*
X290653Y142320D01*
X290661Y142260D01*
X290697Y142168D01*
X290725Y142073D01*
X290755Y142021D01*
X290778Y141964D01*
X290807Y141924D01*
X290807Y113660D01*
X287012Y109866D01*
X280783Y109866D01*
X280692Y109854D01*
X280600Y109852D01*
X280534Y109834D01*
X280467Y109826D01*
X280382Y109792D01*
X280293Y109767D01*
X280235Y109734D01*
X280172Y109709D01*
X280097Y109655D01*
X280018Y109609D01*
X279928Y109532D01*
X279914Y109522D01*
X279909Y109515D01*
X279895Y109504D01*
X279105Y108730D01*
X279039Y108647D01*
X278966Y108570D01*
X278940Y108523D01*
X278907Y108481D01*
X278864Y108384D01*
X278812Y108291D01*
X278799Y108240D01*
X278777Y108191D01*
X278759Y108086D01*
X278733Y107984D01*
X278728Y107899D01*
X278724Y107877D01*
X278725Y107862D01*
X278723Y107823D01*
X278723Y101884D01*
X276728Y99890D01*
X276111Y99272D01*
X276110Y99272D01*
X274116Y97277D01*
X271004Y97277D01*
X270955Y97271D01*
X270905Y97273D01*
X270798Y97251D01*
X270689Y97237D01*
X270642Y97219D01*
X270594Y97209D01*
X270495Y97161D01*
X270393Y97120D01*
X270353Y97091D01*
X270308Y97069D01*
X270225Y96998D01*
X270136Y96934D01*
X270104Y96895D01*
X270066Y96863D01*
X270003Y96773D01*
X269933Y96689D01*
X269912Y96644D01*
X269883Y96603D01*
X269844Y96500D01*
X269797Y96401D01*
X269788Y96352D01*
X269770Y96306D01*
X269758Y96196D01*
X269738Y96089D01*
X269741Y96039D01*
X269735Y95990D01*
X269750Y95881D01*
X269757Y95771D01*
X269773Y95724D01*
X269780Y95675D01*
X269832Y95522D01*
X270297Y94399D01*
X270297Y92361D01*
X270004Y91654D01*
X269996Y91626D01*
X269983Y91600D01*
X269954Y91473D01*
X269920Y91348D01*
X269920Y91318D01*
X269913Y91289D01*
X269917Y91159D01*
X269915Y91030D01*
X269922Y91001D01*
X269923Y90971D01*
X269959Y90847D01*
X269989Y90720D01*
X270003Y90694D01*
X270011Y90666D01*
X270077Y90554D01*
X270138Y90439D01*
X270158Y90417D01*
X270173Y90392D01*
X270279Y90271D01*
X275282Y85268D01*
X275360Y85208D01*
X275432Y85140D01*
X275485Y85111D01*
X275533Y85074D01*
X275624Y85034D01*
X275711Y84986D01*
X275769Y84971D01*
X275825Y84947D01*
X275923Y84932D01*
X276019Y84907D01*
X276119Y84901D01*
X276139Y84897D01*
X276151Y84899D01*
X276179Y84897D01*
X277879Y84897D01*
X278934Y84460D01*
X278982Y84447D01*
X279027Y84425D01*
X279135Y84405D01*
X279241Y84376D01*
X279291Y84375D01*
X279340Y84366D01*
X279449Y84373D01*
X279559Y84371D01*
X279607Y84382D01*
X279657Y84385D01*
X279761Y84419D01*
X279868Y84445D01*
X279912Y84468D01*
X279959Y84483D01*
X280052Y84542D01*
X280149Y84594D01*
X280186Y84627D01*
X280228Y84654D01*
X280303Y84734D01*
X280385Y84808D01*
X280412Y84849D01*
X280446Y84885D01*
X280499Y84981D01*
X280559Y85073D01*
X280576Y85120D01*
X280600Y85164D01*
X280627Y85270D01*
X280663Y85374D01*
X280667Y85424D01*
X280679Y85472D01*
X280689Y85632D01*
X280689Y86281D01*
X286901Y86281D01*
X286901Y77502D01*
X286918Y77364D01*
X286922Y77319D01*
X282367Y77319D01*
X282318Y77330D01*
X282264Y77329D01*
X282211Y77336D01*
X282106Y77324D01*
X282000Y77321D01*
X281948Y77306D01*
X281895Y77300D01*
X281796Y77262D01*
X281694Y77232D01*
X281648Y77205D01*
X281598Y77186D01*
X281512Y77124D01*
X281421Y77071D01*
X281356Y77014D01*
X281339Y77002D01*
X281329Y76990D01*
X281300Y76964D01*
X279763Y75427D01*
X277879Y74647D01*
X276011Y74647D01*
X275913Y74635D01*
X275814Y74632D01*
X275756Y74615D01*
X275696Y74607D01*
X275604Y74571D01*
X275509Y74543D01*
X275456Y74513D01*
X275400Y74490D01*
X275320Y74432D01*
X275235Y74382D01*
X275159Y74316D01*
X275143Y74304D01*
X275135Y74294D01*
X275114Y74276D01*
X273094Y72256D01*
X271100Y70261D01*
X256061Y70261D01*
X255982Y70251D01*
X255902Y70251D01*
X255825Y70231D01*
X255745Y70221D01*
X255671Y70192D01*
X255594Y70172D01*
X255524Y70134D01*
X255450Y70104D01*
X255385Y70058D01*
X255316Y70019D01*
X255193Y69918D01*
X255192Y69918D01*
X255192Y69917D01*
X254098Y68889D01*
X247904Y63064D01*
X247896Y63055D01*
X247876Y63037D01*
X247072Y62234D01*
X245937Y62269D01*
X245925Y62268D01*
X245898Y62269D01*
X229633Y62269D01*
X229535Y62257D01*
X229436Y62254D01*
X229378Y62237D01*
X229318Y62229D01*
X229226Y62193D01*
X229131Y62165D01*
X229079Y62135D01*
X229022Y62112D01*
X228942Y62054D01*
X228857Y62004D01*
X228781Y61938D01*
X228765Y61926D01*
X228757Y61916D01*
X228736Y61898D01*
X226108Y59269D01*
X218633Y59269D01*
X218535Y59257D01*
X218436Y59254D01*
X218378Y59237D01*
X218318Y59229D01*
X218226Y59193D01*
X218131Y59165D01*
X218079Y59135D01*
X218022Y59112D01*
X217942Y59054D01*
X217857Y59004D01*
X217781Y58938D01*
X217765Y58926D01*
X217757Y58916D01*
X217736Y58898D01*
X209108Y50269D01*
X206096Y50269D01*
X205978Y50254D01*
X205859Y50247D01*
X205821Y50234D01*
X205780Y50229D01*
X205670Y50186D01*
X205557Y50149D01*
X205522Y50127D01*
X205485Y50112D01*
X205389Y50043D01*
X205288Y49979D01*
X205260Y49949D01*
X205227Y49926D01*
X205151Y49834D01*
X205070Y49747D01*
X205050Y49712D01*
X205025Y49681D01*
X204974Y49573D01*
X204916Y49469D01*
X204906Y49429D01*
X204889Y49393D01*
X204867Y49276D01*
X204837Y49161D01*
X204833Y49101D01*
X204829Y49081D01*
X204831Y49060D01*
X204827Y49000D01*
X204827Y30184D01*
X204836Y30111D01*
X204827Y28519D01*
X204827Y28517D01*
X204827Y28512D01*
X204827Y27367D01*
X204011Y26561D01*
X204010Y26559D01*
X204006Y26556D01*
X202928Y25477D01*
X202863Y25421D01*
X202847Y25410D01*
X202841Y25402D01*
X202824Y25387D01*
X201938Y24511D01*
X201874Y24430D01*
X201804Y24355D01*
X201776Y24306D01*
X201741Y24261D01*
X201700Y24167D01*
X201650Y24077D01*
X201636Y24022D01*
X201613Y23970D01*
X201597Y23868D01*
X201571Y23769D01*
X201565Y23677D01*
X201562Y23656D01*
X201563Y23642D01*
X201561Y23608D01*
X201561Y21949D01*
X200781Y20065D01*
X199339Y18623D01*
X197455Y17843D01*
X196294Y17843D01*
X196163Y17827D01*
X196031Y17816D01*
X196005Y17807D01*
X195978Y17803D01*
X195856Y17755D01*
X195730Y17711D01*
X195708Y17696D01*
X195683Y17686D01*
X195576Y17609D01*
X195465Y17535D01*
X195447Y17515D01*
X195425Y17500D01*
X195341Y17397D01*
X195252Y17299D01*
X195240Y17275D01*
X195223Y17255D01*
X195166Y17135D01*
X195105Y17018D01*
X195098Y16991D01*
X195087Y16967D01*
X195062Y16837D01*
X195032Y16708D01*
X195032Y16681D01*
X195027Y16655D01*
X195035Y16523D01*
X195038Y16390D01*
X195045Y16364D01*
X195047Y16337D01*
X195088Y16211D01*
X195123Y16084D01*
X195140Y16049D01*
X195145Y16035D01*
X195157Y16016D01*
X195195Y15939D01*
X195464Y15472D01*
X195601Y14963D01*
X195601Y11389D01*
X185870Y11389D01*
X185752Y11374D01*
X185633Y11367D01*
X185595Y11354D01*
X185555Y11349D01*
X185444Y11305D01*
X185331Y11269D01*
X185296Y11247D01*
X185259Y11232D01*
X185163Y11162D01*
X185062Y11099D01*
X185034Y11069D01*
X185002Y11045D01*
X184926Y10954D01*
X184844Y10867D01*
X184825Y10832D01*
X184799Y10800D01*
X184748Y10693D01*
X184691Y10589D01*
X184680Y10549D01*
X184663Y10513D01*
X184641Y10396D01*
X184611Y10281D01*
X184607Y10220D01*
X184603Y10200D01*
X184605Y10180D01*
X184601Y10120D01*
X184601Y7580D01*
X184616Y7462D01*
X184623Y7343D01*
X184636Y7305D01*
X184641Y7265D01*
X184685Y7154D01*
X184721Y7041D01*
X184743Y7006D01*
X184758Y6969D01*
X184828Y6873D01*
X184891Y6772D01*
X184921Y6744D01*
X184945Y6711D01*
X185036Y6636D01*
X185123Y6554D01*
X185158Y6534D01*
X185190Y6509D01*
X185297Y6458D01*
X185401Y6400D01*
X185441Y6390D01*
X185477Y6373D01*
X185594Y6351D01*
X185709Y6321D01*
X185770Y6317D01*
X185790Y6313D01*
X185810Y6315D01*
X185870Y6311D01*
X195790Y6311D01*
X195908Y6326D01*
G37*
G36*
X140241Y8111D02*
X140241Y8111D01*
X140290Y8109D01*
X140398Y8131D01*
X140507Y8145D01*
X140553Y8163D01*
X140602Y8173D01*
X140700Y8221D01*
X140802Y8262D01*
X140843Y8291D01*
X140887Y8313D01*
X140971Y8384D01*
X141060Y8448D01*
X141092Y8487D01*
X141129Y8519D01*
X141193Y8609D01*
X141263Y8693D01*
X141284Y8738D01*
X141312Y8779D01*
X141351Y8882D01*
X141398Y8981D01*
X141407Y9030D01*
X141425Y9076D01*
X141437Y9186D01*
X141458Y9293D01*
X141455Y9343D01*
X141460Y9392D01*
X141445Y9501D01*
X141438Y9611D01*
X141423Y9658D01*
X141416Y9707D01*
X141364Y9860D01*
X140925Y10919D01*
X140925Y12957D01*
X141705Y14841D01*
X143147Y16283D01*
X145031Y17063D01*
X146731Y17063D01*
X146829Y17075D01*
X146928Y17078D01*
X146986Y17095D01*
X147046Y17103D01*
X147138Y17139D01*
X147233Y17167D01*
X147285Y17197D01*
X147342Y17220D01*
X147422Y17278D01*
X147507Y17328D01*
X147583Y17394D01*
X147599Y17406D01*
X147607Y17416D01*
X147628Y17434D01*
X148204Y18011D01*
X162638Y18011D01*
X162736Y18023D01*
X162835Y18026D01*
X162893Y18043D01*
X162953Y18051D01*
X163045Y18087D01*
X163140Y18115D01*
X163192Y18145D01*
X163249Y18168D01*
X163329Y18226D01*
X163414Y18276D01*
X163490Y18342D01*
X163506Y18354D01*
X163514Y18364D01*
X163535Y18382D01*
X164737Y19585D01*
X166621Y20365D01*
X168659Y20365D01*
X170543Y19585D01*
X171933Y18195D01*
X172042Y18110D01*
X172149Y18021D01*
X172168Y18012D01*
X172184Y18000D01*
X172312Y17945D01*
X172437Y17886D01*
X172457Y17882D01*
X172476Y17874D01*
X172614Y17852D01*
X172750Y17826D01*
X172770Y17827D01*
X172790Y17824D01*
X172929Y17837D01*
X173067Y17845D01*
X173086Y17852D01*
X173106Y17854D01*
X173238Y17901D01*
X173369Y17944D01*
X173387Y17954D01*
X173406Y17961D01*
X173521Y18039D01*
X173638Y18114D01*
X173652Y18128D01*
X173669Y18140D01*
X173761Y18244D01*
X173856Y18345D01*
X173866Y18363D01*
X173879Y18378D01*
X173943Y18502D01*
X174010Y18624D01*
X174015Y18643D01*
X174024Y18661D01*
X174054Y18797D01*
X174089Y18932D01*
X174091Y18960D01*
X174094Y18972D01*
X174093Y18992D01*
X174099Y19092D01*
X174099Y25466D01*
X174127Y25519D01*
X174135Y25558D01*
X174151Y25595D01*
X174170Y25713D01*
X174196Y25829D01*
X174195Y25870D01*
X174201Y25910D01*
X174190Y26028D01*
X174187Y26147D01*
X174175Y26186D01*
X174172Y26226D01*
X174131Y26338D01*
X174099Y26449D01*
X174099Y27456D01*
X174084Y27574D01*
X174077Y27693D01*
X174064Y27731D01*
X174059Y27772D01*
X174016Y27882D01*
X173979Y27995D01*
X173957Y28030D01*
X173942Y28067D01*
X173873Y28163D01*
X173809Y28264D01*
X173779Y28292D01*
X173756Y28325D01*
X173664Y28401D01*
X173577Y28482D01*
X173542Y28502D01*
X173511Y28527D01*
X173403Y28578D01*
X173299Y28636D01*
X173259Y28646D01*
X173223Y28663D01*
X173106Y28685D01*
X172991Y28715D01*
X172931Y28719D01*
X172911Y28723D01*
X172890Y28721D01*
X172830Y28725D01*
X171907Y28725D01*
X171878Y28722D01*
X171849Y28724D01*
X171721Y28702D01*
X171592Y28685D01*
X171565Y28675D01*
X171535Y28670D01*
X171417Y28616D01*
X171296Y28568D01*
X171272Y28551D01*
X171245Y28539D01*
X171144Y28458D01*
X171039Y28382D01*
X171020Y28359D01*
X170997Y28340D01*
X170919Y28237D01*
X170836Y28137D01*
X170824Y28110D01*
X170806Y28086D01*
X170735Y27942D01*
X169953Y26053D01*
X168511Y24611D01*
X166627Y23831D01*
X164589Y23831D01*
X162705Y24611D01*
X161263Y26053D01*
X160708Y27394D01*
X160694Y27419D01*
X160684Y27447D01*
X160615Y27557D01*
X160551Y27670D01*
X160530Y27691D01*
X160514Y27716D01*
X160420Y27805D01*
X160329Y27898D01*
X160304Y27914D01*
X160283Y27934D01*
X160169Y27997D01*
X160058Y28065D01*
X160030Y28073D01*
X160004Y28088D01*
X159878Y28120D01*
X159754Y28158D01*
X159725Y28160D01*
X159696Y28167D01*
X159536Y28177D01*
X150162Y28177D01*
X150064Y28165D01*
X149965Y28162D01*
X149907Y28145D01*
X149847Y28137D01*
X149755Y28101D01*
X149660Y28073D01*
X149608Y28043D01*
X149551Y28020D01*
X149471Y27962D01*
X149386Y27912D01*
X149310Y27846D01*
X149294Y27834D01*
X149286Y27824D01*
X149265Y27806D01*
X148063Y26603D01*
X146179Y25823D01*
X144141Y25823D01*
X142257Y26603D01*
X140815Y28045D01*
X140035Y29929D01*
X140035Y31967D01*
X140815Y33851D01*
X142257Y35293D01*
X144141Y36073D01*
X146179Y36073D01*
X148063Y35293D01*
X149265Y34090D01*
X149343Y34030D01*
X149415Y33962D01*
X149468Y33933D01*
X149516Y33896D01*
X149607Y33856D01*
X149694Y33808D01*
X149752Y33793D01*
X149808Y33769D01*
X149906Y33754D01*
X150002Y33729D01*
X150102Y33723D01*
X150122Y33719D01*
X150134Y33721D01*
X150162Y33719D01*
X163462Y33719D01*
X163471Y33720D01*
X163481Y33719D01*
X163629Y33740D01*
X163778Y33759D01*
X163786Y33762D01*
X163796Y33763D01*
X163948Y33815D01*
X164589Y34081D01*
X165154Y34081D01*
X165291Y34098D01*
X165430Y34111D01*
X165449Y34118D01*
X165469Y34121D01*
X165598Y34172D01*
X165729Y34219D01*
X165746Y34230D01*
X165765Y34238D01*
X165877Y34319D01*
X165992Y34397D01*
X166006Y34413D01*
X166022Y34424D01*
X166111Y34532D01*
X166203Y34636D01*
X166212Y34654D01*
X166225Y34669D01*
X166284Y34795D01*
X166347Y34919D01*
X166352Y34939D01*
X166360Y34957D01*
X166387Y35093D01*
X166417Y35229D01*
X166416Y35250D01*
X166420Y35269D01*
X166412Y35408D01*
X166407Y35547D01*
X166402Y35567D01*
X166401Y35587D01*
X166358Y35719D01*
X166319Y35853D01*
X166309Y35870D01*
X166302Y35889D01*
X166228Y36007D01*
X166157Y36127D01*
X166139Y36148D01*
X166132Y36158D01*
X166117Y36172D01*
X166051Y36248D01*
X165901Y36397D01*
X165121Y38281D01*
X165121Y40319D01*
X165901Y42203D01*
X167343Y43645D01*
X169227Y44425D01*
X171265Y44425D01*
X171844Y44185D01*
X171892Y44172D01*
X171937Y44151D01*
X172045Y44130D01*
X172151Y44101D01*
X172201Y44100D01*
X172250Y44091D01*
X172359Y44098D01*
X172469Y44096D01*
X172517Y44108D01*
X172567Y44111D01*
X172671Y44144D01*
X172778Y44170D01*
X172822Y44193D01*
X172869Y44209D01*
X172962Y44267D01*
X173059Y44319D01*
X173096Y44352D01*
X173138Y44379D01*
X173213Y44459D01*
X173295Y44533D01*
X173322Y44574D01*
X173356Y44610D01*
X173409Y44707D01*
X173469Y44798D01*
X173486Y44845D01*
X173510Y44889D01*
X173537Y44995D01*
X173573Y45099D01*
X173577Y45149D01*
X173589Y45197D01*
X173599Y45358D01*
X173599Y47000D01*
X173584Y47118D01*
X173577Y47237D01*
X173564Y47275D01*
X173559Y47316D01*
X173516Y47426D01*
X173479Y47539D01*
X173457Y47574D01*
X173442Y47611D01*
X173373Y47707D01*
X173309Y47808D01*
X173279Y47836D01*
X173256Y47869D01*
X173164Y47945D01*
X173077Y48026D01*
X173042Y48046D01*
X173011Y48071D01*
X172903Y48122D01*
X172799Y48180D01*
X172759Y48190D01*
X172723Y48207D01*
X172606Y48229D01*
X172491Y48259D01*
X172431Y48263D01*
X172411Y48267D01*
X172390Y48265D01*
X172330Y48269D01*
X166505Y48269D01*
X166504Y48269D01*
X166501Y48269D01*
X165355Y48266D01*
X164545Y49077D01*
X164544Y49077D01*
X164543Y49079D01*
X158188Y55400D01*
X158161Y55421D01*
X157006Y56576D01*
X157005Y56576D01*
X157004Y56578D01*
X156189Y57388D01*
X156189Y58535D01*
X156189Y58536D01*
X156189Y58538D01*
X156185Y60140D01*
X156185Y60146D01*
X156189Y60167D01*
X156187Y60179D01*
X156189Y60207D01*
X156189Y78287D01*
X156172Y78424D01*
X156159Y78563D01*
X156152Y78582D01*
X156149Y78602D01*
X156098Y78731D01*
X156051Y78862D01*
X156040Y78879D01*
X156032Y78898D01*
X155951Y79010D01*
X155873Y79125D01*
X155857Y79139D01*
X155846Y79155D01*
X155738Y79244D01*
X155634Y79336D01*
X155616Y79345D01*
X155601Y79358D01*
X155475Y79417D01*
X155351Y79480D01*
X155331Y79485D01*
X155313Y79494D01*
X155177Y79520D01*
X155041Y79550D01*
X155020Y79550D01*
X155001Y79553D01*
X154862Y79545D01*
X154723Y79540D01*
X154703Y79535D01*
X154683Y79534D01*
X154551Y79491D01*
X154417Y79452D01*
X154400Y79442D01*
X154381Y79436D01*
X154263Y79361D01*
X154143Y79291D01*
X154122Y79272D01*
X154112Y79265D01*
X154098Y79251D01*
X154023Y79184D01*
X153229Y78390D01*
X153223Y78383D01*
X153216Y78377D01*
X153126Y78258D01*
X153034Y78139D01*
X153030Y78131D01*
X153025Y78123D01*
X152954Y77979D01*
X152705Y77377D01*
X151263Y75935D01*
X149379Y75155D01*
X147341Y75155D01*
X145457Y75935D01*
X144015Y77377D01*
X143235Y79261D01*
X143235Y81299D01*
X144054Y83277D01*
X144059Y83283D01*
X144087Y83347D01*
X144123Y83406D01*
X144150Y83492D01*
X144185Y83575D01*
X144196Y83643D01*
X144217Y83710D01*
X144221Y83800D01*
X144235Y83889D01*
X144228Y83958D01*
X144232Y84028D01*
X144214Y84116D01*
X144205Y84205D01*
X144182Y84271D01*
X144167Y84339D01*
X144128Y84420D01*
X144098Y84505D01*
X144058Y84562D01*
X144028Y84625D01*
X143969Y84693D01*
X143919Y84768D01*
X143867Y84814D01*
X143821Y84867D01*
X143748Y84919D01*
X143681Y84978D01*
X143618Y85010D01*
X143561Y85050D01*
X143477Y85082D01*
X143397Y85123D01*
X143329Y85138D01*
X143264Y85163D01*
X143175Y85173D01*
X143087Y85192D01*
X143017Y85190D01*
X142948Y85198D01*
X142859Y85185D01*
X142769Y85183D01*
X142702Y85163D01*
X142633Y85154D01*
X142481Y85102D01*
X142079Y84935D01*
X140041Y84935D01*
X139806Y85033D01*
X139797Y85035D01*
X139788Y85040D01*
X139644Y85077D01*
X139499Y85117D01*
X139489Y85117D01*
X139480Y85119D01*
X139320Y85129D01*
X113854Y85129D01*
X113736Y85114D01*
X113617Y85107D01*
X113579Y85094D01*
X113538Y85089D01*
X113428Y85046D01*
X113315Y85009D01*
X113280Y84987D01*
X113243Y84972D01*
X113147Y84903D01*
X113046Y84839D01*
X113018Y84809D01*
X112985Y84786D01*
X112909Y84694D01*
X112828Y84607D01*
X112808Y84572D01*
X112783Y84541D01*
X112732Y84433D01*
X112674Y84329D01*
X112664Y84289D01*
X112647Y84253D01*
X112625Y84136D01*
X112595Y84021D01*
X112591Y83961D01*
X112587Y83941D01*
X112589Y83920D01*
X112585Y83860D01*
X112585Y83521D01*
X111805Y81637D01*
X110363Y80195D01*
X108479Y79415D01*
X106441Y79415D01*
X106061Y79573D01*
X106052Y79575D01*
X106044Y79580D01*
X105899Y79617D01*
X105754Y79657D01*
X105745Y79657D01*
X105736Y79659D01*
X105575Y79669D01*
X95732Y79669D01*
X93738Y81664D01*
X84351Y91050D01*
X84242Y91135D01*
X84135Y91224D01*
X84116Y91233D01*
X84100Y91245D01*
X83972Y91301D01*
X83847Y91360D01*
X83827Y91363D01*
X83808Y91371D01*
X83670Y91393D01*
X83534Y91419D01*
X83514Y91418D01*
X83494Y91421D01*
X83355Y91408D01*
X83217Y91400D01*
X83198Y91393D01*
X83178Y91391D01*
X83046Y91344D01*
X82915Y91302D01*
X82897Y91291D01*
X82878Y91284D01*
X82763Y91206D01*
X82646Y91131D01*
X82632Y91117D01*
X82615Y91105D01*
X82523Y91001D01*
X82428Y90900D01*
X82418Y90882D01*
X82405Y90867D01*
X82341Y90743D01*
X82274Y90621D01*
X82269Y90602D01*
X82260Y90584D01*
X82230Y90448D01*
X82195Y90313D01*
X82193Y90285D01*
X82190Y90273D01*
X82191Y90253D01*
X82185Y90153D01*
X82185Y89541D01*
X81405Y87657D01*
X79963Y86215D01*
X78079Y85435D01*
X76041Y85435D01*
X74157Y86215D01*
X72715Y87657D01*
X71935Y89541D01*
X71935Y91579D01*
X72715Y93463D01*
X74157Y94905D01*
X76041Y95685D01*
X77741Y95685D01*
X77839Y95697D01*
X77938Y95700D01*
X77996Y95717D01*
X78056Y95725D01*
X78148Y95761D01*
X78243Y95789D01*
X78295Y95819D01*
X78352Y95842D01*
X78432Y95900D01*
X78517Y95950D01*
X78593Y96016D01*
X78609Y96028D01*
X78617Y96038D01*
X78638Y96056D01*
X80492Y97911D01*
X85328Y97911D01*
X92871Y90367D01*
X92911Y90337D01*
X92944Y90300D01*
X93036Y90240D01*
X93123Y90172D01*
X93168Y90152D01*
X93210Y90125D01*
X93314Y90089D01*
X93414Y90046D01*
X93464Y90038D01*
X93510Y90022D01*
X93620Y90013D01*
X93729Y89996D01*
X93778Y90001D01*
X93828Y89997D01*
X93936Y90015D01*
X94045Y90026D01*
X94092Y90043D01*
X94141Y90051D01*
X94241Y90096D01*
X94344Y90133D01*
X94386Y90161D01*
X94431Y90182D01*
X94517Y90250D01*
X94608Y90312D01*
X94640Y90349D01*
X94679Y90380D01*
X94745Y90468D01*
X94818Y90550D01*
X94841Y90595D01*
X94871Y90634D01*
X94941Y90779D01*
X95477Y92073D01*
X96749Y93345D01*
X96822Y93439D01*
X96901Y93528D01*
X96919Y93564D01*
X96944Y93596D01*
X96991Y93705D01*
X97045Y93811D01*
X97054Y93850D01*
X97070Y93888D01*
X97089Y94005D01*
X97115Y94121D01*
X97114Y94162D01*
X97120Y94202D01*
X97109Y94320D01*
X97105Y94439D01*
X97094Y94478D01*
X97090Y94518D01*
X97050Y94630D01*
X97017Y94745D01*
X96996Y94780D01*
X96983Y94818D01*
X96916Y94916D01*
X96855Y95019D01*
X96816Y95064D01*
X96804Y95081D01*
X96789Y95094D01*
X96749Y95140D01*
X95731Y96157D01*
X94951Y98041D01*
X94951Y100079D01*
X95731Y101963D01*
X97225Y103457D01*
X97306Y103503D01*
X97327Y103523D01*
X97352Y103539D01*
X97441Y103634D01*
X97534Y103724D01*
X97550Y103749D01*
X97570Y103771D01*
X97633Y103884D01*
X97701Y103995D01*
X97709Y104023D01*
X97724Y104049D01*
X97756Y104175D01*
X97794Y104299D01*
X97796Y104329D01*
X97803Y104357D01*
X97813Y104518D01*
X97813Y106302D01*
X97810Y106332D01*
X97812Y106361D01*
X97790Y106489D01*
X97773Y106618D01*
X97763Y106645D01*
X97757Y106674D01*
X97704Y106793D01*
X97656Y106913D01*
X97639Y106937D01*
X97627Y106964D01*
X97546Y107066D01*
X97470Y107171D01*
X97447Y107190D01*
X97428Y107213D01*
X97325Y107291D01*
X97225Y107374D01*
X97206Y107382D01*
X95731Y108857D01*
X94951Y110741D01*
X94951Y112779D01*
X95316Y113660D01*
X95329Y113708D01*
X95350Y113753D01*
X95371Y113861D01*
X95400Y113967D01*
X95401Y114017D01*
X95410Y114066D01*
X95403Y114175D01*
X95405Y114285D01*
X95394Y114333D01*
X95390Y114383D01*
X95357Y114487D01*
X95331Y114594D01*
X95308Y114638D01*
X95292Y114685D01*
X95234Y114778D01*
X95182Y114875D01*
X95149Y114912D01*
X95122Y114954D01*
X95042Y115029D01*
X94968Y115111D01*
X94927Y115138D01*
X94891Y115172D01*
X94794Y115225D01*
X94703Y115285D01*
X94656Y115302D01*
X94612Y115326D01*
X94506Y115353D01*
X94402Y115389D01*
X94352Y115393D01*
X94304Y115405D01*
X94144Y115415D01*
X93941Y115415D01*
X92057Y116195D01*
X90615Y117637D01*
X89835Y119521D01*
X89835Y121559D01*
X90615Y123443D01*
X92057Y124885D01*
X93941Y125665D01*
X95979Y125665D01*
X97863Y124885D01*
X98962Y123786D01*
X99061Y123709D01*
X99157Y123626D01*
X99187Y123611D01*
X99213Y123591D01*
X99329Y123541D01*
X99442Y123484D01*
X99475Y123478D01*
X99505Y123465D01*
X99630Y123445D01*
X99754Y123418D01*
X99786Y123420D01*
X99819Y123415D01*
X99945Y123427D01*
X100071Y123432D01*
X100103Y123441D01*
X100135Y123445D01*
X100255Y123487D01*
X100376Y123524D01*
X100404Y123541D01*
X100435Y123552D01*
X100540Y123623D01*
X100648Y123689D01*
X100683Y123721D01*
X100698Y123731D01*
X100712Y123747D01*
X100767Y123797D01*
X104006Y127113D01*
X104085Y127218D01*
X104169Y127319D01*
X104181Y127345D01*
X104198Y127367D01*
X104248Y127488D01*
X104304Y127607D01*
X104310Y127634D01*
X104320Y127660D01*
X104339Y127791D01*
X104364Y127920D01*
X104362Y127947D01*
X104366Y127975D01*
X104353Y128106D01*
X104344Y128237D01*
X104336Y128263D01*
X104333Y128291D01*
X104287Y128414D01*
X104246Y128539D01*
X104231Y128563D01*
X104222Y128589D01*
X104147Y128697D01*
X104076Y128808D01*
X104056Y128827D01*
X104040Y128850D01*
X103940Y128936D01*
X103845Y129026D01*
X103820Y129039D01*
X103799Y129058D01*
X103681Y129116D01*
X103566Y129180D01*
X103539Y129187D01*
X103514Y129199D01*
X103386Y129226D01*
X103258Y129259D01*
X103219Y129262D01*
X103203Y129265D01*
X103181Y129264D01*
X103097Y129269D01*
X55462Y129269D01*
X55364Y129257D01*
X55265Y129254D01*
X55207Y129237D01*
X55147Y129229D01*
X55055Y129193D01*
X54960Y129165D01*
X54908Y129135D01*
X54851Y129112D01*
X54771Y129054D01*
X54686Y129004D01*
X54610Y128938D01*
X54594Y128926D01*
X54586Y128916D01*
X54565Y128898D01*
X53602Y127935D01*
X53542Y127857D01*
X53474Y127785D01*
X53445Y127732D01*
X53408Y127684D01*
X53368Y127593D01*
X53320Y127506D01*
X53305Y127448D01*
X53281Y127392D01*
X53266Y127294D01*
X53241Y127198D01*
X53235Y127098D01*
X53231Y127078D01*
X53233Y127066D01*
X53231Y127038D01*
X53231Y69080D01*
X53246Y68962D01*
X53253Y68843D01*
X53266Y68805D01*
X53271Y68764D01*
X53314Y68654D01*
X53351Y68541D01*
X53373Y68506D01*
X53388Y68469D01*
X53457Y68373D01*
X53521Y68272D01*
X53551Y68244D01*
X53574Y68211D01*
X53666Y68135D01*
X53753Y68054D01*
X53788Y68034D01*
X53819Y68009D01*
X53927Y67958D01*
X54031Y67900D01*
X54071Y67890D01*
X54107Y67873D01*
X54224Y67851D01*
X54339Y67821D01*
X54399Y67817D01*
X54419Y67813D01*
X54440Y67815D01*
X54500Y67811D01*
X71608Y67811D01*
X81511Y57908D01*
X81511Y24322D01*
X81523Y24224D01*
X81526Y24125D01*
X81543Y24067D01*
X81551Y24007D01*
X81587Y23915D01*
X81615Y23820D01*
X81645Y23768D01*
X81668Y23711D01*
X81726Y23631D01*
X81776Y23546D01*
X81842Y23470D01*
X81854Y23454D01*
X81864Y23446D01*
X81882Y23425D01*
X83085Y22223D01*
X83865Y20339D01*
X83865Y18301D01*
X83085Y16417D01*
X81643Y14975D01*
X79759Y14195D01*
X77721Y14195D01*
X77098Y14453D01*
X77030Y14472D01*
X76966Y14499D01*
X76877Y14514D01*
X76791Y14537D01*
X76721Y14538D01*
X76652Y14549D01*
X76563Y14541D01*
X76473Y14542D01*
X76405Y14526D01*
X76336Y14520D01*
X76251Y14489D01*
X76164Y14468D01*
X76102Y14436D01*
X76036Y14412D01*
X75962Y14362D01*
X75883Y14319D01*
X75831Y14273D01*
X75773Y14233D01*
X75714Y14166D01*
X75647Y14106D01*
X75609Y14047D01*
X75563Y13995D01*
X75522Y13915D01*
X75472Y13840D01*
X75450Y13774D01*
X75418Y13712D01*
X75398Y13624D01*
X75369Y13539D01*
X75364Y13469D01*
X75348Y13401D01*
X75351Y13312D01*
X75344Y13222D01*
X75356Y13153D01*
X75358Y13083D01*
X75383Y12997D01*
X75398Y12909D01*
X75427Y12845D01*
X75446Y12778D01*
X75492Y12701D01*
X75529Y12619D01*
X75573Y12564D01*
X75608Y12504D01*
X75714Y12383D01*
X77081Y11016D01*
X77159Y10956D01*
X77232Y10888D01*
X77285Y10859D01*
X77332Y10822D01*
X77423Y10782D01*
X77510Y10734D01*
X77569Y10719D01*
X77624Y10695D01*
X77722Y10680D01*
X77818Y10655D01*
X77918Y10649D01*
X77938Y10645D01*
X77951Y10647D01*
X77979Y10645D01*
X88137Y10645D01*
X88236Y10657D01*
X88335Y10660D01*
X88393Y10677D01*
X88453Y10685D01*
X88545Y10721D01*
X88640Y10749D01*
X88692Y10779D01*
X88749Y10802D01*
X88829Y10860D01*
X88914Y10910D01*
X88989Y10976D01*
X89006Y10988D01*
X89014Y10998D01*
X89035Y11016D01*
X89568Y11549D01*
X89628Y11627D01*
X89696Y11700D01*
X89725Y11753D01*
X89762Y11800D01*
X89802Y11891D01*
X89850Y11978D01*
X89865Y12037D01*
X89889Y12092D01*
X89904Y12190D01*
X89929Y12286D01*
X89935Y12386D01*
X89939Y12406D01*
X89937Y12419D01*
X89939Y12447D01*
X89939Y13288D01*
X89927Y13386D01*
X89924Y13485D01*
X89907Y13543D01*
X89899Y13603D01*
X89863Y13695D01*
X89835Y13790D01*
X89805Y13842D01*
X89782Y13899D01*
X89724Y13979D01*
X89674Y14064D01*
X89608Y14140D01*
X89596Y14156D01*
X89586Y14164D01*
X89568Y14185D01*
X88615Y15137D01*
X87835Y17021D01*
X87835Y19059D01*
X88615Y20943D01*
X90057Y22385D01*
X91941Y23165D01*
X93979Y23165D01*
X95863Y22385D01*
X97305Y20943D01*
X98085Y19059D01*
X98085Y17021D01*
X97305Y15137D01*
X96360Y14193D01*
X96300Y14115D01*
X96232Y14043D01*
X96203Y13990D01*
X96166Y13942D01*
X96126Y13851D01*
X96078Y13764D01*
X96063Y13706D01*
X96039Y13650D01*
X96024Y13552D01*
X95999Y13456D01*
X95993Y13356D01*
X95989Y13336D01*
X95991Y13324D01*
X95989Y13296D01*
X95989Y12447D01*
X96001Y12348D01*
X96004Y12249D01*
X96021Y12191D01*
X96029Y12131D01*
X96065Y12039D01*
X96093Y11944D01*
X96123Y11892D01*
X96146Y11835D01*
X96204Y11755D01*
X96254Y11670D01*
X96320Y11595D01*
X96332Y11578D01*
X96342Y11570D01*
X96360Y11549D01*
X99433Y8476D01*
X99511Y8416D01*
X99584Y8348D01*
X99637Y8319D01*
X99684Y8282D01*
X99775Y8242D01*
X99862Y8194D01*
X99921Y8179D01*
X99976Y8155D01*
X100074Y8140D01*
X100170Y8115D01*
X100270Y8109D01*
X100290Y8105D01*
X100303Y8107D01*
X100331Y8105D01*
X140191Y8105D01*
X140241Y8111D01*
G37*
G36*
X295539Y3246D02*
X295539Y3246D01*
X295658Y3254D01*
X295696Y3266D01*
X295736Y3271D01*
X295847Y3315D01*
X295960Y3352D01*
X295994Y3373D01*
X296032Y3388D01*
X296128Y3458D01*
X296229Y3522D01*
X296257Y3551D01*
X296289Y3575D01*
X296365Y3666D01*
X296447Y3753D01*
X296466Y3789D01*
X296492Y3820D01*
X296543Y3928D01*
X296600Y4032D01*
X296610Y4071D01*
X296628Y4108D01*
X296650Y4225D01*
X296680Y4340D01*
X296684Y4400D01*
X296688Y4420D01*
X296686Y4440D01*
X296690Y4500D01*
X296693Y16350D01*
X296678Y16468D01*
X296670Y16587D01*
X296658Y16625D01*
X296653Y16665D01*
X296609Y16776D01*
X296572Y16889D01*
X296551Y16924D01*
X296536Y16961D01*
X296466Y17057D01*
X296402Y17158D01*
X296373Y17186D01*
X296349Y17218D01*
X296257Y17294D01*
X296170Y17376D01*
X296135Y17396D01*
X296104Y17421D01*
X295996Y17472D01*
X295892Y17530D01*
X295853Y17540D01*
X295816Y17557D01*
X295699Y17579D01*
X295584Y17609D01*
X295524Y17613D01*
X295504Y17617D01*
X295484Y17615D01*
X295423Y17619D01*
X291969Y17619D01*
X291969Y27850D01*
X291954Y27968D01*
X291947Y28087D01*
X291934Y28125D01*
X291929Y28165D01*
X291885Y28276D01*
X291849Y28389D01*
X291827Y28424D01*
X291812Y28461D01*
X291742Y28557D01*
X291679Y28658D01*
X291649Y28686D01*
X291625Y28718D01*
X291534Y28794D01*
X291447Y28876D01*
X291412Y28895D01*
X291380Y28921D01*
X291273Y28972D01*
X291169Y29029D01*
X291129Y29040D01*
X291093Y29057D01*
X290976Y29079D01*
X290861Y29109D01*
X290800Y29113D01*
X290780Y29117D01*
X290760Y29115D01*
X290700Y29119D01*
X289429Y29119D01*
X289429Y29121D01*
X290700Y29121D01*
X290818Y29136D01*
X290937Y29143D01*
X290975Y29156D01*
X291015Y29161D01*
X291126Y29205D01*
X291239Y29241D01*
X291274Y29263D01*
X291311Y29278D01*
X291407Y29348D01*
X291508Y29411D01*
X291536Y29441D01*
X291568Y29465D01*
X291644Y29556D01*
X291726Y29643D01*
X291745Y29678D01*
X291771Y29710D01*
X291822Y29817D01*
X291879Y29921D01*
X291890Y29961D01*
X291907Y29997D01*
X291929Y30114D01*
X291959Y30229D01*
X291963Y30290D01*
X291967Y30310D01*
X291965Y30330D01*
X291969Y30390D01*
X291969Y40621D01*
X295428Y40621D01*
X295546Y40636D01*
X295665Y40643D01*
X295704Y40655D01*
X295744Y40661D01*
X295854Y40704D01*
X295968Y40741D01*
X296002Y40763D01*
X296040Y40778D01*
X296136Y40847D01*
X296236Y40911D01*
X296264Y40941D01*
X296297Y40964D01*
X296373Y41056D01*
X296454Y41143D01*
X296474Y41178D01*
X296500Y41209D01*
X296550Y41317D01*
X296608Y41421D01*
X296618Y41460D01*
X296635Y41497D01*
X296658Y41613D01*
X296687Y41729D01*
X296691Y41789D01*
X296695Y41809D01*
X296694Y41830D01*
X296698Y41890D01*
X296703Y67296D01*
X296696Y67346D01*
X296699Y67395D01*
X296677Y67503D01*
X296663Y67612D01*
X296645Y67658D01*
X296635Y67707D01*
X296586Y67805D01*
X296546Y67907D01*
X296517Y67948D01*
X296495Y67992D01*
X296424Y68076D01*
X296359Y68165D01*
X296321Y68197D01*
X296288Y68234D01*
X296199Y68298D01*
X296114Y68368D01*
X296069Y68389D01*
X296028Y68418D01*
X295926Y68456D01*
X295827Y68503D01*
X295778Y68513D01*
X295731Y68530D01*
X295622Y68542D01*
X295514Y68563D01*
X295465Y68560D01*
X295415Y68565D01*
X295306Y68550D01*
X295197Y68543D01*
X295149Y68528D01*
X295100Y68521D01*
X294948Y68469D01*
X293881Y68027D01*
X292541Y68027D01*
X292442Y68015D01*
X292343Y68012D01*
X292285Y67995D01*
X292225Y67987D01*
X292133Y67951D01*
X292038Y67923D01*
X291986Y67893D01*
X291929Y67870D01*
X291849Y67812D01*
X291764Y67762D01*
X291689Y67696D01*
X291672Y67684D01*
X291664Y67674D01*
X291643Y67656D01*
X229946Y5958D01*
X229889Y5886D01*
X229826Y5819D01*
X229820Y5809D01*
X229419Y5416D01*
X229328Y5302D01*
X229235Y5190D01*
X229230Y5178D01*
X229221Y5167D01*
X229162Y5034D01*
X229100Y4902D01*
X229097Y4889D01*
X229092Y4876D01*
X229067Y4733D01*
X229040Y4590D01*
X229041Y4576D01*
X229039Y4563D01*
X229051Y4417D01*
X229060Y4273D01*
X229064Y4260D01*
X229065Y4246D01*
X229113Y4108D01*
X229158Y3970D01*
X229165Y3958D01*
X229170Y3945D01*
X229250Y3824D01*
X229328Y3701D01*
X229338Y3692D01*
X229345Y3680D01*
X229453Y3583D01*
X229559Y3483D01*
X229571Y3477D01*
X229582Y3468D01*
X229710Y3400D01*
X229838Y3330D01*
X229851Y3326D01*
X229863Y3320D01*
X230005Y3287D01*
X230146Y3250D01*
X230164Y3249D01*
X230173Y3247D01*
X230190Y3247D01*
X230307Y3240D01*
X295421Y3231D01*
X295539Y3246D01*
G37*
G36*
X180363Y40341D02*
X180363Y40341D01*
X180482Y40348D01*
X180520Y40360D01*
X180560Y40366D01*
X180671Y40409D01*
X180784Y40446D01*
X180818Y40468D01*
X180856Y40483D01*
X180952Y40552D01*
X181053Y40616D01*
X181081Y40646D01*
X181105Y40664D01*
X181121Y40650D01*
X181208Y40569D01*
X181243Y40549D01*
X181275Y40524D01*
X181382Y40473D01*
X181487Y40415D01*
X181526Y40405D01*
X181562Y40388D01*
X181679Y40366D01*
X181795Y40336D01*
X181855Y40332D01*
X181875Y40328D01*
X181895Y40330D01*
X181955Y40326D01*
X187774Y40326D01*
X187872Y40338D01*
X187971Y40341D01*
X188029Y40358D01*
X188089Y40366D01*
X188181Y40402D01*
X188276Y40430D01*
X188328Y40460D01*
X188385Y40483D01*
X188465Y40541D01*
X188550Y40591D01*
X188626Y40657D01*
X188642Y40669D01*
X188650Y40679D01*
X188671Y40697D01*
X189216Y41242D01*
X189216Y41243D01*
X190381Y42408D01*
X190466Y42517D01*
X190555Y42624D01*
X190561Y42637D01*
X190647Y42687D01*
X190668Y42706D01*
X190678Y42713D01*
X190692Y42728D01*
X190767Y42794D01*
X192798Y44824D01*
X192858Y44902D01*
X192926Y44974D01*
X192955Y45027D01*
X192992Y45075D01*
X193032Y45166D01*
X193080Y45253D01*
X193095Y45311D01*
X193119Y45367D01*
X193134Y45465D01*
X193159Y45561D01*
X193165Y45661D01*
X193169Y45681D01*
X193167Y45693D01*
X193169Y45721D01*
X193169Y52832D01*
X195164Y54826D01*
X198534Y58196D01*
X200528Y60191D01*
X204067Y60191D01*
X204165Y60203D01*
X204264Y60206D01*
X204322Y60223D01*
X204382Y60231D01*
X204474Y60267D01*
X204569Y60295D01*
X204621Y60325D01*
X204678Y60348D01*
X204758Y60406D01*
X204843Y60456D01*
X204919Y60522D01*
X204935Y60534D01*
X204943Y60544D01*
X204964Y60562D01*
X210504Y66103D01*
X210589Y66212D01*
X210678Y66319D01*
X210687Y66338D01*
X210699Y66354D01*
X210755Y66482D01*
X210814Y66607D01*
X210817Y66627D01*
X210825Y66646D01*
X210847Y66784D01*
X210873Y66920D01*
X210872Y66940D01*
X210875Y66960D01*
X210862Y67099D01*
X210854Y67237D01*
X210847Y67256D01*
X210845Y67276D01*
X210798Y67408D01*
X210756Y67539D01*
X210745Y67557D01*
X210738Y67576D01*
X210660Y67691D01*
X210585Y67808D01*
X210571Y67822D01*
X210559Y67839D01*
X210455Y67931D01*
X210354Y68026D01*
X210336Y68036D01*
X210321Y68049D01*
X210197Y68113D01*
X210075Y68180D01*
X210056Y68185D01*
X210038Y68194D01*
X209902Y68224D01*
X209767Y68259D01*
X209739Y68261D01*
X209727Y68264D01*
X209707Y68263D01*
X209607Y68269D01*
X199180Y68269D01*
X199062Y68254D01*
X198943Y68247D01*
X198905Y68234D01*
X198864Y68229D01*
X198754Y68186D01*
X198641Y68149D01*
X198606Y68127D01*
X198569Y68112D01*
X198473Y68043D01*
X198372Y67979D01*
X198344Y67949D01*
X198311Y67926D01*
X198235Y67834D01*
X198154Y67747D01*
X198134Y67712D01*
X198109Y67681D01*
X198058Y67573D01*
X198000Y67469D01*
X197990Y67429D01*
X197973Y67393D01*
X197951Y67276D01*
X197921Y67161D01*
X197917Y67101D01*
X197913Y67081D01*
X197915Y67060D01*
X197911Y67000D01*
X197911Y65799D01*
X197131Y63915D01*
X195689Y62473D01*
X193805Y61693D01*
X191767Y61693D01*
X189856Y62485D01*
X189808Y62498D01*
X189763Y62519D01*
X189655Y62540D01*
X189549Y62569D01*
X189499Y62570D01*
X189450Y62579D01*
X189341Y62572D01*
X189231Y62574D01*
X189183Y62562D01*
X189133Y62559D01*
X189029Y62525D01*
X188922Y62500D01*
X188878Y62476D01*
X188831Y62461D01*
X188738Y62402D01*
X188641Y62351D01*
X188604Y62318D01*
X188562Y62291D01*
X188487Y62211D01*
X188405Y62137D01*
X188378Y62096D01*
X188344Y62059D01*
X188291Y61963D01*
X188231Y61871D01*
X188214Y61824D01*
X188190Y61781D01*
X188163Y61675D01*
X188127Y61571D01*
X188123Y61521D01*
X188111Y61473D01*
X188101Y61312D01*
X188101Y59434D01*
X188073Y59381D01*
X188065Y59341D01*
X188049Y59304D01*
X188030Y59187D01*
X188004Y59070D01*
X188005Y59030D01*
X187999Y58990D01*
X188010Y58872D01*
X188014Y58753D01*
X188025Y58714D01*
X188029Y58674D01*
X188069Y58562D01*
X188101Y58451D01*
X188101Y48442D01*
X188112Y48351D01*
X188114Y48258D01*
X188132Y48193D01*
X188141Y48127D01*
X188175Y48041D01*
X188199Y47952D01*
X188251Y47847D01*
X188258Y47831D01*
X188263Y47824D01*
X188271Y47808D01*
X188464Y47472D01*
X188601Y46963D01*
X188601Y44574D01*
X181955Y44574D01*
X181837Y44559D01*
X181718Y44552D01*
X181680Y44539D01*
X181640Y44534D01*
X181529Y44491D01*
X181416Y44454D01*
X181382Y44432D01*
X181344Y44417D01*
X181248Y44348D01*
X181147Y44284D01*
X181119Y44254D01*
X181095Y44236D01*
X181079Y44250D01*
X180992Y44331D01*
X180957Y44351D01*
X180925Y44376D01*
X180818Y44427D01*
X180713Y44485D01*
X180674Y44495D01*
X180638Y44512D01*
X180521Y44534D01*
X180405Y44564D01*
X180345Y44568D01*
X180325Y44572D01*
X180305Y44570D01*
X180245Y44574D01*
X175283Y44574D01*
X175146Y44557D01*
X175007Y44544D01*
X174988Y44537D01*
X174968Y44534D01*
X174839Y44483D01*
X174708Y44436D01*
X174691Y44425D01*
X174672Y44417D01*
X174560Y44336D01*
X174445Y44258D01*
X174431Y44242D01*
X174415Y44231D01*
X174326Y44123D01*
X174234Y44019D01*
X174225Y44001D01*
X174212Y43986D01*
X174153Y43860D01*
X174090Y43736D01*
X174085Y43716D01*
X174077Y43698D01*
X174050Y43562D01*
X174020Y43426D01*
X174021Y43405D01*
X174017Y43386D01*
X174025Y43247D01*
X174030Y43108D01*
X174035Y43088D01*
X174036Y43068D01*
X174079Y42936D01*
X174118Y42802D01*
X174128Y42785D01*
X174135Y42766D01*
X174209Y42648D01*
X174280Y42528D01*
X174298Y42507D01*
X174305Y42497D01*
X174320Y42483D01*
X174386Y42407D01*
X174591Y42203D01*
X175044Y41109D01*
X175058Y41084D01*
X175067Y41056D01*
X175137Y40946D01*
X175201Y40833D01*
X175222Y40812D01*
X175237Y40787D01*
X175332Y40698D01*
X175422Y40605D01*
X175448Y40589D01*
X175469Y40569D01*
X175583Y40506D01*
X175694Y40438D01*
X175722Y40430D01*
X175748Y40415D01*
X175873Y40383D01*
X175997Y40345D01*
X176027Y40343D01*
X176056Y40336D01*
X176216Y40326D01*
X180245Y40326D01*
X180363Y40341D01*
G37*
G36*
X111445Y171937D02*
X111445Y171937D01*
X111465Y171935D01*
X111603Y171957D01*
X111741Y171975D01*
X111760Y171982D01*
X111779Y171985D01*
X111908Y172040D01*
X112037Y172092D01*
X112053Y172103D01*
X112071Y172111D01*
X112181Y172196D01*
X112294Y172278D01*
X112307Y172294D01*
X112323Y172306D01*
X112408Y172416D01*
X112497Y172523D01*
X112506Y172541D01*
X112518Y172557D01*
X112573Y172685D01*
X112633Y172811D01*
X112636Y172831D01*
X112644Y172849D01*
X112666Y172987D01*
X112692Y173123D01*
X112691Y173143D01*
X112694Y173163D01*
X112681Y173302D01*
X112673Y173441D01*
X112666Y173460D01*
X112665Y173480D01*
X112618Y173610D01*
X112575Y173743D01*
X112564Y173760D01*
X112557Y173779D01*
X112479Y173894D01*
X112404Y174012D01*
X112390Y174026D01*
X112379Y174042D01*
X112274Y174134D01*
X112173Y174230D01*
X112155Y174240D01*
X112140Y174253D01*
X112002Y174335D01*
X111374Y174655D01*
X109922Y175710D01*
X108654Y176978D01*
X107599Y178430D01*
X106784Y180028D01*
X106230Y181735D01*
X106209Y181865D01*
X116078Y181865D01*
X116196Y181880D01*
X116315Y181887D01*
X116353Y181900D01*
X116393Y181905D01*
X116504Y181948D01*
X116617Y181985D01*
X116651Y182007D01*
X116689Y182022D01*
X116785Y182092D01*
X116886Y182155D01*
X116914Y182185D01*
X116946Y182208D01*
X117022Y182300D01*
X117104Y182387D01*
X117123Y182422D01*
X117149Y182453D01*
X117200Y182561D01*
X117257Y182665D01*
X117268Y182705D01*
X117285Y182741D01*
X117307Y182858D01*
X117337Y182973D01*
X117341Y183034D01*
X117345Y183054D01*
X117343Y183074D01*
X117347Y183134D01*
X117347Y185674D01*
X117332Y185792D01*
X117325Y185911D01*
X117312Y185949D01*
X117307Y185989D01*
X117263Y186100D01*
X117227Y186213D01*
X117205Y186248D01*
X117190Y186285D01*
X117120Y186381D01*
X117057Y186482D01*
X117027Y186510D01*
X117003Y186543D01*
X116912Y186618D01*
X116825Y186700D01*
X116790Y186720D01*
X116758Y186745D01*
X116651Y186796D01*
X116546Y186854D01*
X116507Y186864D01*
X116471Y186881D01*
X116354Y186903D01*
X116239Y186933D01*
X116178Y186937D01*
X116158Y186941D01*
X116138Y186939D01*
X116078Y186943D01*
X106209Y186943D01*
X106230Y187073D01*
X106784Y188780D01*
X107599Y190378D01*
X108654Y191830D01*
X109922Y193098D01*
X111374Y194153D01*
X111719Y194329D01*
X111736Y194340D01*
X111754Y194348D01*
X111867Y194429D01*
X111982Y194508D01*
X111995Y194523D01*
X112012Y194534D01*
X112100Y194642D01*
X112193Y194746D01*
X112202Y194764D01*
X112214Y194779D01*
X112274Y194905D01*
X112337Y195030D01*
X112341Y195049D01*
X112350Y195067D01*
X112376Y195203D01*
X112407Y195340D01*
X112406Y195360D01*
X112410Y195380D01*
X112401Y195518D01*
X112397Y195658D01*
X112391Y195677D01*
X112390Y195697D01*
X112347Y195829D01*
X112308Y195963D01*
X112298Y195981D01*
X112292Y195999D01*
X112218Y196117D01*
X112147Y196237D01*
X112132Y196251D01*
X112122Y196268D01*
X112020Y196364D01*
X111922Y196462D01*
X111905Y196472D01*
X111890Y196486D01*
X111768Y196553D01*
X111648Y196624D01*
X111629Y196630D01*
X111612Y196640D01*
X111477Y196674D01*
X111343Y196713D01*
X111323Y196714D01*
X111304Y196719D01*
X111143Y196729D01*
X97053Y196729D01*
X96984Y196721D01*
X96914Y196722D01*
X96826Y196701D01*
X96737Y196689D01*
X96672Y196664D01*
X96605Y196647D01*
X96525Y196605D01*
X96442Y196572D01*
X96385Y196531D01*
X96323Y196499D01*
X96257Y196438D01*
X96184Y196386D01*
X96140Y196332D01*
X96088Y196285D01*
X96039Y196210D01*
X95981Y196141D01*
X95952Y196077D01*
X95913Y196019D01*
X95884Y195934D01*
X95846Y195853D01*
X95833Y195784D01*
X95810Y195718D01*
X95803Y195629D01*
X95786Y195541D01*
X95790Y195471D01*
X95785Y195401D01*
X95800Y195313D01*
X95806Y195223D01*
X95827Y195157D01*
X95839Y195088D01*
X95876Y195006D01*
X95904Y194921D01*
X95941Y194862D01*
X95970Y194798D01*
X96026Y194728D01*
X96074Y194652D01*
X96125Y194604D01*
X96168Y194550D01*
X96240Y194495D01*
X96306Y194434D01*
X96367Y194400D01*
X96423Y194358D01*
X96567Y194287D01*
X98122Y193644D01*
X101188Y190578D01*
X102847Y186572D01*
X102847Y182236D01*
X101762Y179617D01*
X101754Y179588D01*
X101741Y179562D01*
X101712Y179435D01*
X101678Y179310D01*
X101677Y179280D01*
X101671Y179252D01*
X101675Y179122D01*
X101673Y178992D01*
X101680Y178963D01*
X101681Y178934D01*
X101717Y178809D01*
X101747Y178683D01*
X101761Y178657D01*
X101769Y178628D01*
X101835Y178517D01*
X101896Y178402D01*
X101916Y178380D01*
X101930Y178354D01*
X102037Y178234D01*
X107964Y172306D01*
X108042Y172246D01*
X108114Y172178D01*
X108167Y172149D01*
X108215Y172112D01*
X108306Y172072D01*
X108393Y172024D01*
X108451Y172009D01*
X108507Y171985D01*
X108605Y171970D01*
X108701Y171945D01*
X108801Y171939D01*
X108821Y171935D01*
X108833Y171937D01*
X108861Y171935D01*
X111426Y171935D01*
X111445Y171937D01*
G37*
G36*
X172448Y3263D02*
X172448Y3263D01*
X172567Y3270D01*
X172605Y3282D01*
X172645Y3288D01*
X172756Y3331D01*
X172869Y3368D01*
X172904Y3390D01*
X172941Y3405D01*
X173038Y3475D01*
X173138Y3538D01*
X173166Y3568D01*
X173198Y3591D01*
X173274Y3683D01*
X173356Y3770D01*
X173376Y3805D01*
X173401Y3836D01*
X173452Y3944D01*
X173510Y4048D01*
X173520Y4087D01*
X173537Y4124D01*
X173559Y4241D01*
X173589Y4356D01*
X173593Y4416D01*
X173597Y4436D01*
X173595Y4457D01*
X173599Y4517D01*
X173599Y6311D01*
X183330Y6311D01*
X183448Y6326D01*
X183567Y6333D01*
X183605Y6346D01*
X183645Y6351D01*
X183756Y6394D01*
X183869Y6431D01*
X183904Y6453D01*
X183941Y6468D01*
X184037Y6538D01*
X184138Y6601D01*
X184166Y6631D01*
X184198Y6655D01*
X184274Y6746D01*
X184356Y6833D01*
X184375Y6868D01*
X184401Y6899D01*
X184452Y7007D01*
X184509Y7111D01*
X184520Y7151D01*
X184537Y7187D01*
X184559Y7304D01*
X184589Y7419D01*
X184593Y7480D01*
X184597Y7500D01*
X184595Y7520D01*
X184599Y7580D01*
X184599Y10120D01*
X184584Y10238D01*
X184577Y10357D01*
X184564Y10395D01*
X184559Y10435D01*
X184515Y10546D01*
X184479Y10659D01*
X184457Y10694D01*
X184442Y10731D01*
X184372Y10827D01*
X184309Y10928D01*
X184279Y10956D01*
X184255Y10988D01*
X184164Y11064D01*
X184077Y11146D01*
X184042Y11165D01*
X184010Y11191D01*
X183903Y11242D01*
X183799Y11299D01*
X183759Y11310D01*
X183723Y11327D01*
X183606Y11349D01*
X183491Y11379D01*
X183430Y11383D01*
X183410Y11387D01*
X183390Y11385D01*
X183330Y11389D01*
X173488Y11389D01*
X173461Y11463D01*
X173450Y11480D01*
X173442Y11499D01*
X173361Y11611D01*
X173283Y11726D01*
X173267Y11740D01*
X173256Y11756D01*
X173148Y11845D01*
X173044Y11937D01*
X173026Y11946D01*
X173011Y11959D01*
X172885Y12018D01*
X172761Y12081D01*
X172741Y12086D01*
X172723Y12094D01*
X172586Y12121D01*
X172451Y12151D01*
X172430Y12150D01*
X172411Y12154D01*
X172272Y12146D01*
X172133Y12141D01*
X172113Y12136D01*
X172093Y12135D01*
X171961Y12092D01*
X171827Y12053D01*
X171810Y12043D01*
X171791Y12036D01*
X171673Y11962D01*
X171553Y11891D01*
X171532Y11873D01*
X171522Y11866D01*
X171508Y11851D01*
X171433Y11785D01*
X170543Y10895D01*
X168659Y10115D01*
X166731Y10115D01*
X166681Y10109D01*
X166632Y10111D01*
X166524Y10089D01*
X166415Y10075D01*
X166369Y10057D01*
X166320Y10047D01*
X166222Y9999D01*
X166119Y9958D01*
X166079Y9929D01*
X166034Y9907D01*
X165951Y9836D01*
X165862Y9772D01*
X165830Y9733D01*
X165792Y9701D01*
X165729Y9611D01*
X165659Y9527D01*
X165638Y9482D01*
X165609Y9441D01*
X165570Y9338D01*
X165524Y9239D01*
X165514Y9190D01*
X165497Y9144D01*
X165484Y9034D01*
X165464Y8927D01*
X165467Y8877D01*
X165461Y8828D01*
X165477Y8719D01*
X165484Y8609D01*
X165499Y8562D01*
X165506Y8513D01*
X165558Y8360D01*
X165653Y8131D01*
X165653Y6093D01*
X165202Y5004D01*
X165189Y4956D01*
X165167Y4911D01*
X165147Y4803D01*
X165118Y4697D01*
X165117Y4647D01*
X165108Y4598D01*
X165114Y4489D01*
X165113Y4379D01*
X165124Y4330D01*
X165127Y4281D01*
X165161Y4177D01*
X165187Y4070D01*
X165210Y4026D01*
X165225Y3979D01*
X165284Y3886D01*
X165335Y3788D01*
X165369Y3752D01*
X165395Y3710D01*
X165475Y3634D01*
X165549Y3553D01*
X165591Y3526D01*
X165627Y3492D01*
X165723Y3439D01*
X165815Y3378D01*
X165862Y3362D01*
X165905Y3338D01*
X166012Y3311D01*
X166116Y3275D01*
X166165Y3271D01*
X166213Y3259D01*
X166374Y3249D01*
X172330Y3248D01*
X172448Y3263D01*
G37*
%LPC*%
G36*
X280689Y91359D02*
X280689Y91359D01*
X280689Y98583D01*
X280826Y99092D01*
X281089Y99549D01*
X281461Y99921D01*
X281918Y100184D01*
X282427Y100321D01*
X286901Y100321D01*
X286901Y91359D01*
X280689Y91359D01*
G37*
%LPD*%
%LPC*%
G36*
X280679Y31659D02*
X280679Y31659D01*
X280679Y38883D01*
X280816Y39392D01*
X281079Y39849D01*
X281451Y40221D01*
X281908Y40484D01*
X282417Y40621D01*
X286891Y40621D01*
X286891Y31659D01*
X280679Y31659D01*
G37*
%LPD*%
%LPC*%
G36*
X282417Y17619D02*
X282417Y17619D01*
X281908Y17756D01*
X281451Y18019D01*
X281079Y18391D01*
X280816Y18848D01*
X280679Y19357D01*
X280679Y26581D01*
X286891Y26581D01*
X286891Y17619D01*
X282417Y17619D01*
G37*
%LPD*%
%LPC*%
G36*
X285591Y179099D02*
X285591Y179099D01*
X285591Y186010D01*
X285726Y185988D01*
X287090Y185545D01*
X288368Y184894D01*
X289528Y184051D01*
X290543Y183036D01*
X291386Y181876D01*
X292037Y180598D01*
X292480Y179234D01*
X292502Y179099D01*
X285591Y179099D01*
G37*
%LPD*%
%LPC*%
G36*
X274682Y179099D02*
X274682Y179099D01*
X274704Y179234D01*
X275147Y180598D01*
X275798Y181876D01*
X276641Y183036D01*
X277656Y184051D01*
X278816Y184894D01*
X280094Y185545D01*
X281458Y185988D01*
X281593Y186010D01*
X281593Y179099D01*
X274682Y179099D01*
G37*
%LPD*%
D10*
X283592Y177100D03*
X283592Y157100D03*
D11*
X289430Y29120D03*
X289440Y88820D03*
D12*
X279650Y123910D03*
X242450Y123890D03*
D13*
X182350Y122040D03*
D14*
X181100Y97450D03*
D15*
X181100Y20950D03*
D16*
X184600Y8850D03*
D14*
X181100Y31450D03*
X181100Y42450D03*
X181100Y53450D03*
X181100Y64450D03*
X181100Y75450D03*
X181100Y86450D03*
D17*
X172960Y109420D03*
X147560Y109420D03*
X172960Y134820D03*
X147560Y134820D03*
X172960Y160220D03*
X147560Y160220D03*
D18*
X15748Y184404D03*
X41148Y184404D03*
X66548Y184404D03*
X91948Y184404D03*
X117348Y184404D03*
D19*
X92960Y18040D03*
X49276Y27940D03*
D20*
X55880Y27940D01*
X76200Y7620D01*
X89916Y7620D01*
X92964Y10668D01*
X92964Y18036D01*
D21*
X92960Y18040D01*
D20*
X202184Y7112D02*
X226568Y6858D01*
D19*
X202184Y7112D03*
X160528Y7112D03*
D20*
X158496Y5080D01*
X98552Y5080D01*
X92964Y10668D01*
D19*
X292862Y73152D03*
D20*
X226568Y6858D01*
D21*
X182350Y122040D02*
X184960Y124650D01*
X184600Y8850D02*
X184670Y8780D01*
X184600Y8850D02*
X189390Y8850D01*
X184910Y9160D02*
X184600Y8850D01*
D19*
X259588Y28956D03*
D21*
X217932Y32004D02*
X213360Y27432D01*
D19*
X213360Y27432D03*
X231140Y32004D03*
D21*
X217932Y32004D01*
D19*
X50800Y51308D03*
D21*
X37084Y51308D01*
X30988Y57404D01*
X30988Y60960D01*
X30480Y61468D01*
D19*
X30480Y61468D03*
D20*
X289440Y81668D02*
X289440Y88820D01*
X289440Y81668D02*
X239776Y32004D01*
X231140Y32004D01*
D19*
X30480Y129540D03*
D20*
X30480Y61468D01*
D19*
X50800Y14732D03*
D20*
X31496Y60452D02*
X30480Y61468D01*
X48768Y14732D02*
X50800Y14732D01*
D21*
X48768Y14732D02*
X30480Y33020D01*
X30480Y61468D01*
D19*
X231484Y139844D03*
D20*
X245828Y139844D01*
X283592Y177100D01*
D21*
X292100Y91480D02*
X289440Y88820D01*
D20*
X292100Y91480D02*
X292100Y101600D01*
X295148Y104648D01*
X295148Y167132D01*
X285180Y177100D01*
X283592Y177100D01*
D19*
X107696Y142748D03*
D21*
X106172Y141224D01*
X42164Y141224D01*
X30480Y129540D01*
X259752Y29120D02*
X289430Y29120D01*
X259752Y29120D02*
X259588Y28956D01*
X181750Y41800D02*
X178164Y41800D01*
X173736Y46228D01*
X164592Y46228D01*
X142240Y68580D01*
X127000Y68580D01*
D19*
X127000Y68580D03*
D21*
X116840Y151384D02*
X138724Y151384D01*
X116840Y151384D02*
X108204Y142748D01*
X107696Y142748D01*
X147560Y160220D02*
X156410Y160220D01*
X165862Y169672D01*
X191008Y169672D01*
X205740Y154940D01*
X216388Y154940D01*
X231484Y139844D01*
X147560Y160220D02*
X138724Y151384D01*
D19*
X248412Y8128D03*
D21*
X248412Y17780D01*
X259588Y28956D01*
D19*
X128524Y12192D03*
D21*
X127000Y13716D01*
X127000Y68580D01*
X184910Y9160D02*
X192040Y9160D01*
X200660Y17780D01*
X203708Y17780D01*
X213360Y27432D01*
X191516Y45720D02*
X187596Y41800D01*
X191516Y45720D02*
X192024Y57404D01*
D19*
X192024Y57404D03*
D21*
X187596Y41800D02*
X181750Y41800D01*
X181100Y42450D01*
X173140Y160040D02*
X172960Y160220D01*
D19*
X211000Y96000D03*
D21*
X179816Y153436D02*
X173140Y160040D01*
X199644Y123856D02*
X210920Y112580D01*
X211000Y96000D01*
X199644Y123856D02*
X199644Y141732D01*
X187940Y153436D01*
X179816Y153436D01*
D19*
X187614Y136034D03*
D21*
X181966Y136034D01*
X176460Y141540D01*
X165460Y141540D01*
D19*
X153460Y153040D03*
D21*
X120960Y146540D02*
X106460Y132040D01*
D19*
X50460Y132040D03*
D21*
X106460Y132040D01*
X50460Y132040D02*
X50460Y67240D01*
X48260Y65040D01*
D19*
X48260Y65040D03*
X78740Y19320D03*
D21*
X78740Y56760D01*
X70460Y65040D02*
X48260Y65040D01*
X70460Y65040D02*
X78740Y56760D01*
X120960Y146540D02*
X146960Y146540D01*
X153460Y153040D01*
X153960Y153040D01*
X165460Y141540D01*
D19*
X94960Y120540D03*
D21*
X101460Y120540D01*
X122452Y142040D01*
X154460Y142040D01*
X156460Y140040D01*
D19*
X156460Y140040D03*
X113700Y123746D03*
D21*
X180040Y76950D02*
X181100Y75450D01*
X180040Y76950D02*
X170286Y77066D01*
D19*
X170286Y77066D03*
X154500Y93000D03*
D21*
X157734Y96234D01*
X157734Y113046D01*
X139220Y113300D02*
X120700Y113300D01*
X139220Y113300D02*
X142960Y117040D01*
X153740Y117040D01*
X147560Y134820D02*
X122996Y134820D01*
X113700Y125524D01*
X113700Y120300D02*
X120700Y113300D01*
X113700Y123746D02*
X113700Y125524D01*
X113700Y123746D02*
X113700Y120300D01*
X153740Y117040D02*
X157734Y113046D01*
D19*
X124500Y126040D03*
D21*
X162240Y134820D02*
X172960Y134820D01*
X128000Y129540D02*
X124500Y126040D01*
X172460Y119540D02*
X172460Y134320D01*
X172960Y134820D01*
X166246Y88826D02*
X158960Y81540D01*
X158960Y58540D01*
X166206Y113286D02*
X172460Y119540D01*
X158960Y58540D02*
X166500Y51040D01*
X176150Y51040D01*
X181100Y53450D01*
X155460Y128040D02*
X162240Y134820D01*
X155460Y128040D02*
X141500Y128040D01*
X140000Y129540D01*
X128000Y129540D01*
X166206Y113286D02*
X166246Y88826D01*
D19*
X170500Y58120D03*
X170246Y39300D03*
D21*
X180910Y31640D02*
X181100Y31450D01*
X163706Y79786D02*
X172000Y88080D01*
X163706Y79786D02*
X163706Y64620D01*
X170500Y58120D01*
X172000Y88080D02*
X172000Y108460D01*
X172960Y109420D01*
X170246Y39300D02*
X170246Y33970D01*
X172720Y31496D01*
X181054Y31496D01*
X181100Y31450D01*
D19*
X135400Y123080D03*
D21*
X161380Y123080D01*
D19*
X165960Y127660D03*
D21*
X161380Y123080D01*
D19*
X148360Y80280D03*
D21*
X151200Y80280D01*
X161960Y91040D01*
X161960Y122500D02*
X161380Y123080D01*
X161960Y122500D02*
X161960Y91040D01*
D19*
X77060Y90560D03*
D21*
X81640Y95140D01*
X84180Y95140D01*
X96880Y82440D01*
X105360Y82440D01*
D19*
X183460Y144040D03*
D21*
X141040Y90040D02*
X140960Y90040D01*
D19*
X141060Y90060D03*
X170246Y68200D03*
D21*
X171540Y67200D01*
X174080Y64660D01*
X180890Y64660D01*
X181100Y64450D01*
D19*
X267444Y106548D03*
D21*
X230452Y106548D01*
D19*
X220206Y96302D03*
D21*
X230452Y106548D01*
X107460Y84540D02*
X105360Y82440D01*
D19*
X107460Y84540D03*
D21*
X138900Y87900D02*
X141060Y90060D01*
X138900Y87900D02*
X110820Y87900D01*
X107460Y84540D01*
D19*
X163032Y157492D03*
D21*
X181690Y65548D02*
X181100Y64450D01*
D19*
X192786Y66818D03*
D21*
X208008Y89500D02*
X214928Y89500D01*
X208008Y89500D02*
X203532Y93976D01*
X203532Y112452D01*
X195000Y120984D01*
X195000Y137754D01*
X188714Y144040D01*
X183460Y144040D01*
D19*
X262926Y180294D03*
D21*
X248747Y166116D01*
X201168Y166116D01*
X193548Y173736D01*
X160020Y173736D01*
X154940Y168148D01*
D19*
X154940Y168148D03*
D21*
X163032Y157492D02*
X170664Y149860D01*
X175260Y149860D01*
X181080Y144040D01*
X183460Y144040D01*
X181690Y65548D02*
X191008Y65548D01*
X192786Y66818D01*
X214928Y89500D02*
X220206Y96302D01*
D19*
X151260Y101268D03*
X193920Y108040D03*
D21*
X140368Y101268D02*
X135360Y96260D01*
X140368Y101268D02*
X151260Y101268D01*
D19*
X99822Y89170D03*
X238460Y92540D03*
D21*
X234960Y89040D02*
X220960Y89040D01*
X234960Y89040D02*
X238460Y92540D01*
X198984Y103484D02*
X193920Y108040D01*
X198984Y103484D02*
X198984Y92524D01*
X205640Y85360D01*
X217280Y85360D01*
X220960Y89040D01*
X135360Y96260D02*
X106912Y96260D01*
X99822Y89170D01*
D19*
X182208Y107840D03*
D21*
X223000Y84540D02*
X240460Y84540D01*
X246960Y91040D01*
X246960Y95540D01*
D19*
X246960Y95540D03*
D21*
X184748Y107760D02*
X182208Y107840D01*
X184748Y107760D02*
X194476Y98032D01*
X194476Y90524D01*
X204960Y80040D01*
X218500Y80040D01*
X223000Y84540D01*
D19*
X192540Y76320D03*
D21*
X225380Y75000D02*
X243428Y75000D01*
X225380Y75000D02*
X221460Y71040D01*
X197820Y71040D01*
X192540Y76320D01*
X192540Y80272D01*
X187452Y85360D01*
X181174Y85360D01*
X181100Y86450D01*
D19*
X258792Y86944D03*
D21*
X255372Y86944D02*
X243428Y75000D01*
X255372Y86944D02*
X258792Y86944D01*
D19*
X145160Y30948D03*
X165608Y28956D03*
D21*
X163616Y30948D02*
X145160Y30948D01*
X163616Y30948D02*
X165608Y28956D01*
D19*
X265172Y93380D03*
X276860Y79772D03*
D21*
X276860Y79940D01*
X269952Y73032D01*
X254460Y73032D01*
X245960Y65040D01*
X227960Y65040D01*
X224960Y62040D01*
X216960Y62040D01*
X207960Y53040D01*
X203556Y53040D01*
X202056Y51540D01*
X202056Y28524D01*
X196436Y22968D01*
D19*
X196436Y22968D03*
X167640Y15240D03*
D21*
X149352Y15240D01*
X146050Y11938D01*
D19*
X146050Y11938D03*
D21*
X265172Y91460D02*
X276860Y79772D01*
X265172Y91460D02*
X265172Y93380D01*
D19*
X100076Y99060D03*
D22*
X100076Y111760D01*
D19*
X100076Y111760D03*
D21*
X181100Y20950D02*
X188790Y20950D01*
X195940Y51684D02*
X201676Y57420D01*
X205740Y57420D01*
X222680Y66540D02*
X225920Y69780D01*
X214860Y66540D02*
X205740Y57420D01*
X214860Y66540D02*
X222680Y66540D01*
X225920Y69780D02*
X244160Y69780D01*
X252420Y78040D01*
D19*
X266964Y79492D03*
D21*
X264984Y78040D01*
X252420Y78040D01*
X195940Y51684D02*
X195940Y44048D01*
X189992Y38100D01*
X189992Y22152D01*
X188790Y20950D01*
X218440Y112776D02*
X205232Y125984D01*
X218440Y112776D02*
X260604Y112776D01*
X271780Y123952D01*
X279608Y123952D01*
X279650Y123910D01*
D19*
X185928Y163068D03*
D21*
X205232Y143764D01*
X205232Y125984D01*
X180870Y97680D02*
X181100Y97450D01*
X181100Y95140D01*
X181100Y97450D02*
X188050Y97450D01*
X189460Y96040D01*
X189460Y89540D01*
X203460Y75540D01*
X272968Y100048D02*
X275952Y103032D01*
X275952Y109523D01*
X220040Y75540D02*
X203460Y75540D01*
X220040Y75540D02*
X224500Y80000D01*
X241880Y80000D01*
X253492Y91612D01*
X275952Y109523D02*
X279136Y112636D01*
X285864Y112636D01*
X288036Y114808D01*
X288036Y140716D01*
X272968Y100048D02*
X262100Y100048D01*
X258572Y96520D01*
X253492Y91612D01*
D19*
X285496Y143256D03*
D21*
X288036Y140716D01*
D19*
X251968Y183896D03*
D21*
X238252Y170180D01*
X205740Y170180D01*
X198120Y177800D01*
X154432Y177800D01*
X132588Y155448D01*
X44704Y155448D01*
X15748Y184404D01*
D19*
X242316Y184404D03*
D21*
X233172Y174752D01*
X207264Y174752D01*
X200152Y181864D01*
X152400Y181864D01*
X130556Y160020D01*
X65532Y160020D01*
X41148Y184404D01*
D19*
X139700Y178816D03*
D21*
X125476Y164592D01*
X86360Y164592D01*
X66548Y184404D01*
D19*
X226568Y182880D03*
D21*
X206248Y182880D01*
X203200Y185928D01*
X137668Y185928D01*
X120904Y169164D01*
X107188Y169164D01*
X91948Y184404D01*
M02*
