G04 EAGLE Gerber RS-274X export*
G75*
%MOMM*%
%FSLAX34Y34*%
%LPD*%
%INSilkscreen Bottom*%
%IPPOS*%
%AMOC8*
5,1,8,0,0,1.08239X$1,22.5*%
G01*
%ADD10C,0.050800*%
%ADD11C,0.076200*%
%ADD12C,0.127000*%
%ADD13C,0.177800*%
%ADD14C,0.101600*%


D10*
X121060Y167135D02*
X121822Y167898D01*
X123348Y167898D01*
X124110Y167135D01*
X124110Y164085D01*
X123348Y163322D01*
X121822Y163322D01*
X121060Y164085D01*
X121060Y165610D01*
X122585Y165610D01*
X119433Y163322D02*
X119433Y167898D01*
X116382Y163322D01*
X116382Y167898D01*
X114755Y167898D02*
X114755Y163322D01*
X112467Y163322D01*
X111705Y164085D01*
X111705Y167135D01*
X112467Y167898D01*
X114755Y167898D01*
X96372Y166881D02*
X96372Y163830D01*
X96372Y166881D02*
X94846Y168406D01*
X93321Y166881D01*
X93321Y163830D01*
X93321Y166118D02*
X96372Y166118D01*
X91694Y167643D02*
X90931Y168406D01*
X89406Y168406D01*
X88643Y167643D01*
X88643Y166881D01*
X89406Y166118D01*
X90169Y166118D01*
X89406Y166118D02*
X88643Y165355D01*
X88643Y164593D01*
X89406Y163830D01*
X90931Y163830D01*
X91694Y164593D01*
X70972Y163830D02*
X70972Y166881D01*
X69446Y168406D01*
X67921Y166881D01*
X67921Y163830D01*
X67921Y166118D02*
X70972Y166118D01*
X66294Y163830D02*
X63243Y163830D01*
X66294Y163830D02*
X63243Y166881D01*
X63243Y167643D01*
X64006Y168406D01*
X65531Y168406D01*
X66294Y167643D01*
X45572Y166881D02*
X45572Y163830D01*
X45572Y166881D02*
X44046Y168406D01*
X42521Y166881D01*
X42521Y163830D01*
X42521Y166118D02*
X45572Y166118D01*
X40894Y166881D02*
X39369Y168406D01*
X39369Y163830D01*
X40894Y163830D02*
X37843Y163830D01*
X20172Y163830D02*
X20172Y166881D01*
X18646Y168406D01*
X17121Y166881D01*
X17121Y163830D01*
X17121Y166118D02*
X20172Y166118D01*
X15494Y164593D02*
X15494Y167643D01*
X14731Y168406D01*
X13206Y168406D01*
X12443Y167643D01*
X12443Y164593D01*
X13206Y163830D01*
X14731Y163830D01*
X15494Y164593D01*
X12443Y167643D01*
X254254Y157095D02*
X259847Y157095D01*
X254254Y157095D02*
X254254Y160824D01*
X257983Y162708D02*
X257983Y163641D01*
X254254Y163641D01*
X254254Y164573D02*
X254254Y162708D01*
X259847Y163641D02*
X260779Y163641D01*
X259847Y166450D02*
X254254Y166450D01*
X259847Y166450D02*
X259847Y169247D01*
X258915Y170179D01*
X257050Y170179D01*
X256118Y169247D01*
X256118Y166450D01*
X254254Y172996D02*
X254254Y174860D01*
X255186Y175792D01*
X257050Y175792D01*
X257983Y174860D01*
X257983Y172996D01*
X257050Y172064D01*
X255186Y172064D01*
X254254Y172996D01*
D11*
X271276Y159857D02*
X271276Y153586D01*
X274411Y156721D02*
X268141Y156721D01*
X271784Y173398D02*
X271784Y179669D01*
D12*
X286592Y189100D02*
X297592Y189100D01*
X297592Y146100D02*
X286592Y146100D01*
X297592Y146100D02*
X297592Y145100D01*
D13*
X297445Y150032D02*
X297445Y158336D01*
X293293Y154184D02*
X301598Y154184D01*
X295445Y169182D02*
X295445Y177486D01*
D14*
X309400Y161475D02*
X311349Y159526D01*
X309400Y161475D02*
X309400Y163424D01*
X311349Y165373D01*
X321094Y165373D01*
X321094Y163424D02*
X321094Y167322D01*
X321094Y171220D02*
X309400Y171220D01*
X321094Y171220D02*
X321094Y177067D01*
X319145Y179016D01*
X315247Y179016D01*
X313298Y177067D01*
X313298Y171220D01*
X317196Y182914D02*
X321094Y186812D01*
X309400Y186812D01*
X309400Y182914D02*
X309400Y190710D01*
D12*
X294600Y5000D02*
X197000Y5000D01*
X294600Y5000D02*
X294613Y16938D01*
X294600Y41300D02*
X294600Y76500D01*
X294600Y101100D02*
X294600Y128400D01*
X287400Y128400D01*
X271700Y128400D02*
X250300Y128400D01*
X234200Y128400D02*
X192200Y128300D01*
X190900Y99700D02*
X190900Y22100D01*
D14*
X301708Y12604D02*
X313402Y4808D01*
X313402Y12604D02*
X301708Y4808D01*
X301708Y16502D02*
X301708Y24298D01*
X301708Y16502D02*
X309504Y24298D01*
X311453Y24298D01*
X313402Y22349D01*
X313402Y18451D01*
X311453Y16502D01*
M02*
