G04 EAGLE Gerber RS-274X export*
G75*
%MOMM*%
%FSLAX34Y34*%
%LPD*%
%INSoldermask Top*%
%IPPOS*%
%AMOC8*
5,1,8,0,0,1.08239X$1,22.5*%
G01*
%ADD10R,1.200000X1.100000*%
%ADD11R,1.100000X1.200000*%
%ADD12R,0.900000X1.300000*%
%ADD13R,1.300000X0.650000*%
%ADD14R,1.300000X0.800000*%
%ADD15C,0.300000*%
%ADD16C,1.522400*%
%ADD17C,0.396000*%
%ADD18R,0.775000X0.350000*%
%ADD19R,0.350000X0.775000*%
%ADD20C,0.312000*%
%ADD21R,5.080000X5.080000*%
%ADD22R,1.500000X0.450000*%
%ADD23R,2.000000X1.900000*%
%ADD24R,2.000000X2.000000*%
%ADD25R,1.800000X2.500000*%
%ADD26C,0.711200*%
%ADD27C,1.979600*%


D10*
X271956Y10864D03*
X288956Y10864D03*
X238760Y42360D03*
X255760Y42360D03*
X223320Y42080D03*
X206320Y42080D03*
D11*
X107320Y58120D03*
X107320Y41120D03*
D10*
X272396Y29372D03*
X289396Y29372D03*
X239548Y17544D03*
X256548Y17544D03*
X118320Y78900D03*
X135320Y78900D03*
X97400Y75200D03*
X80400Y75200D03*
X224960Y17276D03*
X207960Y17276D03*
D12*
X80140Y138280D03*
X98140Y138280D03*
X137224Y21132D03*
X119224Y21132D03*
D13*
X106441Y8980D03*
X106441Y18480D03*
X106441Y27980D03*
X80439Y27980D03*
X80439Y8980D03*
D14*
X46420Y39720D03*
X9420Y39720D03*
D15*
X84850Y108370D03*
X84850Y102710D03*
X90510Y108370D03*
X90510Y102710D03*
X87680Y111200D03*
X93340Y111200D03*
X82020Y111200D03*
X93340Y105540D03*
X82020Y105540D03*
X87680Y99880D03*
X93340Y99880D03*
X82020Y99880D03*
D16*
X283592Y177100D03*
X283592Y157100D03*
D17*
X35993Y149376D02*
X35993Y142336D01*
X28953Y142336D01*
X28953Y149376D01*
X35993Y149376D01*
X35993Y146098D02*
X28953Y146098D01*
X53533Y149376D02*
X53533Y142336D01*
X46493Y142336D01*
X46493Y149376D01*
X53533Y149376D01*
X53533Y146098D02*
X46493Y146098D01*
D18*
X109055Y112820D03*
X109055Y107820D03*
X109055Y102820D03*
X109055Y97820D03*
D19*
X126680Y95195D03*
X121680Y95195D03*
X116680Y95195D03*
D18*
X134305Y112820D03*
X134305Y107820D03*
X134305Y102820D03*
X134305Y97820D03*
D19*
X126680Y115320D03*
X121680Y115320D03*
X116680Y115320D03*
D10*
X118786Y147995D03*
X135786Y147995D03*
D11*
X62220Y10080D03*
X62220Y27080D03*
D10*
X166276Y175276D03*
X183276Y175276D03*
X123868Y41940D03*
X140868Y41940D03*
X140700Y57900D03*
X123700Y57900D03*
D11*
X62840Y91780D03*
X62840Y74780D03*
X63120Y122980D03*
X63120Y105980D03*
D10*
X270360Y61872D03*
X287360Y61872D03*
X273192Y46280D03*
X290192Y46280D03*
D20*
X200720Y165180D02*
X194840Y165180D01*
X200720Y165180D02*
X200720Y164300D01*
X194840Y164300D01*
X194840Y165180D01*
X194840Y160180D02*
X200720Y160180D01*
X200720Y159300D01*
X194840Y159300D01*
X194840Y160180D01*
X194840Y155180D02*
X200720Y155180D01*
X200720Y154300D01*
X194840Y154300D01*
X194840Y155180D01*
X194840Y150180D02*
X200720Y150180D01*
X200720Y149300D01*
X194840Y149300D01*
X194840Y150180D01*
X194840Y145180D02*
X200720Y145180D01*
X200720Y144300D01*
X194840Y144300D01*
X194840Y145180D01*
X194840Y140180D02*
X200720Y140180D01*
X200720Y139300D01*
X194840Y139300D01*
X194840Y140180D01*
X194840Y134300D02*
X200720Y134300D01*
X194840Y134300D02*
X194840Y135180D01*
X200720Y135180D01*
X200720Y134300D01*
X200720Y129300D02*
X194840Y129300D01*
X194840Y130180D01*
X200720Y130180D01*
X200720Y129300D01*
X200720Y124300D02*
X194840Y124300D01*
X194840Y125180D01*
X200720Y125180D01*
X200720Y124300D01*
X200720Y119300D02*
X194840Y119300D01*
X194840Y120180D01*
X200720Y120180D01*
X200720Y119300D01*
X200720Y114300D02*
X194840Y114300D01*
X194840Y115180D01*
X200720Y115180D01*
X200720Y114300D01*
X206340Y108680D02*
X206340Y102800D01*
X206340Y108680D02*
X207220Y108680D01*
X207220Y102800D01*
X206340Y102800D01*
X206340Y105764D02*
X207220Y105764D01*
X211340Y108680D02*
X211340Y102800D01*
X211340Y108680D02*
X212220Y108680D01*
X212220Y102800D01*
X211340Y102800D01*
X211340Y105764D02*
X212220Y105764D01*
X216340Y108680D02*
X216340Y102800D01*
X216340Y108680D02*
X217220Y108680D01*
X217220Y102800D01*
X216340Y102800D01*
X216340Y105764D02*
X217220Y105764D01*
X221340Y108680D02*
X221340Y102800D01*
X221340Y108680D02*
X222220Y108680D01*
X222220Y102800D01*
X221340Y102800D01*
X221340Y105764D02*
X222220Y105764D01*
X226340Y108680D02*
X226340Y102800D01*
X226340Y108680D02*
X227220Y108680D01*
X227220Y102800D01*
X226340Y102800D01*
X226340Y105764D02*
X227220Y105764D01*
X231340Y108680D02*
X231340Y102800D01*
X231340Y108680D02*
X232220Y108680D01*
X232220Y102800D01*
X231340Y102800D01*
X231340Y105764D02*
X232220Y105764D01*
X237220Y108680D02*
X237220Y102800D01*
X236340Y102800D01*
X236340Y108680D01*
X237220Y108680D01*
X237220Y105764D02*
X236340Y105764D01*
X242220Y108680D02*
X242220Y102800D01*
X241340Y102800D01*
X241340Y108680D01*
X242220Y108680D01*
X242220Y105764D02*
X241340Y105764D01*
X247220Y108680D02*
X247220Y102800D01*
X246340Y102800D01*
X246340Y108680D01*
X247220Y108680D01*
X247220Y105764D02*
X246340Y105764D01*
X252220Y108680D02*
X252220Y102800D01*
X251340Y102800D01*
X251340Y108680D01*
X252220Y108680D01*
X252220Y105764D02*
X251340Y105764D01*
X257220Y108680D02*
X257220Y102800D01*
X256340Y102800D01*
X256340Y108680D01*
X257220Y108680D01*
X257220Y105764D02*
X256340Y105764D01*
X262840Y114300D02*
X268720Y114300D01*
X262840Y114300D02*
X262840Y115180D01*
X268720Y115180D01*
X268720Y114300D01*
X268720Y119300D02*
X262840Y119300D01*
X262840Y120180D01*
X268720Y120180D01*
X268720Y119300D01*
X268720Y124300D02*
X262840Y124300D01*
X262840Y125180D01*
X268720Y125180D01*
X268720Y124300D01*
X268720Y129300D02*
X262840Y129300D01*
X262840Y130180D01*
X268720Y130180D01*
X268720Y129300D01*
X268720Y134300D02*
X262840Y134300D01*
X262840Y135180D01*
X268720Y135180D01*
X268720Y134300D01*
X268720Y139300D02*
X262840Y139300D01*
X262840Y140180D01*
X268720Y140180D01*
X268720Y139300D01*
X268720Y145180D02*
X262840Y145180D01*
X268720Y145180D02*
X268720Y144300D01*
X262840Y144300D01*
X262840Y145180D01*
X262840Y150180D02*
X268720Y150180D01*
X268720Y149300D01*
X262840Y149300D01*
X262840Y150180D01*
X262840Y155180D02*
X268720Y155180D01*
X268720Y154300D01*
X262840Y154300D01*
X262840Y155180D01*
X262840Y160180D02*
X268720Y160180D01*
X268720Y159300D01*
X262840Y159300D01*
X262840Y160180D01*
X262840Y165180D02*
X268720Y165180D01*
X268720Y164300D01*
X262840Y164300D01*
X262840Y165180D01*
X257220Y170800D02*
X257220Y176680D01*
X257220Y170800D02*
X256340Y170800D01*
X256340Y176680D01*
X257220Y176680D01*
X257220Y173764D02*
X256340Y173764D01*
X252220Y176680D02*
X252220Y170800D01*
X251340Y170800D01*
X251340Y176680D01*
X252220Y176680D01*
X252220Y173764D02*
X251340Y173764D01*
X247220Y176680D02*
X247220Y170800D01*
X246340Y170800D01*
X246340Y176680D01*
X247220Y176680D01*
X247220Y173764D02*
X246340Y173764D01*
X242220Y176680D02*
X242220Y170800D01*
X241340Y170800D01*
X241340Y176680D01*
X242220Y176680D01*
X242220Y173764D02*
X241340Y173764D01*
X237220Y176680D02*
X237220Y170800D01*
X236340Y170800D01*
X236340Y176680D01*
X237220Y176680D01*
X237220Y173764D02*
X236340Y173764D01*
X232220Y176680D02*
X232220Y170800D01*
X231340Y170800D01*
X231340Y176680D01*
X232220Y176680D01*
X232220Y173764D02*
X231340Y173764D01*
X226340Y176680D02*
X226340Y170800D01*
X226340Y176680D02*
X227220Y176680D01*
X227220Y170800D01*
X226340Y170800D01*
X226340Y173764D02*
X227220Y173764D01*
X221340Y176680D02*
X221340Y170800D01*
X221340Y176680D02*
X222220Y176680D01*
X222220Y170800D01*
X221340Y170800D01*
X221340Y173764D02*
X222220Y173764D01*
X216340Y176680D02*
X216340Y170800D01*
X216340Y176680D02*
X217220Y176680D01*
X217220Y170800D01*
X216340Y170800D01*
X216340Y173764D02*
X217220Y173764D01*
X211340Y176680D02*
X211340Y170800D01*
X211340Y176680D02*
X212220Y176680D01*
X212220Y170800D01*
X211340Y170800D01*
X211340Y173764D02*
X212220Y173764D01*
X206340Y176680D02*
X206340Y170800D01*
X206340Y176680D02*
X207220Y176680D01*
X207220Y170800D01*
X206340Y170800D01*
X206340Y173764D02*
X207220Y173764D01*
D21*
X231780Y139740D03*
D13*
X62979Y59480D03*
X62979Y49980D03*
X62979Y40480D03*
X88981Y40480D03*
X88981Y59480D03*
D22*
X41184Y114540D03*
X41184Y88540D03*
X41184Y108040D03*
X41184Y101540D03*
X41184Y95040D03*
D23*
X14684Y141540D03*
X14684Y61540D03*
D24*
X14684Y114240D03*
X14684Y88840D03*
D25*
X212180Y68180D03*
X249180Y68180D03*
D11*
X155820Y20080D03*
X155820Y37080D03*
X155920Y67180D03*
X155920Y50180D03*
D26*
X147560Y109420D03*
X147560Y134820D03*
X147560Y160220D03*
X172960Y109420D03*
X172960Y134820D03*
X172960Y160220D03*
D27*
X15748Y184404D03*
X41148Y184404D03*
X66548Y184404D03*
X91948Y184404D03*
X117348Y184404D03*
M02*
